<?xml version="1.0" standalone="no"?>
<!DOCTYPE svg PUBLIC "-//W3C//DTD SVG 1.1//EN" "http://www.w3.org/Graphics/SVG/1.1/DTD/svg11.dtd" >
<svg>
<metadata>
Created by FontForge 20090622 at Mon Nov 13 01:54:48 2017
 By deploy user
&#194;&#169; 2005 Microsoft Corporation. All Rights Reserved.
</metadata>
<defs>
<font id="Corbel-Bold" horiz-adv-x="1080" >
  <font-face 
    font-family="Corbel"
    font-weight="700"
    font-stretch="normal"
    units-per-em="2048"
    panose-1="2 11 7 3 2 2 4 2 2 4"
    ascent="1523"
    descent="-525"
    x-height="969"
    cap-height="1338"
    bbox="-1138 -490 2365 1943"
    underline-thickness="120"
    underline-position="-130"
    unicode-range="U+0020-U+FB04"
  />
<missing-glyph horiz-adv-x="948" 
d="M948 1338v-1338h-948v1338h948zM855 91v1156h-762v-1156h762zM363 224v125h122v-125h-122zM715 896q0 -35 -9.5 -62t-25 -49.5t-35.5 -41t-42 -35.5l-48 -38.5t-43 -42t-31 -51t-12 -65.5v-11h-88q-1 7 -1.5 15t-0.5 13q0 50 15 85.5t37.5 62t50.5 47.5l53 41
q32 25 54 54t22 73q0 57 -44.5 88.5t-117.5 31.5q-50 0 -96 -12t-82 -28v84q35 19 84 30.5t98 11.5q61 0 109.5 -14.5t82.5 -41t52 -63.5t18 -82z" />
    <glyph glyph-name="f_b.liga" unicode="fb" horiz-adv-x="1783" 
d="M1024 1045q0 -43 -0.5 -79.5t-1.5 -56.5h2q23 16 50 31t59 27t68.5 19t78.5 7q81 0 157.5 -29t135.5 -89.5t94.5 -153t35.5 -220.5q0 -135 -38 -234t-99.5 -164t-138.5 -96.5t-155 -31.5q-55 0 -99 13.5t-77 33.5t-55.5 42t-35.5 39h-4l-23 -103h-196q2 57 3.5 113.5
t1.5 113.5v1036q-60 16 -124 16q-48 0 -93.5 -10.5t-80.5 -35t-56.5 -66.5t-21.5 -105v-93h239v-195h-239v-774h-237v774h-164v195h164v89q0 112 39.5 190.5t105.5 128.5t151 73t175 23q54 0 109.5 -5t105.5 -13.5t92 -18t72 -18.5v-373zM1458 489q0 99 -22.5 160.5
t-56.5 96t-74.5 46.5t-76.5 12q-52 0 -106 -21t-98 -56v-464q14 -16 34.5 -33.5t46 -32t55.5 -24t64 -9.5q58 0 101.5 23.5t73 66.5t44.5 102.5t15 132.5z" />
    <glyph glyph-name="f_f_b.liga" unicode="ffb" horiz-adv-x="2396" 
d="M787 1058q0 112 39.5 190.5t105.5 128.5t151 73t175 23q55 0 110 -5t105 -13.5t92 -18t72 -18.5v-373q0 -43 -0.5 -79.5t-1.5 -56.5h2q23 16 50 31t59 27t68.5 19t78.5 7q81 0 157.5 -29t135.5 -89.5t94.5 -153t35.5 -220.5q0 -135 -38 -234t-99.5 -164t-138.5 -96.5
t-155 -31.5q-55 0 -99 13.5t-77 33.5t-55.5 42t-35.5 39h-4l-23 -103h-196q2 57 3.5 113.5t1.5 113.5v1036q-60 16 -124 16q-48 0 -93.5 -10.5t-80.5 -35t-56.5 -66.5t-21.5 -105v-93h239v-195h-239v-774h-237v774h-376v-774h-237v774h-164v195h164v125q0 98 27 169.5
t75.5 118t115.5 69t148 22.5q49 0 92 -7t75 -18v-188q-32 8 -66.5 13.5t-68.5 5.5q-42 0 -72 -10t-50 -32t-29.5 -57t-9.5 -85v-126h376v89zM2071 489q0 99 -22.5 160.5t-56.5 96t-74.5 46.5t-76.5 12q-52 0 -106 -21t-98 -56v-464q14 -16 34.5 -33.5t46 -32t55.5 -24
t64 -9.5q58 0 101.5 23.5t73 66.5t44.5 102.5t15 132.5z" />
    <glyph glyph-name="uniFB00" unicode="ff" horiz-adv-x="1285" 
d="M787 969v115q0 102 28.5 175.5t79.5 121t120 70t150 22.5q55 0 103.5 -9t81.5 -20v-188q-32 8 -74 15.5t-85 7.5q-40 0 -71 -10t-52.5 -31.5t-32.5 -56.5t-11 -85v-127h269v-195h-269v-774h-237v774h-376v-774h-237v774h-164v195h164v125q0 98 27 169.5t75.5 118
t115.5 69t148 22.5q49 0 92 -7t75 -18v-188q-32 8 -66.5 13.5t-68.5 5.5q-42 0 -72 -10t-50 -32t-29.5 -57t-9.5 -85v-126h376z" />
    <glyph glyph-name="f_h.liga" unicode="fh" horiz-adv-x="1793" 
d="M1024 1053q0 -75 -2.5 -123.5t-8.5 -87.5h4q21 28 50.5 55t67 48.5t84 34.5t102.5 13q48 0 93 -9.5t85 -29.5t72.5 -52t54.5 -76q19 -38 28 -86t9 -117v-623h-237v591q0 42 -4 72t-14 51q-21 43 -60 61.5t-89 18.5q-69 0 -127.5 -32.5t-107.5 -94.5v-667h-237v1263
q-60 16 -124 16q-48 0 -93.5 -10.5t-80.5 -35t-56.5 -66.5t-21.5 -105v-93h239v-195h-239v-774h-237v774h-164v195h164v89q0 112 39.5 190.5t105.5 128.5t151 73t175 23q55 0 110 -5t105 -13.5t92 -18t72 -18.5v-365z" />
    <glyph glyph-name="f_f_h.liga" unicode="ffh" horiz-adv-x="2406" 
d="M1637 1053q0 -75 -2.5 -123.5t-8.5 -87.5h4q21 28 50.5 55t67 48.5t84 34.5t102.5 13q48 0 93 -9.5t85 -29.5t72.5 -52t54.5 -76q19 -38 28 -86t9 -117v-623h-237v591q0 38 -4 70t-14 53q-20 42 -58.5 61t-90.5 19q-69 0 -127.5 -32.5t-107.5 -94.5v-667h-237v1263
q-60 16 -124 16q-48 0 -93.5 -10.5t-80.5 -35t-56.5 -66.5t-21.5 -105v-93h239v-195h-239v-774h-237v774h-376v-774h-237v774h-164v195h164v125q0 98 27 169.5t75.5 118t115.5 69t148 22.5q47 0 91 -7t76 -18v-188q-32 8 -66.5 13.5t-68.5 5.5q-42 0 -72 -10t-50 -32
t-29.5 -57t-9.5 -85v-126h376v89q0 112 39.5 190.5t105.5 128.5t151 73t175 23q83 0 179 -13t200 -42v-365z" />
    <glyph glyph-name="uniFB01" unicode="fi" horiz-adv-x="1160" 
d="M787 774h-376v-774h-237v774h-164v195h164v89q0 112 39 190.5t103 128.5t146.5 73t169.5 23q71 0 136.5 -9.5t120.5 -23.5v-188q-50 11 -107.5 19t-118.5 8q-49 0 -94.5 -10.5t-80.5 -35t-56 -66.5t-21 -105v-93h613v-969h-237v774z" />
    <glyph glyph-name="uniFB03" unicode="ffi" horiz-adv-x="1773" 
d="M1400 774h-376v-774h-237v774h-376v-774h-237v774h-164v195h164v125q0 98 27 169.5t75.5 118t115.5 69t148 22.5q49 0 91.5 -7t75.5 -18v-188q-32 8 -66.5 13.5t-68.5 5.5q-42 0 -72 -10t-50 -32t-29.5 -57t-9.5 -85v-126h376v88q0 112 39 191t103 129t146.5 73t169.5 23
q71 0 136.5 -9.5t120.5 -23.5v-188q-52 11 -109.5 19t-116.5 8q-49 0 -94.5 -10.5t-80.5 -35t-56 -66.5t-21 -105v-93h613v-969h-237v774z" />
    <glyph glyph-name="f_j.liga" unicode="fj" horiz-adv-x="1160" 
d="M787 774h-376v-774h-237v774h-164v195h164v89q0 112 39 190.5t103 128.5t146.5 73t169.5 23q72 0 137 -9.5t120 -23.5v-188q-51 11 -109 19t-117 8q-49 0 -94.5 -10.5t-80.5 -35t-56 -66.5t-21 -105v-93h613v-1096q0 -136 -43 -210q-45 -78 -132 -115.5t-206 -37.5
q-51 0 -95.5 6t-80.5 17v194q30 -8 70 -15.5t77 -7.5q49 0 84.5 11t57.5 38q17 20 24 56t7 83v882z" />
    <glyph glyph-name="f_f_j.liga" unicode="ffj" horiz-adv-x="1773" 
d="M1400 774h-376v-774h-237v774h-376v-774h-237v774h-164v195h164v125q0 98 27 169.5t75.5 118t115.5 69t148 22.5q49 0 91.5 -7t75.5 -18v-188q-32 8 -66.5 13.5t-68.5 5.5q-42 0 -72 -10t-50 -32t-29.5 -57t-9.5 -85v-126h376v89q0 112 39 190.5t103 128.5t146.5 73
t169.5 23q74 0 138.5 -9.5t118.5 -23.5v-188q-50 11 -108.5 19t-117.5 8q-49 0 -94.5 -10.5t-80.5 -35t-56 -66.5t-21 -105v-93h613v-1096q0 -136 -43 -210q-45 -78 -131.5 -115.5t-206.5 -37.5q-51 0 -95.5 6t-80.5 17v194q28 -8 69 -15.5t78 -7.5q48 0 84 11t58 38
q17 20 24 55t7 84v882z" />
    <glyph glyph-name="f_k.liga" unicode="fk" horiz-adv-x="1714" 
d="M1024 576h5l369 393h293l-425 -455l428 -514h-287l-379 451h-4v-451h-237v1263q-60 16 -124 16q-48 0 -93.5 -10.5t-80.5 -35t-56.5 -66.5t-21.5 -105v-93h239v-195h-239v-774h-237v774h-164v195h164v89q0 112 39.5 190.5t105.5 128.5t151 73t175 23q88 0 185 -14
t194 -41v-842z" />
    <glyph glyph-name="f_f_k.liga" unicode="ffk" horiz-adv-x="2327" 
d="M1637 576h5l369 393h293l-425 -455l428 -514h-287l-379 451h-4v-451h-237v1263q-60 16 -124 16q-48 0 -93.5 -10.5t-80.5 -35t-56.5 -66.5t-21.5 -105v-93h239v-195h-239v-774h-237v774h-376v-774h-237v774h-164v195h164v125q0 98 27 169.5t75.5 118t115.5 69t148 22.5
q47 0 91 -7t76 -18v-188q-31 8 -66 13.5t-69 5.5q-42 0 -72 -10t-50 -32t-29.5 -57t-9.5 -85v-126h376v89q0 112 39.5 190.5t105.5 128.5t151 73t175 23q101 0 205 -17t174 -38v-842z" />
    <glyph glyph-name="uniFB02" unicode="fl" horiz-adv-x="1164" 
d="M663 1279q-48 0 -93.5 -10.5t-80.5 -35t-56.5 -66.5t-21.5 -105v-93h239v-195h-239v-774h-237v774h-164v195h164v89q0 112 39.5 190.5t105.5 128.5t151 73t175 23q99 0 202.5 -16.5t176.5 -38.5v-1418h-237v1263q-59 16 -124 16z" />
    <glyph glyph-name="uniFB04" unicode="ffl" horiz-adv-x="1777" 
d="M411 969h376v89q0 112 39.5 190.5t105.5 128.5t151 73t175 23q95 0 195.5 -15.5t183.5 -39.5v-1418h-237v1263q-60 16 -124 16q-48 0 -93.5 -10.5t-80.5 -35t-56.5 -66.5t-21.5 -105v-93h239v-195h-239v-774h-237v774h-376v-774h-237v774h-164v195h164v125q0 98 27 169.5
t75.5 118t115.5 69t148 22.5q48 0 90.5 -7t76.5 -18v-188q-32 8 -67 13.5t-68 5.5q-42 0 -72 -10t-50 -32t-29.5 -57t-9.5 -85v-126z" />
    <glyph glyph-name=".notdef" horiz-adv-x="948" 
d="M948 1338v-1338h-948v1338h948zM855 91v1156h-762v-1156h762zM363 224v125h122v-125h-122zM715 896q0 -35 -9.5 -62t-25 -49.5t-35.5 -41t-42 -35.5l-48 -38.5t-43 -42t-31 -51t-12 -65.5v-11h-88q-1 7 -1.5 15t-0.5 13q0 50 15 85.5t37.5 62t50.5 47.5l53 41
q32 25 54 54t22 73q0 57 -44.5 88.5t-117.5 31.5q-50 0 -96 -12t-82 -28v84q35 19 84 30.5t98 11.5q61 0 109.5 -14.5t82.5 -41t52 -63.5t18 -82z" />
    <glyph glyph-name="glyph1" horiz-adv-x="0" 
 />
    <glyph glyph-name="glyph2" horiz-adv-x="422" 
 />
    <glyph glyph-name="space" unicode=" " horiz-adv-x="422" 
 />
    <glyph glyph-name="space" unicode="&#xa0;" horiz-adv-x="422" 
 />
    <glyph glyph-name="A" unicode="A" horiz-adv-x="1346" 
d="M926 341h-504l-131 -341h-261l531 1338h224l531 -1338h-259zM672 1016q-70 -210 -125 -351l-46 -119h346l-46 119q-55 142 -125 351h-4z" />
    <glyph glyph-name="B" unicode="B" horiz-adv-x="1276" 
d="M1129 982q0 -87 -39 -159.5t-129 -120.5v-4q50 -17 91.5 -43.5t71 -63t46 -82.5t16.5 -103q0 -49 -15.5 -105t-54.5 -108.5t-104 -96.5t-164 -70q-25 -6 -54.5 -11t-65.5 -8.5t-80 -5t-99 -1.5h-389v1338h465q149 0 240 -30q68 -22 118 -57.5t82.5 -79t48 -92t15.5 -97.5
zM405 582v-377h160q64 0 110 3.5t79 11.5q51 11 85 29.5t55 42t30 52t9 60.5q0 56 -31 98t-97 63q-29 9 -68 13t-100 4h-232zM626 787q100 0 149 20q55 23 78.5 63.5t23.5 91.5q0 53 -27 94.5t-92 61.5q-27 8 -63 11.5t-89 3.5h-201v-346h221z" />
    <glyph glyph-name="C" unicode="C" horiz-adv-x="1197" 
d="M811 1156q-100 0 -184.5 -33t-145 -96t-94.5 -155.5t-34 -211.5q0 -118 31 -207.5t89 -149.5t141.5 -90.5t189.5 -30.5q76 0 155 12t148 35v-211q-70 -20 -151 -31.5t-168 -11.5q-170 0 -299 48.5t-215.5 137t-130 212t-43.5 272.5q0 153 46.5 284t134 227t219 151
t297.5 56q85 0 161 -11.5t137 -32.5v-208q-80 25 -149 35t-135 10z" />
    <glyph glyph-name="D" unicode="D" horiz-adv-x="1411" 
d="M160 0v1338h354q47 0 95.5 -3t94.5 -9t89 -14.5t79 -20.5q107 -34 189 -92t137.5 -137t84 -176.5t28.5 -211.5q0 -108 -24 -202.5t-73 -172.5t-123.5 -137.5t-176.5 -97.5q-85 -32 -193 -48t-243 -16h-318zM506 205q215 0 336 59q107 53 162 154t55 258q0 82 -18 148
t-52 117.5t-82.5 88.5t-109.5 61q-57 22 -127 32t-157 10h-108v-928h101z" />
    <glyph glyph-name="E" unicode="E" horiz-adv-x="1163" 
d="M405 205h658v-205h-903v1338h867v-205h-622v-346h534v-205h-534v-377z" />
    <glyph glyph-name="F" unicode="F" horiz-adv-x="1067" 
d="M405 0h-245v1338h852v-205h-607v-346h519v-205h-519v-582z" />
    <glyph glyph-name="G" unicode="G" horiz-adv-x="1377" 
d="M992 511h-300v205h545v-675q-30 -11 -76.5 -23t-104 -21.5t-118.5 -15.5t-121 -6q-180 0 -314.5 48.5t-224 136.5t-134 209.5t-44.5 268.5q0 104 23.5 198.5t69 175t110.5 145.5t148.5 111t183 70.5t213.5 24.5q101 0 192 -14.5t149 -35.5v-208q-78 25 -157.5 38
t-160.5 13q-109 0 -204 -32.5t-164.5 -96t-109.5 -156.5t-40 -215q1 -237 124 -355.5t349 -118.5q42 0 87 4.5t79 11.5v313z" />
    <glyph glyph-name="H" unicode="H" horiz-adv-x="1430" 
d="M405 787h620v551h245v-1338h-245v582h-620v-582h-245v1338h245v-551z" />
    <glyph glyph-name="I" unicode="I" horiz-adv-x="565" 
d="M160 0v1338h245v-1338h-245z" />
    <glyph glyph-name="J" unicode="J" horiz-adv-x="824" 
d="M424 1338h245v-989q0 -66 -9.5 -113.5t-28.5 -83.5q-25 -48 -63 -81.5t-86 -55t-103 -31t-114 -9.5q-61 0 -118.5 10t-96.5 26v209q44 -18 94 -28t99 -10q95 0 138 44t43 130v982z" />
    <glyph glyph-name="K" unicode="K" horiz-adv-x="1294" 
d="M160 0v1338h245v-609h4l505 609h304l-558 -663l604 -675h-314l-541 604h-4v-604h-245z" />
    <glyph glyph-name="L" unicode="L" horiz-adv-x="1101" 
d="M405 1338v-1133h626v-205h-871v1338h245z" />
    <glyph glyph-name="M" unicode="M" horiz-adv-x="1692" 
d="M848 359q44 158 109 339l231 640h344v-1338h-245v678q0 149 12 346h-9l-40 -128t-48 -140l-277 -756h-158l-277 756q-25 69 -48 140l-40 128h-9q12 -185 12 -345v-679h-245v1338h342l231 -637q58 -159 109 -342h6z" />
    <glyph glyph-name="N" unicode="N" horiz-adv-x="1490" 
d="M857 716q144 -205 234 -364h6q-12 261 -12 380v606h245v-1338h-257l-436 616q-115 160 -238 371h-6q12 -246 12 -381v-606h-245v1338h257z" />
    <glyph glyph-name="O" unicode="O" horiz-adv-x="1504" 
d="M1151 669q0 122 -30 213.5t-83 152.5t-126 91t-160 30t-160 -30t-126 -91t-83 -152.5t-30 -213.5t30 -213.5t83 -152t126 -91t160 -30.5t160 30.5t126 91t83 152t30 213.5zM1404 669q0 -153 -43.5 -280.5t-127 -219.5t-205 -143t-276.5 -51t-276.5 51t-205 143
t-127 219.5t-43.5 280.5t43.5 280.5t127 219.5t205 143t276.5 51t276.5 -51t205 -143t127 -219.5t43.5 -280.5z" />
    <glyph glyph-name="P" unicode="P" horiz-adv-x="1230" 
d="M530 518q-33 0 -65 1t-60 4v-523h-245v1338h386q97 0 169.5 -8.5t129.5 -25.5q137 -42 211 -134t74 -234q0 -97 -40 -174.5t-117 -131.5t-188 -83t-255 -29zM405 729q21 -3 53.5 -4.5t67.5 -1.5q99 0 166 16t108 44.5t59 69t18 88.5q0 59 -27 102t-94 67
q-35 12 -86.5 17.5t-126.5 5.5h-138v-404z" />
    <glyph glyph-name="Q" unicode="Q" horiz-adv-x="1557" 
d="M1151 669q0 122 -30 213.5t-83 152.5t-126 91t-160 30t-160 -30t-126 -91t-83 -152.5t-30 -213.5t30 -213.5t83 -152t126 -91t160 -30.5t160 30.5t126 91t83 152t30 213.5zM1178 171q25 7 57 13t66.5 10t69 6t67.5 2h19v-213q-53 5 -128 8t-159 3q-63 0 -113 -3
t-100.5 -6.5t-105 -6.5t-106.5 -3q-157 0 -277 50t-202 141t-124 217.5t-42 279.5t43.5 280.5t127 219.5t205 143t276.5 51t276.5 -51t205 -142t127 -216.5t43.5 -274.5q0 -78 -15 -152t-43.5 -138t-71.5 -119.5t-98 -95.5z" />
    <glyph glyph-name="R" unicode="R" horiz-adv-x="1286" 
d="M1150 936q0 -140 -77.5 -237.5t-239.5 -144.5v-4l398 -550h-294l-364 518h-168v-518h-245v1338h407q101 0 188 -11.5t149 -34.5q118 -45 182 -133.5t64 -222.5zM526 723q84 0 142.5 7.5t98.5 22.5q74 28 102.5 76.5t28.5 111.5q0 54 -22.5 95.5t-76.5 65.5
q-35 16 -88 23.5t-131 7.5h-175v-410h121z" />
    <glyph glyph-name="S" unicode="S" horiz-adv-x="1182" 
d="M818 384q0 51 -25 82.5t-68 51.5t-96.5 32.5t-112.5 24.5q-78 17 -149 40.5t-125 65t-86 105.5t-32 160q0 106 37 184.5t100.5 130t149 77t192.5 25.5t215 -21t186 -54v-210q-104 41 -199.5 59.5t-179.5 18.5q-121 0 -186.5 -44t-65.5 -132q0 -51 21.5 -84t58.5 -54.5
t85 -34.5t102 -24q85 -18 162.5 -41.5t137.5 -65.5t95 -109.5t35 -172.5q0 -108 -40 -187t-113.5 -130.5t-178.5 -76.5t-230 -25q-109 0 -214.5 21.5t-175.5 60.5v207q99 -43 193 -62.5t194 -19.5q58 0 114 9.5t100.5 32.5t71.5 62.5t27 97.5z" />
    <glyph glyph-name="T" unicode="T" horiz-adv-x="1168" 
d="M707 0h-245v1133h-432v205h1108v-205h-431v-1133z" />
    <glyph glyph-name="U" unicode="U" horiz-adv-x="1434" 
d="M714 -25q-105 0 -189 20.5t-148 59t-109 94t-72 125.5q-22 56 -31.5 124t-9.5 152v788h245v-766q0 -142 34 -222q38 -89 111 -128.5t172 -39.5t172 39.5t111 128.5q34 80 34 222v766h245v-788q0 -84 -9.5 -152t-31.5 -124q-27 -70 -72.5 -125.5t-111 -94t-150.5 -59
t-190 -20.5z" />
    <glyph glyph-name="V" unicode="V" horiz-adv-x="1306" 
d="M656 327l53.5 155.5l69.5 190.5l248 665h259l-523 -1338h-220l-523 1338h261l248 -665l69.5 -190.5l53.5 -155.5h4z" />
    <glyph glyph-name="W" unicode="W" horiz-adv-x="1864" 
d="M929 986q-39 -187 -90 -386l-150 -600h-244l-425 1338h261l161 -533q73 -251 118 -454h6q44 218 102 447l138 540h252l138 -540q58 -227 102 -447h6q55 240 118 454l161 533h261l-425 -1338h-244l-150 600q-51 203 -90 386h-6z" />
    <glyph glyph-name="X" unicode="X" horiz-adv-x="1302" 
d="M513 1063q97 -141 136 -202h5l135 201l191 276h282l-466 -658l486 -680h-278l-209 299l-142 208h-4l-142 -208l-209 -299h-278l486 680l-466 658h282z" />
    <glyph glyph-name="Y" unicode="Y" horiz-adv-x="1299" 
d="M651 762l356 576h272l-507 -799v-539h-245v539l-507 799h272l356 -576h3z" />
    <glyph glyph-name="Z" unicode="Z" horiz-adv-x="1231" 
d="M1132 1338v-133l-716 -1000h725v-205h-1051v132l717 1001h-699v205h1024z" />
    <glyph glyph-name="Agrave" unicode="&#xc0;" horiz-adv-x="1346" 
d="M926 341h-504l-131 -341h-261l531 1338h224l531 -1338h-259zM672 1016q-70 -210 -125 -351l-46 -119h346l-46 119q-55 142 -125 351h-4zM640 1656l138 -247h-188l-190 247h240zM234 1338z" />
    <glyph glyph-name="Aacute" unicode="&#xc1;" horiz-adv-x="1346" 
d="M926 341h-504l-131 -341h-261l531 1338h224l531 -1338h-259zM672 1016q-70 -210 -125 -351l-46 -119h346l-46 119q-55 142 -125 351h-4zM947 1656l-190 -247h-188l138 247h240zM391 1338z" />
    <glyph glyph-name="Acircumflex" unicode="&#xc2;" horiz-adv-x="1346" 
d="M926 341h-504l-131 -341h-261l531 1338h224l531 -1338h-259zM672 1016q-70 -210 -125 -351l-46 -119h346l-46 119q-55 142 -125 351h-4zM572 1656h206l216 -247h-207l-110 126h-4l-111 -126h-206zM275 1338z" />
    <glyph glyph-name="Atilde" unicode="&#xc3;" horiz-adv-x="1346" 
d="M926 341h-504l-131 -341h-261l531 1338h224l531 -1338h-259zM672 1016q-70 -210 -125 -351l-46 -119h346l-46 119q-55 142 -125 351h-4zM524 1656q39 0 77 -13.5t71 -30.5q35 -19 65.5 -33.5t52.5 -14.5q28 0 39.5 19t11.5 65h157q1 -15 1 -33q0 -38 -8.5 -76t-30 -69
t-57 -49t-83.5 -18q-40 0 -77 13.5t-70 30.5l-65.5 33t-53.5 15q-28 0 -39.5 -19t-11.5 -65h-157q-1 16 -1 33q0 39 8.5 77t30 68.5t57 48.5t83.5 18zM272 1339z" />
    <glyph glyph-name="Adieresis" unicode="&#xc4;" horiz-adv-x="1346" 
d="M926 341h-504l-131 -341h-261l531 1338h224l531 -1338h-259zM672 1016q-70 -210 -125 -351l-46 -119h346l-46 119q-55 142 -125 351h-4zM354 1673h224v-225h-224v225zM766 1673h224v-225h-224v225zM272 1338z" />
    <glyph glyph-name="Amacron" unicode="&#x100;" horiz-adv-x="1346" 
d="M926 341h-504l-131 -341h-261l531 1338h224l531 -1338h-259zM672 1016q-70 -210 -125 -351l-46 -119h346l-46 119q-55 142 -125 351h-4zM391 1617h560v-169h-560v169zM271 1338z" />
    <glyph glyph-name="Abreve" unicode="&#x102;" horiz-adv-x="1346" 
d="M926 341h-504l-131 -341h-261l531 1338h224l531 -1338h-259zM672 1016q-70 -210 -125 -351l-46 -119h346l-46 119q-55 142 -125 351h-4zM672 1568q49 0 84 26t46 86h206q-7 -65 -32 -116.5t-68 -87.5t-102 -55t-134 -19t-134 19t-102 55t-68 87.5t-32 116.5h206
q11 -60 46 -86t84 -26zM272 1338z" />
    <glyph glyph-name="Aring" unicode="&#xc5;" horiz-adv-x="1346" 
d="M926 341h-504l-131 -341h-261l531 1338h224l531 -1338h-259zM672 1016q-70 -210 -125 -351l-46 -119h346l-46 119q-55 142 -125 351h-4zM671 1367q-54 0 -100 13t-79 38.5t-52 62t-19 82.5q0 47 19 83t52 61.5t79 38.5t100 13t100 -13t79 -38.5t52 -61.5t19 -83
q0 -46 -19 -82.5t-52 -62t-79 -38.5t-100 -13zM671 1648q-43 0 -72 -21.5t-29 -63.5t29 -63.5t72 -21.5t72 21.5t29 63.5t-29 63.5t-72 21.5zM271 1338z" />
    <glyph glyph-name="Aringacute" unicode="&#x1fa;" horiz-adv-x="1346" 
d="M947 1943l-189 -199h-163l136 199h216zM669 1363q-52 0 -95.5 11.5t-75.5 34t-50 55.5t-18 76t18 76t50 55.5t75.5 34t95.5 11.5t95.5 -11.5t75.5 -34t50 -55.5t18 -76t-18 -76t-50 -55.5t-75.5 -34t-95.5 -11.5zM669 1611q-39 0 -67 -17t-28 -54t28 -54t67 -17t67 17
t28 54t-28 54t-67 17zM926 341h-504l-131 -341h-261l531 1338h224l531 -1338h-259zM672 1016q-70 -210 -125 -351l-46 -119h346l-46 119q-55 142 -125 351h-4z" />
    <glyph glyph-name="Aogonek" unicode="&#x104;" horiz-adv-x="1346" 
d="M1316 0q-59 -25 -106 -56t-80.5 -65t-51.5 -68.5t-18 -65.5q0 -36 22.5 -53t64.5 -17q57 0 120 23v-162q-29 -10 -73 -18t-95 -8t-94.5 11.5t-75.5 35t-50.5 59t-18.5 83.5q1 84 49 155.5t148 145.5l-131 341h-504l-131 -341h-261l531 1338h224zM672 1016
q-70 -210 -125 -351l-46 -119h346l-46 119q-55 142 -125 351h-4z" />
    <glyph glyph-name="AE" unicode="&#xc6;" horiz-adv-x="1913" 
d="M1221 205h622v-205h-831l-48 341h-510l-168 -341h-261l668 1338h1040v-205h-642l49 -346h498v-205h-470zM555 546h380l-82 587h-8z" />
    <glyph glyph-name="AEacute" unicode="&#x1fc;" horiz-adv-x="1913" 
d="M1221 205h622v-205h-831l-48 341h-510l-168 -341h-261l668 1338h1040v-205h-642l49 -346h498v-205h-470zM555 546h380l-82 587h-8zM1457 1656l-190 -247h-188l138 247h240zM901 1338z" />
    <glyph glyph-name="Cacute" unicode="&#x106;" horiz-adv-x="1197" 
d="M811 1156q-100 0 -184.5 -33t-145 -96t-94.5 -155.5t-34 -211.5q0 -118 31 -207.5t89 -149.5t141.5 -90.5t189.5 -30.5q76 0 155 12t148 35v-211q-70 -20 -151 -31.5t-168 -11.5q-170 0 -299 48.5t-215.5 137t-130 212t-43.5 272.5q0 153 46.5 284t134 227t219 151
t297.5 56q85 0 161 -11.5t137 -32.5v-208q-80 25 -149 35t-135 10zM1023 1656l-190 -247h-188l138 247h240zM467 1338z" />
    <glyph glyph-name="Ccircumflex" unicode="&#x108;" horiz-adv-x="1197" 
d="M811 1156q-100 0 -184.5 -33t-145 -96t-94.5 -155.5t-34 -211.5q0 -118 31 -207.5t89 -149.5t141.5 -90.5t189.5 -30.5q76 0 155 12t148 35v-211q-70 -20 -151 -31.5t-168 -11.5q-170 0 -299 48.5t-215.5 137t-130 212t-43.5 272.5q0 153 46.5 284t134 227t219 151
t297.5 56q85 0 161 -11.5t137 -32.5v-208q-80 25 -149 35t-135 10zM647 1656h206l216 -247h-207l-110 126h-4l-111 -126h-206zM350 1338z" />
    <glyph glyph-name="Ccaron" unicode="&#x10c;" horiz-adv-x="1197" 
d="M811 1156q-100 0 -184.5 -33t-145 -96t-94.5 -155.5t-34 -211.5q0 -118 31 -207.5t89 -149.5t141.5 -90.5t189.5 -30.5q76 0 155 12t148 35v-211q-70 -20 -151 -31.5t-168 -11.5q-170 0 -299 48.5t-215.5 137t-130 212t-43.5 272.5q0 153 46.5 284t134 227t219 151
t297.5 56q85 0 161 -11.5t137 -32.5v-208q-80 25 -149 35t-135 10zM857 1410h-206l-216 247h207l110 -126h4l111 126h206zM354 1338z" />
    <glyph glyph-name="Cdotaccent" unicode="&#x10a;" horiz-adv-x="1197" 
d="M811 1156q-100 0 -184.5 -33t-145 -96t-94.5 -155.5t-34 -211.5q0 -118 31 -207.5t89 -149.5t141.5 -90.5t189.5 -30.5q76 0 155 12t148 35v-211q-70 -20 -151 -31.5t-168 -11.5q-170 0 -299 48.5t-215.5 137t-130 212t-43.5 272.5q0 153 46.5 284t134 227t219 151
t297.5 56q85 0 161 -11.5t137 -32.5v-208q-80 25 -149 35t-135 10zM636 1705h249v-257h-249v257zM362 1338z" />
    <glyph glyph-name="Ccedilla" unicode="&#xc7;" horiz-adv-x="1197" 
d="M599 -7q-124 25 -217.5 82t-156 141.5t-94 193t-31.5 235.5q0 153 46.5 284.5t135.5 227.5t219 151t296 55q88 0 162.5 -11.5t135.5 -32.5v-208q-79 25 -150 35t-134 10q-100 0 -184.5 -33t-145 -96t-94.5 -155.5t-34 -211.5q0 -118 31 -207.5t89 -149.5t141.5 -90.5
t189.5 -30.5q80 0 162 13.5t141 33.5v-211q-70 -20 -151 -31.5t-168 -11.5q-16 0 -29 0.5t-14 0.5l-26 -94q41 -6 74.5 -19.5t58.5 -35t39 -50t14 -63.5q0 -42 -20 -79t-58.5 -65t-99 -44t-132.5 -16q-38 0 -78.5 5.5t-61.5 13.5v146q22 -7 60.5 -12t69.5 -5q37 0 63.5 6
t41.5 15.5t21 21t6 21.5q0 31 -43.5 46t-136.5 17z" />
    <glyph glyph-name="Dcaron" unicode="&#x10e;" horiz-adv-x="1411" 
d="M160 0v1338h354q47 0 95.5 -3t94.5 -9t89 -14.5t79 -20.5q107 -34 189 -92t137.5 -137t84 -176.5t28.5 -211.5q0 -108 -24 -202.5t-73 -172.5t-123.5 -137.5t-176.5 -97.5q-85 -32 -193 -48t-243 -16h-318zM506 205q215 0 336 59q107 53 162 154t55 258q0 82 -18 148
t-52 117.5t-82.5 88.5t-109.5 61q-57 22 -127 32t-157 10h-108v-928h101zM785 1410h-206l-216 247h207l110 -126h4l111 126h206zM282 1338z" />
    <glyph glyph-name="Dcroat" unicode="&#x110;" horiz-adv-x="1483" 
d="M60 787h171v551h355q47 0 95.5 -3t94.5 -9t89 -14.5t79 -20.5q107 -34 189 -92t137.5 -137t84 -176.5t28.5 -211.5q0 -108 -24 -202.5t-73 -172.5t-123.5 -137.5t-176.5 -97.5q-85 -32 -192 -48t-244 -16h-319v582h-171v205zM577 205q215 0 336 59q107 53 162 154t55 258
q0 82 -18 148t-52 117.5t-82.5 88.5t-109.5 61q-57 22 -127 32t-157 10h-108v-346h347v-205h-347v-377h101z" />
    <glyph glyph-name="Egrave" unicode="&#xc8;" horiz-adv-x="1163" 
d="M405 205h658v-205h-903v1338h867v-205h-622v-346h534v-205h-534v-377zM582 1656l138 -247h-188l-190 247h240zM176 1338z" />
    <glyph glyph-name="Eacute" unicode="&#xc9;" horiz-adv-x="1163" 
d="M405 205h658v-205h-903v1338h867v-205h-622v-346h534v-205h-534v-377zM852 1656l-190 -247h-188l138 247h240zM296 1338z" />
    <glyph glyph-name="Ecircumflex" unicode="&#xca;" horiz-adv-x="1163" 
d="M405 205h658v-205h-903v1338h867v-205h-622v-346h534v-205h-534v-377zM498 1656h206l216 -247h-207l-110 126h-4l-111 -126h-206zM201 1338z" />
    <glyph glyph-name="Ecaron" unicode="&#x11a;" horiz-adv-x="1163" 
d="M405 205h658v-205h-903v1338h867v-205h-622v-346h534v-205h-534v-377zM698 1410h-206l-216 247h207l110 -126h4l111 126h206zM195 1338z" />
    <glyph glyph-name="Edieresis" unicode="&#xcb;" horiz-adv-x="1163" 
d="M405 205h658v-205h-903v1338h867v-205h-622v-346h534v-205h-534v-377zM283 1673h224v-225h-224v225zM695 1673h224v-225h-224v225zM201 1338z" />
    <glyph glyph-name="Emacron" unicode="&#x112;" horiz-adv-x="1163" 
d="M405 205h658v-205h-903v1338h867v-205h-622v-346h534v-205h-534v-377zM303 1617h560v-169h-560v169zM183 1338z" />
    <glyph glyph-name="Ebreve" unicode="&#x114;" horiz-adv-x="1163" 
d="M405 205h658v-205h-903v1338h867v-205h-622v-346h534v-205h-534v-377zM592 1568q49 0 84 26t46 86h206q-7 -65 -32 -116.5t-68 -87.5t-102 -55t-134 -19t-134 19t-102 55t-68 87.5t-32 116.5h206q11 -60 46 -86t84 -26zM192 1338z" />
    <glyph glyph-name="Edotaccent" unicode="&#x116;" horiz-adv-x="1163" 
d="M405 205h658v-205h-903v1338h867v-205h-622v-346h534v-205h-534v-377zM472 1705h249v-257h-249v257zM198 1338z" />
    <glyph glyph-name="Eogonek" unicode="&#x118;" horiz-adv-x="1163" 
d="M160 0v1338h867v-205h-622v-346h534v-205h-534v-377h658v-205q-41 -30 -78.5 -62.5t-66 -64.5t-45.5 -64.5t-17 -63.5q0 -33 20.5 -51.5t64.5 -18.5q59 0 122 23v-162q-32 -11 -76 -18.5t-92 -7.5q-51 0 -94.5 11.5t-75.5 35t-50.5 59t-18.5 83.5q0 84 49 153.5
t148 143.5v4h-693z" />
    <glyph glyph-name="Gcircumflex" unicode="&#x11c;" horiz-adv-x="1377" 
d="M992 511h-300v205h545v-675q-30 -11 -76.5 -23t-104 -21.5t-118.5 -15.5t-121 -6q-180 0 -314.5 48.5t-224 136.5t-134 209.5t-44.5 268.5q0 104 23.5 198.5t69 175t110.5 145.5t148.5 111t183 70.5t213.5 24.5q101 0 192 -14.5t149 -35.5v-208q-78 25 -157.5 38
t-160.5 13q-109 0 -204 -32.5t-164.5 -96t-109.5 -156.5t-40 -215q1 -237 124 -355.5t349 -118.5q42 0 87 4.5t79 11.5v313zM659 1656h206l216 -247h-207l-110 126h-4l-111 -126h-206zM362 1338z" />
    <glyph glyph-name="Gbreve" unicode="&#x11e;" horiz-adv-x="1377" 
d="M992 511h-300v205h545v-675q-30 -11 -76.5 -23t-104 -21.5t-118.5 -15.5t-121 -6q-180 0 -314.5 48.5t-224 136.5t-134 209.5t-44.5 268.5q0 104 23.5 198.5t69 175t110.5 145.5t148.5 111t183 70.5t213.5 24.5q101 0 192 -14.5t149 -35.5v-208q-78 25 -157.5 38
t-160.5 13q-109 0 -204 -32.5t-164.5 -96t-109.5 -156.5t-40 -215q1 -237 124 -355.5t349 -118.5q42 0 87 4.5t79 11.5v313zM718 1568q49 0 84 26t46 86h206q-7 -65 -32 -116.5t-68 -87.5t-102 -55t-134 -19t-134 19t-102 55t-68 87.5t-32 116.5h206q11 -60 46 -86t84 -26z
M318 1338z" />
    <glyph glyph-name="Gdotaccent" unicode="&#x120;" horiz-adv-x="1377" 
d="M992 511h-300v205h545v-675q-30 -11 -76.5 -23t-104 -21.5t-118.5 -15.5t-121 -6q-180 0 -314.5 48.5t-224 136.5t-134 209.5t-44.5 268.5q0 104 23.5 198.5t69 175t110.5 145.5t148.5 111t183 70.5t213.5 24.5q101 0 192 -14.5t149 -35.5v-208q-78 25 -157.5 38
t-160.5 13q-109 0 -204 -32.5t-164.5 -96t-109.5 -156.5t-40 -215q1 -237 124 -355.5t349 -118.5q42 0 87 4.5t79 11.5v313zM634 1705h249v-257h-249v257zM360 1338z" />
    <glyph glyph-name="Gcommaaccent" unicode="&#x122;" horiz-adv-x="1377" 
d="M992 511h-300v205h545v-675q-30 -11 -76.5 -23t-104 -21.5t-118.5 -15.5t-121 -6q-180 0 -314.5 48.5t-224 136.5t-134 209.5t-44.5 268.5q0 104 23.5 198.5t69 175t110.5 145.5t148.5 111t183 70.5t213.5 24.5q101 0 192 -14.5t149 -35.5v-208q-78 25 -157.5 38
t-160.5 13q-109 0 -204 -32.5t-164.5 -96t-109.5 -156.5t-40 -215q1 -237 124 -355.5t349 -118.5q42 0 87 4.5t79 11.5v313zM750 -339q0 32 -22 46.5t-57 14.5v169q18 1 35 1q104 0 166 -47t62 -139q0 -48 -20 -99.5t-55 -96.5h-179q30 42 50 80.5t20 70.5z" />
    <glyph glyph-name="Hcircumflex" unicode="&#x124;" horiz-adv-x="1430" 
d="M405 787h620v551h245v-1338h-245v582h-620v-582h-245v1338h245v-551zM611 1656h206l216 -247h-207l-110 126h-4l-111 -126h-206zM314 1338z" />
    <glyph glyph-name="Hbar" unicode="&#x126;" horiz-adv-x="1430" 
d="M0 1175h160v163h245v-163h620v163h245v-163h158v-197h-158v-978h-245v582h-620v-582h-245v978h-160v197zM1025 787v191h-620v-191h620z" />
    <glyph glyph-name="Igrave" unicode="&#xcc;" horiz-adv-x="565" 
d="M160 0v1338h245v-1338h-245zM276 1656l138 -247h-188l-190 247h240zM-130 1338z" />
    <glyph glyph-name="Iacute" unicode="&#xcd;" horiz-adv-x="565" 
d="M160 0v1338h245v-1338h-245zM552 1656l-190 -247h-188l138 247h240zM-4 1338z" />
    <glyph glyph-name="Icircumflex" unicode="&#xce;" horiz-adv-x="565" 
d="M160 0v1338h245v-1338h-245zM187 1656h206l216 -247h-207l-110 126h-4l-111 -126h-206zM-110 1338z" />
    <glyph glyph-name="Itilde" unicode="&#x128;" horiz-adv-x="565" 
d="M160 0v1338h245v-1338h-245zM145 1656q39 0 77 -13.5t71 -30.5q35 -19 65.5 -33.5t52.5 -14.5q28 0 39.5 19t11.5 65h157q1 -15 1 -33q0 -38 -8.5 -76t-30 -69t-57 -49t-83.5 -18q-40 0 -77 13.5t-70 30.5l-65.5 33t-53.5 15q-28 0 -39.5 -19t-11.5 -65h-157q-1 16 -1 33
q0 39 8.5 77t30 68.5t57 48.5t83.5 18zM-107 1339z" />
    <glyph glyph-name="Idieresis" unicode="&#xcf;" horiz-adv-x="565" 
d="M160 0v1338h245v-1338h-245zM-28 1673h224v-225h-224v225zM384 1673h224v-225h-224v225zM-110 1338z" />
    <glyph glyph-name="Imacron" unicode="&#x12a;" horiz-adv-x="565" 
d="M160 0v1338h245v-1338h-245zM11 1617h560v-169h-560v169zM-109 1338z" />
    <glyph glyph-name="Ibreve" unicode="&#x12c;" horiz-adv-x="565" 
d="M160 0v1338h245v-1338h-245zM290 1568q49 0 84 26t46 86h206q-7 -65 -32 -116.5t-68 -87.5t-102 -55t-134 -19t-134 19t-102 55t-68 87.5t-32 116.5h206q11 -60 46 -86t84 -26zM-110 1338z" />
    <glyph glyph-name="Idotaccent" unicode="&#x130;" horiz-adv-x="565" 
d="M160 0v1338h245v-1338h-245zM167 1705h249v-257h-249v257zM-107 1338z" />
    <glyph glyph-name="Iogonek" unicode="&#x12e;" horiz-adv-x="565" 
d="M160 1338h245v-1338q-47 -26 -83 -57t-61 -64t-37.5 -65.5t-12.5 -59.5q0 -23 7.5 -38t20 -24t29 -13t35.5 -4q56 0 119 23v-162q-29 -10 -70.5 -18t-94.5 -8q-56 0 -101.5 13.5t-77.5 39.5t-49.5 64t-17.5 87q0 45 11 83.5t31 73t47 66.5t60 63v1338z" />
    <glyph glyph-name="IJ" unicode="&#x132;" horiz-adv-x="1337" 
d="M160 0v1338h245v-1338h-245zM937 1338h245v-989q0 -66 -9.5 -113.5t-28.5 -83.5q-25 -48 -63 -81.5t-86 -55t-103 -31t-114 -9.5q-61 0 -118.5 10t-96.5 26v209q44 -18 94 -28t99 -10q95 0 138 44t43 130v982z" />
    <glyph glyph-name="Jcircumflex" unicode="&#x134;" horiz-adv-x="824" 
d="M424 1338h245v-989q0 -66 -9.5 -113.5t-28.5 -83.5q-25 -48 -63 -81.5t-86 -55t-103 -31t-114 -9.5q-61 0 -118.5 10t-96.5 26v209q44 -18 94 -28t99 -10q95 0 138 44t43 130v982zM443 1656h206l216 -247h-207l-110 126h-4l-111 -126h-206zM146 1338z" />
    <glyph glyph-name="Kcommaaccent" unicode="&#x136;" horiz-adv-x="1294" 
d="M160 0v1338h245v-609h4l505 609h304l-558 -663l604 -675h-314l-541 604h-4v-604h-245zM635 -339q0 32 -22 46.5t-57 14.5v169q18 1 35 1q104 0 166 -47t62 -139q0 -48 -20 -99.5t-55 -96.5h-179q30 42 50 80.5t20 70.5z" />
    <glyph glyph-name="Lacute" unicode="&#x139;" horiz-adv-x="1101" 
d="M405 1338v-1133h626v-205h-871v1338h245zM550 1656l-190 -247h-188l138 247h240zM-6 1338z" />
    <glyph glyph-name="Lcaron" unicode="&#x13d;" horiz-adv-x="1101" 
d="M405 1338v-1133h626v-205h-871v1338h245zM672 1116q0 32 -22 46.5t-57 14.5v169q18 1 34 1q106 0 167.5 -46.5t61.5 -133.5q0 -51 -20 -103t-55 -99h-179q29 40 49.5 80t20.5 71z" />
    <glyph glyph-name="Lcommaaccent" unicode="&#x13b;" horiz-adv-x="1101" 
d="M405 1338v-1133h626v-205h-871v1338h245zM583 -339q0 32 -22 46.5t-57 14.5v169q18 1 35 1q104 0 166 -47t62 -139q0 -48 -20 -99.5t-55 -96.5h-179q30 42 50 80.5t20 70.5z" />
    <glyph glyph-name="Lslash" unicode="&#x141;" horiz-adv-x="1101" 
d="M751 736l-346 -129v-402h626v-205h-871v517l-146 -54v210l146 54v611h245v-521l346 129v-210z" />
    <glyph glyph-name="Ldot" unicode="&#x13f;" horiz-adv-x="1101" 
d="M405 1338v-1133h626v-205h-871v1338h245zM625 880h249v-257h-249v257z" />
    <glyph glyph-name="Nacute" unicode="&#x143;" horiz-adv-x="1490" 
d="M857 716q144 -205 234 -364h6q-12 261 -12 380v606h245v-1338h-257l-436 616q-115 160 -238 371h-6q12 -246 12 -381v-606h-245v1338h257zM1020 1656l-190 -247h-188l138 247h240zM464 1338z" />
    <glyph glyph-name="Ncaron" unicode="&#x147;" horiz-adv-x="1490" 
d="M857 716q144 -205 234 -364h6q-12 261 -12 380v606h245v-1338h-257l-436 616q-115 160 -238 371h-6q12 -246 12 -381v-606h-245v1338h257zM849 1410h-206l-216 247h207l110 -126h4l111 126h206zM346 1338z" />
    <glyph glyph-name="Ntilde" unicode="&#xd1;" horiz-adv-x="1490" 
d="M857 716q144 -205 234 -364h6q-12 261 -12 380v606h245v-1338h-257l-436 616q-115 160 -238 371h-6q12 -246 12 -381v-606h-245v1338h257zM602 1656q39 0 77 -13.5t71 -30.5q35 -19 65.5 -33.5t52.5 -14.5q28 0 39.5 19t11.5 65h157q1 -15 1 -33q0 -38 -8.5 -76t-30 -69
t-57 -49t-83.5 -18q-40 0 -77 13.5t-70 30.5l-65.5 33t-53.5 15q-28 0 -39.5 -19t-11.5 -65h-157q-1 16 -1 33q0 39 8.5 77t30 68.5t57 48.5t83.5 18zM350 1339z" />
    <glyph glyph-name="Ncommaaccent" unicode="&#x145;" horiz-adv-x="1490" 
d="M857 716q144 -205 234 -364h6q-12 261 -12 380v606h245v-1338h-257l-436 616q-115 160 -238 371h-6q12 -246 12 -381v-606h-245v1338h257zM709 -339q0 32 -22 46.5t-57 14.5v169q18 1 35 1q104 0 166 -47t62 -139q0 -48 -20 -99.5t-55 -96.5h-179q30 42 50 80.5t20 70.5z
" />
    <glyph glyph-name="Ograve" unicode="&#xd2;" horiz-adv-x="1504" 
d="M1151 669q0 122 -30 213.5t-83 152.5t-126 91t-160 30t-160 -30t-126 -91t-83 -152.5t-30 -213.5t30 -213.5t83 -152t126 -91t160 -30.5t160 30.5t126 91t83 152t30 213.5zM1404 669q0 -153 -43.5 -280.5t-127 -219.5t-205 -143t-276.5 -51t-276.5 51t-205 143
t-127 219.5t-43.5 280.5t43.5 280.5t127 219.5t205 143t276.5 51t276.5 -51t205 -143t127 -219.5t43.5 -280.5zM710 1656l138 -247h-188l-190 247h240zM304 1338z" />
    <glyph glyph-name="Oacute" unicode="&#xd3;" horiz-adv-x="1504" 
d="M1151 669q0 122 -30 213.5t-83 152.5t-126 91t-160 30t-160 -30t-126 -91t-83 -152.5t-30 -213.5t30 -213.5t83 -152t126 -91t160 -30.5t160 30.5t126 91t83 152t30 213.5zM1404 669q0 -153 -43.5 -280.5t-127 -219.5t-205 -143t-276.5 -51t-276.5 51t-205 143
t-127 219.5t-43.5 280.5t43.5 280.5t127 219.5t205 143t276.5 51t276.5 -51t205 -143t127 -219.5t43.5 -280.5zM1032 1656l-190 -247h-188l138 247h240zM476 1338z" />
    <glyph glyph-name="Ocircumflex" unicode="&#xd4;" horiz-adv-x="1504" 
d="M1151 669q0 122 -30 213.5t-83 152.5t-126 91t-160 30t-160 -30t-126 -91t-83 -152.5t-30 -213.5t30 -213.5t83 -152t126 -91t160 -30.5t160 30.5t126 91t83 152t30 213.5zM1404 669q0 -153 -43.5 -280.5t-127 -219.5t-205 -143t-276.5 -51t-276.5 51t-205 143
t-127 219.5t-43.5 280.5t43.5 280.5t127 219.5t205 143t276.5 51t276.5 -51t205 -143t127 -219.5t43.5 -280.5zM649 1656h206l216 -247h-207l-110 126h-4l-111 -126h-206zM352 1338z" />
    <glyph glyph-name="Otilde" unicode="&#xd5;" horiz-adv-x="1504" 
d="M1151 669q0 122 -30 213.5t-83 152.5t-126 91t-160 30t-160 -30t-126 -91t-83 -152.5t-30 -213.5t30 -213.5t83 -152t126 -91t160 -30.5t160 30.5t126 91t83 152t30 213.5zM1404 669q0 -153 -43.5 -280.5t-127 -219.5t-205 -143t-276.5 -51t-276.5 51t-205 143
t-127 219.5t-43.5 280.5t43.5 280.5t127 219.5t205 143t276.5 51t276.5 -51t205 -143t127 -219.5t43.5 -280.5zM611 1656q39 0 77 -13.5t71 -30.5q35 -19 65.5 -33.5t52.5 -14.5q28 0 39.5 19t11.5 65h157q1 -15 1 -33q0 -38 -8.5 -76t-30 -69t-57 -49t-83.5 -18
q-40 0 -77 13.5t-70 30.5l-65.5 33t-53.5 15q-28 0 -39.5 -19t-11.5 -65h-157q-1 16 -1 33q0 39 8.5 77t30 68.5t57 48.5t83.5 18zM359 1339z" />
    <glyph glyph-name="Odieresis" unicode="&#xd6;" horiz-adv-x="1504" 
d="M1151 669q0 122 -30 213.5t-83 152.5t-126 91t-160 30t-160 -30t-126 -91t-83 -152.5t-30 -213.5t30 -213.5t83 -152t126 -91t160 -30.5t160 30.5t126 91t83 152t30 213.5zM1404 669q0 -153 -43.5 -280.5t-127 -219.5t-205 -143t-276.5 -51t-276.5 51t-205 143
t-127 219.5t-43.5 280.5t43.5 280.5t127 219.5t205 143t276.5 51t276.5 -51t205 -143t127 -219.5t43.5 -280.5zM437 1673h224v-225h-224v225zM849 1673h224v-225h-224v225zM355 1338z" />
    <glyph glyph-name="Omacron" unicode="&#x14c;" horiz-adv-x="1504" 
d="M1151 669q0 122 -30 213.5t-83 152.5t-126 91t-160 30t-160 -30t-126 -91t-83 -152.5t-30 -213.5t30 -213.5t83 -152t126 -91t160 -30.5t160 30.5t126 91t83 152t30 213.5zM1404 669q0 -153 -43.5 -280.5t-127 -219.5t-205 -143t-276.5 -51t-276.5 51t-205 143
t-127 219.5t-43.5 280.5t43.5 280.5t127 219.5t205 143t276.5 51t276.5 -51t205 -143t127 -219.5t43.5 -280.5zM474 1617h560v-169h-560v169zM354 1338z" />
    <glyph glyph-name="Obreve" unicode="&#x14e;" horiz-adv-x="1504" 
d="M1151 669q0 122 -30 213.5t-83 152.5t-126 91t-160 30t-160 -30t-126 -91t-83 -152.5t-30 -213.5t30 -213.5t83 -152t126 -91t160 -30.5t160 30.5t126 91t83 152t30 213.5zM1404 669q0 -153 -43.5 -280.5t-127 -219.5t-205 -143t-276.5 -51t-276.5 51t-205 143
t-127 219.5t-43.5 280.5t43.5 280.5t127 219.5t205 143t276.5 51t276.5 -51t205 -143t127 -219.5t43.5 -280.5zM753 1568q49 0 84 26t46 86h206q-7 -65 -32 -116.5t-68 -87.5t-102 -55t-134 -19t-134 19t-102 55t-68 87.5t-32 116.5h206q11 -60 46 -86t84 -26zM353 1338z
" />
    <glyph glyph-name="Ohungarumlaut" unicode="&#x150;" horiz-adv-x="1504" 
d="M1151 669q0 122 -30 213.5t-83 152.5t-126 91t-160 30t-160 -30t-126 -91t-83 -152.5t-30 -213.5t30 -213.5t83 -152t126 -91t160 -30.5t160 30.5t126 91t83 152t30 213.5zM1404 669q0 -153 -43.5 -280.5t-127 -219.5t-205 -143t-276.5 -51t-276.5 51t-205 143
t-127 219.5t-43.5 280.5t43.5 280.5t127 219.5t205 143t276.5 51t276.5 -51t205 -143t127 -219.5t43.5 -280.5zM880 1656l-190 -247h-188l138 247h240zM1207 1656l-207 -247h-192l155 247h244zM448 1338z" />
    <glyph glyph-name="Oslash" unicode="&#xd8;" horiz-adv-x="1504" 
d="M241 -25l-141 133l118 128q-58 87 -88 196t-30 237q0 153 43.5 280.5t127 219.5t205 143t276.5 51q121 0 221 -31.5t178 -89.5l112 121l141 -133l-119 -128q59 -88 89 -196.5t30 -236.5q0 -153 -43.5 -280.5t-127 -219.5t-205 -143t-276.5 -51q-121 0 -221.5 31
t-178.5 89zM1151 669q0 72 -10.5 132.5t-30.5 111.5l-603 -650q50 -41 111.5 -61t133.5 -20q87 0 160 30.5t126 91t83 152t30 213.5zM752 1156q-87 0 -160 -30t-126 -91t-83 -152.5t-30 -213.5q0 -72 10 -132.5t30 -111.5l603 650q-50 41 -111.5 61t-132.5 20z" />
    <glyph glyph-name="Oslashacute" unicode="&#x1fe;" horiz-adv-x="1504" 
d="M241 -25l-141 133l118 128q-58 87 -88 196t-30 237q0 153 43.5 280.5t127 219.5t205 143t276.5 51q121 0 221 -31.5t178 -89.5l112 121l141 -133l-119 -128q59 -88 89 -196.5t30 -236.5q0 -153 -43.5 -280.5t-127 -219.5t-205 -143t-276.5 -51q-121 0 -221.5 31
t-178.5 89zM1151 669q0 72 -10.5 132.5t-30.5 111.5l-603 -650q50 -41 111.5 -61t133.5 -20q87 0 160 30.5t126 91t83 152t30 213.5zM752 1156q-87 0 -160 -30t-126 -91t-83 -152.5t-30 -213.5q0 -72 10 -132.5t30 -111.5l603 650q-50 41 -111.5 61t-132.5 20zM1043 1656
l-190 -247h-188l138 247h240zM487 1338z" />
    <glyph glyph-name="OE" unicode="&#x152;" horiz-adv-x="2144" 
d="M1386 205h658v-205h-893v138h-4q-70 -76 -170 -119.5t-239 -43.5q-149 0 -267.5 51t-201 143t-126 219.5t-43.5 280.5t43.5 280.5t125.5 219.5t200 143t266 51q138 0 240 -43.5t172 -120.5h4v139h857v-205h-622v-346h534v-205h-534v-377zM1151 669q0 122 -30 213.5
t-83 152.5t-126 91t-160 30t-160 -30t-126 -91t-83 -152.5t-30 -213.5t30 -213.5t83 -152t126 -91t160 -30.5t160 30.5t126 91t83 152t30 213.5z" />
    <glyph glyph-name="Racute" unicode="&#x154;" horiz-adv-x="1286" 
d="M1150 936q0 -140 -77.5 -237.5t-239.5 -144.5v-4l398 -550h-294l-364 518h-168v-518h-245v1338h407q101 0 188 -11.5t149 -34.5q118 -45 182 -133.5t64 -222.5zM526 723q84 0 142.5 7.5t98.5 22.5q74 28 102.5 76.5t28.5 111.5q0 54 -22.5 95.5t-76.5 65.5
q-35 16 -88 23.5t-131 7.5h-175v-410h121zM892 1656l-190 -247h-188l138 247h240zM336 1338z" />
    <glyph glyph-name="Rcaron" unicode="&#x158;" horiz-adv-x="1286" 
d="M1150 936q0 -140 -77.5 -237.5t-239.5 -144.5v-4l398 -550h-294l-364 518h-168v-518h-245v1338h407q101 0 188 -11.5t149 -34.5q118 -45 182 -133.5t64 -222.5zM526 723q84 0 142.5 7.5t98.5 22.5q74 28 102.5 76.5t28.5 111.5q0 54 -22.5 95.5t-76.5 65.5
q-35 16 -88 23.5t-131 7.5h-175v-410h121zM730 1410h-206l-216 247h207l110 -126h4l111 126h206zM227 1338z" />
    <glyph glyph-name="Rcommaaccent" unicode="&#x156;" horiz-adv-x="1286" 
d="M1150 936q0 -140 -77.5 -237.5t-239.5 -144.5v-4l398 -550h-294l-364 518h-168v-518h-245v1338h407q101 0 188 -11.5t149 -34.5q118 -45 182 -133.5t64 -222.5zM526 723q84 0 142.5 7.5t98.5 22.5q74 28 102.5 76.5t28.5 111.5q0 54 -22.5 95.5t-76.5 65.5
q-35 16 -88 23.5t-131 7.5h-175v-410h121zM614 -339q0 32 -22 46.5t-57 14.5v169q18 1 35 1q104 0 166 -47t62 -139q0 -48 -20 -99.5t-55 -96.5h-179q30 42 50 80.5t20 70.5z" />
    <glyph glyph-name="Sacute" unicode="&#x15a;" horiz-adv-x="1182" 
d="M818 384q0 51 -25 82.5t-68 51.5t-96.5 32.5t-112.5 24.5q-78 17 -149 40.5t-125 65t-86 105.5t-32 160q0 106 37 184.5t100.5 130t149 77t192.5 25.5t215 -21t186 -54v-210q-104 41 -199.5 59.5t-179.5 18.5q-121 0 -186.5 -44t-65.5 -132q0 -51 21.5 -84t58.5 -54.5
t85 -34.5t102 -24q85 -18 162.5 -41.5t137.5 -65.5t95 -109.5t35 -172.5q0 -108 -40 -187t-113.5 -130.5t-178.5 -76.5t-230 -25q-109 0 -214.5 21.5t-175.5 60.5v207q99 -43 193 -62.5t194 -19.5q58 0 114 9.5t100.5 32.5t71.5 62.5t27 97.5zM884 1656l-190 -247h-188
l138 247h240zM328 1338z" />
    <glyph glyph-name="Scircumflex" unicode="&#x15c;" horiz-adv-x="1182" 
d="M818 384q0 51 -25 82.5t-68 51.5t-96.5 32.5t-112.5 24.5q-78 17 -149 40.5t-125 65t-86 105.5t-32 160q0 106 37 184.5t100.5 130t149 77t192.5 25.5t215 -21t186 -54v-210q-104 41 -199.5 59.5t-179.5 18.5q-121 0 -186.5 -44t-65.5 -132q0 -51 21.5 -84t58.5 -54.5
t85 -34.5t102 -24q85 -18 162.5 -41.5t137.5 -65.5t95 -109.5t35 -172.5q0 -108 -40 -187t-113.5 -130.5t-178.5 -76.5t-230 -25q-109 0 -214.5 21.5t-175.5 60.5v207q99 -43 193 -62.5t194 -19.5q58 0 114 9.5t100.5 32.5t71.5 62.5t27 97.5zM505 1656h206l216 -247h-207
l-110 126h-4l-111 -126h-206zM208 1338z" />
    <glyph glyph-name="Scaron" unicode="&#x160;" horiz-adv-x="1182" 
d="M818 384q0 51 -25 82.5t-68 51.5t-96.5 32.5t-112.5 24.5q-78 17 -149 40.5t-125 65t-86 105.5t-32 160q0 106 37 184.5t100.5 130t149 77t192.5 25.5t215 -21t186 -54v-210q-104 41 -199.5 59.5t-179.5 18.5q-121 0 -186.5 -44t-65.5 -132q0 -51 21.5 -84t58.5 -54.5
t85 -34.5t102 -24q85 -18 162.5 -41.5t137.5 -65.5t95 -109.5t35 -172.5q0 -108 -40 -187t-113.5 -130.5t-178.5 -76.5t-230 -25q-109 0 -214.5 21.5t-175.5 60.5v207q99 -43 193 -62.5t194 -19.5q58 0 114 9.5t100.5 32.5t71.5 62.5t27 97.5zM709 1410h-206l-216 247h207
l110 -126h4l111 126h206zM206 1338z" />
    <glyph glyph-name="Scedilla" unicode="&#x15e;" horiz-adv-x="1182" 
d="M818 384q0 51 -25 82.5t-67 51.5t-96.5 32.5t-113.5 24.5q-78 17 -149 40.5t-125 65t-86 105.5t-32 160q0 106 37 184.5t100.5 130t149 77t182.5 25.5q52 0 106 -4.5t107.5 -14t103.5 -23.5t94 -33v-210q-104 42 -199.5 60t-179.5 18q-121 0 -186.5 -44t-65.5 -132
q0 -51 21.5 -84t58.5 -54.5t85 -34.5t102 -24q85 -18 162.5 -41.5t137 -65.5t95 -109.5t35.5 -172.5q0 -98 -32.5 -172t-94 -125t-148.5 -80.5t-197 -37.5l-26 -97q41 -6 74.5 -19.5t58.5 -35t39 -50t14 -63.5q0 -42 -19.5 -78.5t-58.5 -65t-98.5 -44.5t-133.5 -16
q-39 0 -78.5 5.5t-61.5 13.5v146q22 -7 60.5 -12t67.5 -5q39 0 65.5 6t41 15.5t21 20t6.5 22.5q0 31 -43.5 46t-136.5 17l57 192q-42 3 -87 9t-88.5 16t-82.5 23.5t-71 31.5v207q99 -43 193 -62.5t194 -19.5q58 0 114 9.5t100.5 32.5t71.5 62t27 98z" />
    <glyph glyph-name="Scommaaccent" unicode="&#x218;" horiz-adv-x="1182" 
d="M818 384q0 51 -25 82.5t-68 51.5t-96.5 32.5t-112.5 24.5q-78 17 -149 40.5t-125 65t-86 105.5t-32 160q0 106 37 184.5t100.5 130t149 77t192.5 25.5t215 -21t186 -54v-210q-104 41 -199.5 59.5t-179.5 18.5q-121 0 -186.5 -44t-65.5 -132q0 -51 21.5 -84t58.5 -54.5
t85 -34.5t102 -24q85 -18 162.5 -41.5t137.5 -65.5t95 -109.5t35 -172.5q0 -108 -40 -187t-113.5 -130.5t-178.5 -76.5t-230 -25q-109 0 -214.5 21.5t-175.5 60.5v207q99 -43 193 -62.5t194 -19.5q58 0 114 9.5t100.5 32.5t71.5 62.5t27 97.5zM564 -339q0 32 -22 46.5
t-57 14.5v169q18 1 35 1q104 0 166 -47t62 -139q0 -48 -20 -99.5t-55 -96.5h-179q30 42 50 80.5t20 70.5z" />
    <glyph glyph-name="Tcaron" unicode="&#x164;" horiz-adv-x="1168" 
d="M707 0h-245v1133h-432v205h1108v-205h-431v-1133zM684 1410h-206l-216 247h207l110 -126h4l111 126h206zM181 1338z" />
    <glyph glyph-name="Tcommaaccent" unicode="&#x162;" horiz-adv-x="1168" 
d="M707 0h-245v1133h-432v205h1108v-205h-431v-1133zM540 -339q0 32 -22 46.5t-57 14.5v169q18 1 35 1q104 0 166 -47t62 -139q0 -48 -20 -99.5t-55 -96.5h-179q30 42 50 80.5t20 70.5z" />
    <glyph glyph-name="Tcommaaccent" unicode="&#x21a;" horiz-adv-x="1168" 
d="M707 0h-245v1133h-432v205h1108v-205h-431v-1133zM540 -339q0 32 -22 46.5t-57 14.5v169q18 1 35 1q104 0 166 -47t62 -139q0 -48 -20 -99.5t-55 -96.5h-179q30 42 50 80.5t20 70.5z" />
    <glyph glyph-name="Tbar" unicode="&#x166;" horiz-adv-x="1168" 
d="M224 787h238v346h-432v205h1108v-205h-431v-346h243v-205h-243v-582h-245v582h-238v205z" />
    <glyph glyph-name="Ugrave" unicode="&#xd9;" horiz-adv-x="1434" 
d="M714 -25q-105 0 -189 20.5t-148 59t-109 94t-72 125.5q-22 56 -31.5 124t-9.5 152v788h245v-766q0 -142 34 -222q38 -89 111 -128.5t172 -39.5t172 39.5t111 128.5q34 80 34 222v766h245v-788q0 -84 -9.5 -152t-31.5 -124q-27 -70 -72.5 -125.5t-111 -94t-150.5 -59
t-190 -20.5zM692 1656l138 -247h-188l-190 247h240zM286 1338z" />
    <glyph glyph-name="Uacute" unicode="&#xda;" horiz-adv-x="1434" 
d="M714 -25q-105 0 -189 20.5t-148 59t-109 94t-72 125.5q-22 56 -31.5 124t-9.5 152v788h245v-766q0 -142 34 -222q38 -89 111 -128.5t172 -39.5t172 39.5t111 128.5q34 80 34 222v766h245v-788q0 -84 -9.5 -152t-31.5 -124q-27 -70 -72.5 -125.5t-111 -94t-150.5 -59
t-190 -20.5zM1003 1656l-190 -247h-188l138 247h240zM447 1338z" />
    <glyph glyph-name="Ucircumflex" unicode="&#xdb;" horiz-adv-x="1434" 
d="M714 -25q-105 0 -189 20.5t-148 59t-109 94t-72 125.5q-22 56 -31.5 124t-9.5 152v788h245v-766q0 -142 34 -222q38 -89 111 -128.5t172 -39.5t172 39.5t111 128.5q34 80 34 222v766h245v-788q0 -84 -9.5 -152t-31.5 -124q-27 -70 -72.5 -125.5t-111 -94t-150.5 -59
t-190 -20.5zM613 1656h206l216 -247h-207l-110 126h-4l-111 -126h-206zM316 1338z" />
    <glyph glyph-name="Utilde" unicode="&#x168;" horiz-adv-x="1434" 
d="M714 -25q-105 0 -189 20.5t-148 59t-109 94t-72 125.5q-22 56 -31.5 124t-9.5 152v788h245v-766q0 -142 34 -222q38 -89 111 -128.5t172 -39.5t172 39.5t111 128.5q34 80 34 222v766h245v-788q0 -84 -9.5 -152t-31.5 -124q-27 -70 -72.5 -125.5t-111 -94t-150.5 -59
t-190 -20.5zM573 1656q39 0 77 -13.5t71 -30.5q35 -19 65.5 -33.5t52.5 -14.5q28 0 39.5 19t11.5 65h157q1 -15 1 -33q0 -38 -8.5 -76t-30 -69t-57 -49t-83.5 -18q-40 0 -77 13.5t-70 30.5l-65.5 33t-53.5 15q-28 0 -39.5 -19t-11.5 -65h-157q-1 16 -1 33q0 39 8.5 77
t30 68.5t57 48.5t83.5 18zM321 1339z" />
    <glyph glyph-name="Udieresis" unicode="&#xdc;" horiz-adv-x="1434" 
d="M714 -25q-105 0 -189 20.5t-148 59t-109 94t-72 125.5q-22 56 -31.5 124t-9.5 152v788h245v-766q0 -142 34 -222q38 -89 111 -128.5t172 -39.5t172 39.5t111 128.5q34 80 34 222v766h245v-788q0 -84 -9.5 -152t-31.5 -124q-27 -70 -72.5 -125.5t-111 -94t-150.5 -59
t-190 -20.5zM400 1673h224v-225h-224v225zM812 1673h224v-225h-224v225zM318 1338z" />
    <glyph glyph-name="Umacron" unicode="&#x16a;" horiz-adv-x="1434" 
d="M714 -25q-105 0 -189 20.5t-148 59t-109 94t-72 125.5q-22 56 -31.5 124t-9.5 152v788h245v-766q0 -142 34 -222q38 -89 111 -128.5t172 -39.5t172 39.5t111 128.5q34 80 34 222v766h245v-788q0 -84 -9.5 -152t-31.5 -124q-27 -70 -72.5 -125.5t-111 -94t-150.5 -59
t-190 -20.5zM436 1617h560v-169h-560v169zM316 1338z" />
    <glyph glyph-name="Ubreve" unicode="&#x16c;" horiz-adv-x="1434" 
d="M714 -25q-105 0 -189 20.5t-148 59t-109 94t-72 125.5q-22 56 -31.5 124t-9.5 152v788h245v-766q0 -142 34 -222q38 -89 111 -128.5t172 -39.5t172 39.5t111 128.5q34 80 34 222v766h245v-788q0 -84 -9.5 -152t-31.5 -124q-27 -70 -72.5 -125.5t-111 -94t-150.5 -59
t-190 -20.5zM717 1568q49 0 84 26t46 86h206q-7 -65 -32 -116.5t-68 -87.5t-102 -55t-134 -19t-134 19t-102 55t-68 87.5t-32 116.5h206q11 -60 46 -86t84 -26zM317 1338z" />
    <glyph glyph-name="Uring" unicode="&#x16e;" horiz-adv-x="1434" 
d="M714 -25q-105 0 -189 20.5t-148 59t-109 94t-72 125.5q-22 56 -31.5 124t-9.5 152v788h245v-766q0 -142 34 -222q38 -89 111 -128.5t172 -39.5t172 39.5t111 128.5q34 80 34 222v766h245v-788q0 -84 -9.5 -152t-31.5 -124q-27 -70 -72.5 -125.5t-111 -94t-150.5 -59
t-190 -20.5zM721 1367q-54 0 -100 13t-79 38.5t-52 62t-19 82.5q0 47 19 83t52 61.5t79 38.5t100 13t100 -13t79 -38.5t52 -61.5t19 -83q0 -46 -19 -82.5t-52 -62t-79 -38.5t-100 -13zM721 1648q-43 0 -72 -21.5t-29 -63.5t29 -63.5t72 -21.5t72 21.5t29 63.5t-29 63.5
t-72 21.5zM321 1338z" />
    <glyph glyph-name="Uhungarumlaut" unicode="&#x170;" horiz-adv-x="1434" 
d="M714 -25q-105 0 -189 20.5t-148 59t-109 94t-72 125.5q-22 56 -31.5 124t-9.5 152v788h245v-766q0 -142 34 -222q38 -89 111 -128.5t172 -39.5t172 39.5t111 128.5q34 80 34 222v766h245v-788q0 -84 -9.5 -152t-31.5 -124q-27 -70 -72.5 -125.5t-111 -94t-150.5 -59
t-190 -20.5zM825 1656l-190 -247h-188l138 247h240zM1152 1656l-207 -247h-192l155 247h244zM393 1338z" />
    <glyph glyph-name="Uogonek" unicode="&#x172;" horiz-adv-x="1434" 
d="M791 -14q-18 -4 -44 -6.5t-47 -2.5q-100 0 -181 20.5t-144 58.5t-107.5 93t-71.5 125q-22 56 -31.5 124t-9.5 152v788h245v-766q0 -142 34 -222q38 -89 111 -128.5t172 -39.5t172 39.5t111 128.5q34 80 34 222v766h245v-794q0 -98 -15 -173t-40.5 -133t-59 -101.5
t-71.5 -79.5q-49 -46 -98 -84t-90 -74t-65 -75t-24 -78q1 -40 24 -55.5t61 -15.5q59 0 122 23v-162q-29 -10 -72 -18t-96 -8q-51 0 -94.5 11.5t-75.5 35t-50.5 59t-18.5 83.5q0 78 44 146t132 137z" />
    <glyph glyph-name="Wgrave" unicode="&#x1e80;" horiz-adv-x="1864" 
d="M929 986q-39 -187 -90 -386l-150 -600h-244l-425 1338h261l161 -533q73 -251 118 -454h6q44 218 102 447l138 540h252l138 -540q58 -227 102 -447h6q55 240 118 454l161 533h261l-425 -1338h-244l-150 600q-51 203 -90 386h-6zM910 1656l138 -247h-188l-190 247h240z
M504 1338z" />
    <glyph glyph-name="Wacute" unicode="&#x1e82;" horiz-adv-x="1864" 
d="M929 986q-39 -187 -90 -386l-150 -600h-244l-425 1338h261l161 -533q73 -251 118 -454h6q44 218 102 447l138 540h252l138 -540q58 -227 102 -447h6q55 240 118 454l161 533h261l-425 -1338h-244l-150 600q-51 203 -90 386h-6zM1194 1656l-190 -247h-188l138 247h240z
M638 1338z" />
    <glyph glyph-name="Wcircumflex" unicode="&#x174;" horiz-adv-x="1864" 
d="M929 986q-39 -187 -90 -386l-150 -600h-244l-425 1338h261l161 -533q73 -251 118 -454h6q44 218 102 447l138 540h252l138 -540q58 -227 102 -447h6q55 240 118 454l161 533h261l-425 -1338h-244l-150 600q-51 203 -90 386h-6zM827 1656h206l216 -247h-207l-110 126h-4
l-111 -126h-206zM530 1338z" />
    <glyph glyph-name="Wdieresis" unicode="&#x1e84;" horiz-adv-x="1864" 
d="M929 986q-39 -187 -90 -386l-150 -600h-244l-425 1338h261l161 -533q73 -251 118 -454h6q44 218 102 447l138 540h252l138 -540q58 -227 102 -447h6q55 240 118 454l161 533h261l-425 -1338h-244l-150 600q-51 203 -90 386h-6zM616 1673h224v-225h-224v225zM1028 1673
h224v-225h-224v225zM534 1338z" />
    <glyph glyph-name="Ygrave" unicode="&#x1ef2;" horiz-adv-x="1299" 
d="M651 762l356 576h272l-507 -799v-539h-245v539l-507 799h272l356 -576h3zM621 1656l138 -247h-188l-190 247h240zM215 1338z" />
    <glyph glyph-name="Yacute" unicode="&#xdd;" horiz-adv-x="1299" 
d="M651 762l356 576h272l-507 -799v-539h-245v539l-507 799h272l356 -576h3zM936 1656l-190 -247h-188l138 247h240zM380 1338z" />
    <glyph glyph-name="Ycircumflex" unicode="&#x176;" horiz-adv-x="1299" 
d="M651 762l356 576h272l-507 -799v-539h-245v539l-507 799h272l356 -576h3zM543 1656h206l216 -247h-207l-110 126h-4l-111 -126h-206zM246 1338z" />
    <glyph glyph-name="Ydieresis" unicode="&#x178;" horiz-adv-x="1299" 
d="M651 762l356 576h272l-507 -799v-539h-245v539l-507 799h272l356 -576h3zM329 1673h224v-225h-224v225zM741 1673h224v-225h-224v225zM247 1338z" />
    <glyph glyph-name="Zacute" unicode="&#x179;" horiz-adv-x="1231" 
d="M1132 1338v-133l-716 -1000h725v-205h-1051v132l717 1001h-699v205h1024zM863 1656l-190 -247h-188l138 247h240zM307 1338z" />
    <glyph glyph-name="Zcaron" unicode="&#x17d;" horiz-adv-x="1231" 
d="M1132 1338v-133l-716 -1000h725v-205h-1051v132l717 1001h-699v205h1024zM722 1410h-206l-216 247h207l110 -126h4l111 126h206zM219 1338z" />
    <glyph glyph-name="Zdotaccent" unicode="&#x17b;" horiz-adv-x="1231" 
d="M1132 1338v-133l-716 -1000h725v-205h-1051v132l717 1001h-699v205h1024zM492 1705h249v-257h-249v257zM218 1338z" />
    <glyph glyph-name="Eng" unicode="&#x14a;" horiz-adv-x="1490" 
d="M1330 1338v-1401q0 -169 -89 -259t-280 -91q-19 0 -41.5 1.5t-39.5 4.5v199q25 -5 52 -5q48 0 79 10.5t49 31.5t25.5 53t7.5 74v19l-456 641q-115 160 -238 371h-6q12 -246 12 -381v-606h-245v1338h257l440 -622q144 -205 234 -364h6q-12 261 -12 380v606h245z" />
    <glyph glyph-name="Eth" unicode="&#xd0;" horiz-adv-x="1483" 
d="M60 787h171v551h355q47 0 95.5 -3t94.5 -9t89 -14.5t79 -20.5q107 -34 189 -92t137.5 -137t84 -176.5t28.5 -211.5q0 -108 -24 -202.5t-73 -172.5t-123.5 -137.5t-176.5 -97.5q-85 -32 -192 -48t-244 -16h-319v582h-171v205zM577 205q215 0 336 59q107 53 162 154t55 258
q0 82 -18 148t-52 117.5t-82.5 88.5t-109.5 61q-57 22 -127 32t-157 10h-108v-346h347v-205h-347v-377h101z" />
    <glyph glyph-name="Thorn" unicode="&#xde;" horiz-adv-x="1230" 
d="M405 482q21 -3 53.5 -4.5t67.5 -1.5q96 0 164.5 16t109 44.5t59 69t18.5 88.5q0 60 -27.5 103t-93.5 66q-35 12 -86.5 17.5t-126.5 5.5h-138v-404zM546 1091q97 0 169.5 -8.5t129.5 -25.5q137 -42 211 -134.5t74 -233.5q0 -97 -40 -174.5t-117 -131.5t-188.5 -83
t-253.5 -29q-38 0 -73 1.5t-53 3.5v-276h-245v1338h245v-247h141z" />
    <glyph glyph-name="a" unicode="a" horiz-adv-x="1054" 
d="M700 103h-4q-20 -21 -48 -43t-64 -41.5t-80 -31.5t-95 -12q-69 0 -129 21.5t-103 62t-67.5 98t-24.5 128.5q0 78 28.5 140t79.5 105t122 65.5t157 22.5q63 0 116 -8t93 -19v39q0 34 -11.5 65.5t-37 56t-66.5 39t-100 14.5q-72 0 -144 -16t-156 -48v185q73 32 155 49
t172 18q106 0 185.5 -26t133 -71.5t80 -107.5t26.5 -135v-365q0 -96 2 -165t4 -123h-214zM681 413q-34 8 -78 14.5t-89 6.5q-87 0 -137.5 -34.5t-50.5 -105.5q0 -33 11.5 -57.5t31 -40.5t45.5 -24t55 -8q36 0 68 9.5t59 24t48.5 32.5t36.5 35v148z" />
    <glyph glyph-name="b" unicode="b" horiz-adv-x="1141" 
d="M1061 501q0 -131 -38 -232t-99.5 -166t-138.5 -96.5t-155 -31.5q-55 0 -99 13.5t-77 33.5t-55.5 42t-35.5 39h-4l-23 -103h-196q2 43 3.5 106.5t1.5 120.5v1221h237v-403q0 -43 -0.5 -79.5t-1.5 -56.5h2q23 16 50 31t59 27t69 19t78 7q81 0 157.5 -29.5t136 -90
t94.5 -155t35 -217.5zM816 489q0 91 -22 156.5t-57.5 100t-74 46.5t-76.5 12q-52 0 -106 -21t-98 -56v-464q14 -16 34.5 -33.5t46 -32t55.5 -24t64 -9.5q58 0 101.5 23.5t73 66.5t44.5 102.5t15 132.5z" />
    <glyph glyph-name="c" unicode="c" horiz-adv-x="903" 
d="M828 21q-45 -19 -110 -32.5t-137 -13.5q-105 0 -196 30t-159 91t-107 154.5t-39 218.5q0 140 45 240t116.5 162.5t161 92t176.5 29.5q65 0 125 -11.5t109 -31.5v-193q-44 19 -93.5 30.5t-106.5 11.5t-109 -17.5t-92 -55.5t-63.5 -100.5t-23.5 -150.5q0 -64 18 -120.5
t52.5 -96.5t88 -64.5t126.5 -24.5q65 0 118 13t100 32v-193z" />
    <glyph glyph-name="d" unicode="d" horiz-adv-x="1142" 
d="M547 164q35 0 66.5 9t59.5 24t49.5 33t36.5 35v460q-42 34 -94 56.5t-110 22.5q-37 0 -77.5 -15t-74 -51t-56 -100t-22.5 -163q0 -146 56.5 -228t165.5 -83zM80 465q0 127 35 226.5t95.5 167t138.5 101t162 33.5q39 0 74 -7t66 -19t58 -27t50 -31h2q-1 20 -1.5 56.5
t-0.5 79.5v403h237v-1160q0 -96 2 -165t4 -123h-214l-10 103h-4q-21 -25 -50.5 -49t-65 -41.5t-78 -27.5t-92.5 -10q-79 0 -151.5 28t-130 86.5t-92 153t-34.5 222.5z" />
    <glyph glyph-name="e" unicode="e" horiz-adv-x="1050" 
d="M629 166q69 0 144 14t152 40v-189q-46 -20 -141 -38t-197 -18q-103 0 -195.5 26.5t-161.5 85.5t-109.5 153t-40.5 228q0 132 38 231t102 164t146.5 97.5t170.5 32.5q92 0 169.5 -28t134 -88t88 -154.5t31.5 -223.5q-1 -50 -3 -85h-635q5 -67 30 -114.5t65.5 -77t94.5 -43
t117 -13.5zM534 808q-45 0 -80 -16.5t-60.5 -45t-40.5 -66.5t-20 -81h381q0 43 -11.5 81t-34 66.5t-56 45t-78.5 16.5z" />
    <glyph glyph-name="f" unicode="f" horiz-adv-x="672" 
d="M737 1256q-39 10 -80.5 16.5t-78.5 6.5q-40 0 -71 -9.5t-52.5 -31.5t-32.5 -57t-11 -85v-127h269v-195h-269v-774h-237v774h-164v195h164v115q0 102 28.5 175.5t79.5 121t120 70t150 22.5q50 0 99.5 -8.5t85.5 -20.5v-188z" />
    <glyph glyph-name="g" unicode="g" horiz-adv-x="1126" 
d="M759 -25q0 20 0.5 49.5t2.5 49.5h-2q-22 -18 -50.5 -35.5t-62.5 -32t-75 -23t-84 -8.5q-77 0 -150.5 27.5t-130.5 87t-92 152.5t-35 224t35.5 229.5t94.5 164.5t135.5 99.5t157.5 33.5q89 0 158 -37.5t113 -95.5h4l10 109h208v-987q0 -85 -14 -146t-41 -108
q-32 -55 -81.5 -96t-113 -68t-139.5 -40.5t-161 -13.5q-48 0 -94 3.5t-86.5 10t-74 15t-56.5 17.5v193q66 -22 138.5 -33.5t152.5 -11.5q159 0 246 61.5t87 186.5v23zM547 164q36 0 68 9t59 23t48.5 31t36.5 34v433q-38 45 -94 75t-119 31q-22 0 -46.5 -5.5t-49.5 -19.5
t-47.5 -37.5t-39.5 -59.5t-27.5 -86t-10.5 -116q0 -73 14 -130.5t42 -98t69.5 -62t96.5 -21.5z" />
    <glyph glyph-name="h" unicode="h" horiz-adv-x="1146" 
d="M377 1053q0 -75 -2.5 -123.5t-8.5 -87.5h4q21 28 51.5 56t67 48.5t83 33.5t102.5 13q48 0 93.5 -9.5t85 -29.5t72 -52t54.5 -76q19 -38 28 -86t9 -117v-623h-237v591q0 45 -4 73.5t-14 49.5q-21 44 -60 62t-89 18q-69 -1 -127.5 -33t-107.5 -94v-667h-237v1448h237v-395z
" />
    <glyph glyph-name="i" unicode="i" horiz-adv-x="509" 
d="M136 969h237v-969h-237v969zM130 1448h249v-257h-249v257z" />
    <glyph glyph-name="j" unicode="j" horiz-adv-x="538" 
d="M402 -127q0 -136 -43 -210q-45 -78 -132 -115.5t-206 -37.5q-53 0 -95.5 6t-80.5 17v194q32 -9 71.5 -16t75.5 -7q48 0 84 11t58 38q17 20 24 55t7 84v1077h237v-1096zM159 1448h249v-257h-249v257z" />
    <glyph glyph-name="k" unicode="k" horiz-adv-x="1057" 
d="M140 1448h237v-872h5l369 393h293l-425 -455l428 -514h-287l-379 451h-4v-451h-237v1448z" />
    <glyph glyph-name="l" unicode="l" horiz-adv-x="517" 
d="M140 0v1448h237v-1448h-237z" />
    <glyph glyph-name="m" unicode="m" horiz-adv-x="1745" 
d="M1378 590q0 31 -2 58t-7 47q-11 44 -43 71t-90 28q-31 0 -64 -9t-65.5 -25.5t-62 -40t-53.5 -52.5v-667h-237v590q0 31 -2 58t-7 47q-11 44 -42.5 71t-90.5 28q-31 0 -64 -9t-65.5 -25.5t-62 -40t-53.5 -52.5v-667h-237v969h196l22 -135h4q21 30 53 59t72.5 51t89 35.5
t102.5 13.5q96 0 172.5 -42.5t116.5 -132.5h4q28 39 62.5 71t76.5 55t90.5 36t103.5 13q104 -1 174.5 -43.5t108.5 -116.5q10 -19 17 -41.5t11.5 -50.5t6.5 -62t2 -78v-601h-237v590z" />
    <glyph glyph-name="n" unicode="n" horiz-adv-x="1136" 
d="M348 834h4q21 30 53 59t73 51t90.5 35.5t105.5 13.5q53 0 102.5 -12t90.5 -37.5t72.5 -66t49.5 -96.5q10 -31 13.5 -67.5t3.5 -84.5v-629h-237v592q0 39 -3 67t-11 49q-18 46 -54.5 66t-88.5 20q-69 0 -132.5 -32.5t-112.5 -94.5v-667h-237v969h196z" />
    <glyph glyph-name="o" unicode="o" horiz-adv-x="1134" 
d="M809 484q0 77 -18 136t-50 99t-77 60t-98 20q-52 0 -96.5 -20t-76.5 -60t-50 -99t-18 -136t18 -136t50.5 -98.5t77 -60t97.5 -20.5t97 20.5t76 60t50 98.5t18 136zM1054 484q0 -114 -34 -208t-97.5 -161t-153.5 -103.5t-201 -36.5q-114 0 -204.5 36.5t-153.5 103.5
t-96.5 161t-33.5 208t34 208t97.5 161t153.5 103.5t201 36.5q114 0 204.5 -36.5t153.5 -103.5t96.5 -161t33.5 -208z" />
    <glyph glyph-name="p" unicode="p" horiz-adv-x="1126" 
d="M584 803q-62 -1 -118 -30.5t-99 -79.5v-432q15 -17 36 -34t47 -31t57.5 -23t65.5 -9q55 0 98 23.5t71.5 66.5t43.5 102.5t15 132.5q0 78 -15.5 137t-44 98t-68.5 59t-89 20zM615 -25q-78 0 -141.5 28.5t-105.5 70.5h-4q1 -20 2 -56.5t1 -79.5v-403h-237v1434h208l10 -109
h4q44 58 113 95.5t160 37.5q79 0 155.5 -29.5t135.5 -90.5t94.5 -154t35.5 -221q0 -135 -38 -233.5t-100 -163t-137.5 -95.5t-155.5 -31z" />
    <glyph glyph-name="q" unicode="q" horiz-adv-x="1126" 
d="M547 164q36 0 68 9t59 23t48.5 31t36.5 34v430q-37 45 -90 78.5t-116 34.5q-36 0 -75.5 -14.5t-74.5 -51.5t-56.5 -102.5t-21.5 -159.5q0 -73 14 -130.5t42 -98t69.5 -62t96.5 -21.5zM778 860l10 109h208v-1434h-237v403q0 43 1 79.5t2 56.5h-2q-22 -18 -50.5 -35.5
t-62.5 -32t-74 -23t-85 -8.5q-77 0 -150.5 27.5t-131 87t-92 153.5t-34.5 223q0 128 35.5 228t94.5 166t135.5 99.5t157.5 33.5q87 0 156.5 -36.5t114.5 -96.5h4z" />
    <glyph glyph-name="r" unicode="r" horiz-adv-x="716" 
d="M706 781h-20q-109 0 -191.5 -32.5t-127.5 -99.5v-649h-237v969h196l22 -135h4q42 74 115.5 116.5t176.5 42.5q36 0 62 -4v-208z" />
    <glyph glyph-name="s" unicode="s" horiz-adv-x="868" 
d="M559 281q0 31 -17.5 51t-46.5 33.5t-66.5 23.5l-78.5 20q-52 14 -100 32.5t-84.5 48.5t-58 75.5t-21.5 111.5q0 81 29 140.5t78.5 98.5t115 58t138.5 19q89 0 167 -14.5t141 -37.5v-193q-33 11 -69.5 20.5t-74 16.5t-74.5 11.5t-70 4.5q-42 0 -71 -8t-47 -21.5t-26 -31
t-8 -36.5q0 -33 17.5 -54t48.5 -34t65 -21.5l66 -16.5q50 -12 100 -29t90 -47.5t65.5 -79t25.5 -123.5q0 -82 -31 -143t-86.5 -101.5t-133 -60t-170.5 -19.5q-92 0 -165.5 14.5t-121.5 36.5v191q78 -29 144 -39.5t123 -10.5q44 0 82 6.5t65.5 20.5t43.5 35.5t16 51.5z" />
    <glyph glyph-name="t" unicode="t" horiz-adv-x="777" 
d="M722 1q-40 -12 -95.5 -19t-103.5 -7q-122 0 -199.5 39.5t-109.5 113.5q-23 53 -23 144v502h-181v195h181v271h237v-271h280v-195h-280v-471q0 -56 17 -83q30 -46 119 -46q41 0 81.5 6.5t76.5 16.5v-196z" />
    <glyph glyph-name="u" unicode="u" horiz-adv-x="1116" 
d="M558 -25q-146 0 -242 49.5t-145 133.5q-26 45 -38.5 99t-12.5 120v592h237v-567q0 -49 7 -84.5t21 -61.5q24 -44 68 -65.5t105 -21.5q64 0 109.5 24t68.5 73q23 47 23 131v572h237v-592q0 -118 -41 -199q-23 -46 -59.5 -83.5t-86 -64t-112 -41t-139.5 -14.5z" />
    <glyph glyph-name="v" unicode="v" horiz-adv-x="1006" 
d="M996 969l-375 -969h-235l-376 969h250l135 -370q58 -156 106 -312h4q42 135 104 306l135 376h252z" />
    <glyph glyph-name="w" unicode="w" horiz-adv-x="1534" 
d="M765 706q-28 -145 -66 -281l-117 -425h-233l-339 969h250l125 -406q43 -141 76 -273h4q28 128 67 273l111 406h250l109 -406q35 -129 67 -273h4q34 135 76 273l125 406h250l-339 -969h-233l-117 425q-40 143 -66 281h-4z" />
    <glyph glyph-name="x" unicode="x" horiz-adv-x="1068" 
d="M532 337l-250 -337h-272l383 494l-360 475h279l226 -320l230 320h280l-370 -474l380 -495h-277z" />
    <glyph glyph-name="y" unicode="y" horiz-adv-x="1052" 
d="M10 969h254l145 -351q82 -200 116 -296h4q25 75 106 278l150 369h257l-624 -1434h-234l222 519z" />
    <glyph glyph-name="z" unicode="z" horiz-adv-x="958" 
d="M554 774h-473v195h777v-147l-480 -627h515v-195h-828v134z" />
    <glyph glyph-name="agrave" unicode="&#xe0;" horiz-adv-x="1054" 
d="M700 103h-4q-20 -21 -48 -43t-64 -41.5t-80 -31.5t-95 -12q-69 0 -129 21.5t-103 62t-67.5 98t-24.5 128.5q0 78 28.5 140t79.5 105t122 65.5t157 22.5q63 0 116 -8t93 -19v39q0 34 -11.5 65.5t-37 56t-66.5 39t-100 14.5q-72 0 -144 -16t-156 -48v185q73 32 155 49
t172 18q106 0 185.5 -26t133 -71.5t80 -107.5t26.5 -135v-365q0 -96 2 -165t4 -123h-214zM681 413q-34 8 -78 14.5t-89 6.5q-87 0 -137.5 -34.5t-50.5 -105.5q0 -33 11.5 -57.5t31 -40.5t45.5 -24t55 -8q36 0 68 9.5t59 24t48.5 32.5t36.5 35v148zM500 1473l119 -349h-184
l-165 349h230zM42 969z" />
    <glyph glyph-name="aacute" unicode="&#xe1;" horiz-adv-x="1054" 
d="M700 103h-4q-20 -21 -48 -43t-64 -41.5t-80 -31.5t-95 -12q-69 0 -129 21.5t-103 62t-67.5 98t-24.5 128.5q0 78 28.5 140t79.5 105t122 65.5t157 22.5q63 0 116 -8t93 -19v39q0 34 -11.5 65.5t-37 56t-66.5 39t-100 14.5q-72 0 -144 -16t-156 -48v185q73 32 155 49
t172 18q106 0 185.5 -26t133 -71.5t80 -107.5t26.5 -135v-365q0 -96 2 -165t4 -123h-214zM681 413q-34 8 -78 14.5t-89 6.5q-87 0 -137.5 -34.5t-50.5 -105.5q0 -33 11.5 -57.5t31 -40.5t45.5 -24t55 -8q36 0 68 9.5t59 24t48.5 32.5t36.5 35v148zM754 1473l-165 -349h-184
l119 349h230zM166 968z" />
    <glyph glyph-name="acircumflex" unicode="&#xe2;" horiz-adv-x="1054" 
d="M700 103h-4q-20 -21 -48 -43t-64 -41.5t-80 -31.5t-95 -12q-69 0 -129 21.5t-103 62t-67.5 98t-24.5 128.5q0 78 28.5 140t79.5 105t122 65.5t157 22.5q63 0 116 -8t93 -19v39q0 34 -11.5 65.5t-37 56t-66.5 39t-100 14.5q-72 0 -144 -16t-156 -48v185q73 32 155 49
t172 18q106 0 185.5 -26t133 -71.5t80 -107.5t26.5 -135v-365q0 -96 2 -165t4 -123h-214zM681 413q-34 8 -78 14.5t-89 6.5q-87 0 -137.5 -34.5t-50.5 -105.5q0 -33 11.5 -57.5t31 -40.5t45.5 -24t55 -8q36 0 68 9.5t59 24t48.5 32.5t36.5 35v148zM422 1473h206l210 -349
h-185l-126 212h-4l-126 -212h-185zM125 969z" />
    <glyph glyph-name="atilde" unicode="&#xe3;" horiz-adv-x="1054" 
d="M700 103h-4q-20 -21 -48 -43t-64 -41.5t-80 -31.5t-95 -12q-69 0 -129 21.5t-103 62t-67.5 98t-24.5 128.5q0 78 28.5 140t79.5 105t122 65.5t157 22.5q63 0 116 -8t93 -19v39q0 34 -11.5 65.5t-37 56t-66.5 39t-100 14.5q-72 0 -144 -16t-156 -48v185q73 32 155 49
t172 18q106 0 185.5 -26t133 -71.5t80 -107.5t26.5 -135v-365q0 -96 2 -165t4 -123h-214zM681 413q-34 8 -78 14.5t-89 6.5q-87 0 -137.5 -34.5t-50.5 -105.5q0 -33 11.5 -57.5t31 -40.5t45.5 -24t55 -8q36 0 68 9.5t59 24t48.5 32.5t36.5 35v148zM367 1406q41 0 78 -13.5
t70 -30.5l65 -33t53 -15q28 0 39.5 19t11.5 65h157q1 -13 1 -37q0 -29 -8 -69.5t-30 -71.5t-57.5 -49t-83.5 -18q-39 0 -76.5 13.5t-72.5 31.5q-37 19 -67 33t-50 14q-28 0 -39.5 -19t-11.5 -65h-157q-1 20 -1 26q0 43 7.5 80.5t30 70t58 50.5t83.5 18zM156 969z" />
    <glyph glyph-name="adieresis" unicode="&#xe4;" horiz-adv-x="1054" 
d="M700 103h-4q-20 -21 -48 -43t-64 -41.5t-80 -31.5t-95 -12q-69 0 -129 21.5t-103 62t-67.5 98t-24.5 128.5q0 78 28.5 140t79.5 105t122 65.5t157 22.5q63 0 116 -8t93 -19v39q0 34 -11.5 65.5t-37 56t-66.5 39t-100 14.5q-72 0 -144 -16t-156 -48v185q73 32 155 49
t172 18q106 0 185.5 -26t133 -71.5t80 -107.5t26.5 -135v-365q0 -96 2 -165t4 -123h-214zM681 413q-34 8 -78 14.5t-89 6.5q-87 0 -137.5 -34.5t-50.5 -105.5q0 -33 11.5 -57.5t31 -40.5t45.5 -24t55 -8q36 0 68 9.5t59 24t48.5 32.5t36.5 35v148zM205 1412h218v-221h-218
v221zM615 1412h218v-221h-218v221zM119 969z" />
    <glyph glyph-name="amacron" unicode="&#x101;" horiz-adv-x="1054" 
d="M700 103h-4q-20 -21 -48 -43t-64 -41.5t-80 -31.5t-95 -12q-69 0 -129 21.5t-103 62t-67.5 98t-24.5 128.5q0 78 28.5 140t79.5 105t122 65.5t157 22.5q63 0 116 -8t93 -19v39q0 34 -11.5 65.5t-37 56t-66.5 39t-100 14.5q-72 0 -144 -16t-156 -48v185q73 32 155 49
t172 18q106 0 185.5 -26t133 -71.5t80 -107.5t26.5 -135v-365q0 -96 2 -165t4 -123h-214zM681 413q-34 8 -78 14.5t-89 6.5q-87 0 -137.5 -34.5t-50.5 -105.5q0 -33 11.5 -57.5t31 -40.5t45.5 -24t55 -8q36 0 68 9.5t59 24t48.5 32.5t36.5 35v148zM236 1338h560v-167h-560
v167zM116 969z" />
    <glyph glyph-name="abreve" unicode="&#x103;" horiz-adv-x="1054" 
d="M700 103h-4q-20 -21 -48 -43t-64 -41.5t-80 -31.5t-95 -12q-69 0 -129 21.5t-103 62t-67.5 98t-24.5 128.5q0 78 28.5 140t79.5 105t122 65.5t157 22.5q63 0 116 -8t93 -19v39q0 34 -11.5 65.5t-37 56t-66.5 39t-100 14.5q-72 0 -144 -16t-156 -48v185q73 32 155 49
t172 18q106 0 185.5 -26t133 -71.5t80 -107.5t26.5 -135v-365q0 -96 2 -165t4 -123h-214zM681 413q-34 8 -78 14.5t-89 6.5q-87 0 -137.5 -34.5t-50.5 -105.5q0 -33 11.5 -57.5t31 -40.5t45.5 -24t55 -8q36 0 68 9.5t59 24t48.5 32.5t36.5 35v148zM522 1256q59 0 94.5 41.5
t43.5 129.5h203q-3 -73 -25.5 -135t-65 -107t-105 -70t-145.5 -25q-82 0 -145 25t-105.5 70t-65 107t-25.5 135h203q8 -88 43.5 -129.5t94.5 -41.5zM122 969z" />
    <glyph glyph-name="aring" unicode="&#xe5;" horiz-adv-x="1054" 
d="M700 103h-4q-20 -21 -48 -43t-64 -41.5t-80 -31.5t-95 -12q-69 0 -129 21.5t-103 62t-67.5 98t-24.5 128.5q0 78 28.5 140t79.5 105t122 65.5t157 22.5q63 0 116 -8t93 -19v39q0 34 -11.5 65.5t-37 56t-66.5 39t-100 14.5q-72 0 -144 -16t-156 -48v185q73 32 155 49
t172 18q106 0 185.5 -26t133 -71.5t80 -107.5t26.5 -135v-365q0 -96 2 -165t4 -123h-214zM681 413q-34 8 -78 14.5t-89 6.5q-87 0 -137.5 -34.5t-50.5 -105.5q0 -33 11.5 -57.5t31 -40.5t45.5 -24t55 -8q36 0 68 9.5t59 24t48.5 32.5t36.5 35v148zM509 1090q-54 0 -100 14
t-79 40.5t-52 64.5t-19 86t19 86t52 64.5t79 40.5t100 14t100 -14t79 -40.5t52 -64.5t19 -86t-19 -86t-52 -64.5t-79 -40.5t-100 -14zM509 1387q-43 0 -72 -23.5t-29 -68.5t29 -68.5t72 -23.5t72 23.5t29 68.5t-29 68.5t-72 23.5zM109 969z" />
    <glyph glyph-name="aringacute" unicode="&#x1fb;" horiz-adv-x="1054" 
d="M802 1775l-201 -256h-168l148 256h221zM515 1072q-54 0 -100 13t-79 38.5t-52 62t-19 82.5q0 47 19 83t52 61.5t79 38.5t100 13t100 -13t79 -38.5t52 -61.5t19 -83q0 -46 -19 -82.5t-52 -62t-79 -38.5t-100 -13zM515 1353q-43 0 -72 -21.5t-29 -63.5t29 -63.5t72 -21.5
t72 21.5t29 63.5t-29 63.5t-72 21.5zM700 103h-4q-20 -21 -48 -43t-64 -41.5t-80 -31.5t-95 -12q-69 0 -129 21.5t-103 62t-67.5 98t-24.5 128.5q0 78 28.5 140t79.5 105t122 65.5t157 22.5q63 0 116 -8t93 -19v39q0 34 -11.5 65.5t-37 56t-66.5 39t-100 14.5
q-72 0 -144 -16t-156 -48v185q73 32 155 49t172 18q106 0 185.5 -26t133 -71.5t80 -107.5t26.5 -135v-365q0 -96 2 -165t4 -123h-214zM681 413q-34 8 -78 14.5t-89 6.5q-87 0 -137.5 -34.5t-50.5 -105.5q0 -33 11.5 -57.5t31 -40.5t45.5 -24t55 -8q36 0 68 9.5t59 24
t48.5 32.5t36.5 35v148z" />
    <glyph glyph-name="aogonek" unicode="&#x105;" horiz-adv-x="1054" 
d="M681 413q-34 8 -78 14.5t-89 6.5q-88 0 -138 -34.5t-50 -105.5q0 -33 11.5 -57.5t31 -40.5t45.5 -24t55 -8q36 0 68 9.5t59 24t48.5 32.5t36.5 35v148zM700 103h-4q-20 -20 -48 -42.5t-63.5 -41.5t-79 -31.5t-95.5 -12.5q-70 0 -130 21.5t-103 62t-67.5 98t-24.5 128.5
q0 78 28.5 140t79.5 105t122 65.5t157 22.5q66 0 118.5 -8.5t90.5 -18.5v39q0 35 -11.5 66t-37 55.5t-66.5 39t-100 14.5q-72 0 -144 -16t-156 -48v185q30 14 68 26.5t80.5 21.5t88 14t90.5 5q106 0 186 -26t133 -71.5t79.5 -107.5t26.5 -135v-365q0 -96 2 -165t4 -123
q-46 -33 -85.5 -65t-68.5 -64t-45.5 -63.5t-16.5 -62.5q1 -38 23.5 -54t58.5 -16q62 0 125 23v-162q-29 -10 -72 -18t-96 -8q-51 0 -94.5 11.5t-75.5 35t-50.5 59t-18.5 83.5q0 84 50 154.5t152 146.5z" />
    <glyph glyph-name="ae" unicode="&#xe6;" horiz-adv-x="1635" 
d="M493 993q65 0 116.5 -12t91 -33.5t68 -51t47.5 -65.5h4q57 78 138 120t180 42q86 0 160 -28t129 -88t86.5 -153.5t31.5 -224.5q0 -26 -1.5 -47t-1.5 -38h-635q5 -67 30 -114.5t65.5 -77t94.5 -43t117 -13.5q69 0 143.5 14t152.5 40v-189q-31 -12 -70 -22.5t-83 -18
t-91 -11.5t-94 -4q-111 0 -205 32.5t-160 101.5h-4q-34 -27 -76 -51t-90 -42.5t-100 -29.5t-106 -11q-78 0 -142 21.5t-109.5 62t-70 98t-24.5 128.5q0 78 28.5 140t79.5 105t122.5 65.5t156.5 22.5q66 0 117.5 -8.5t89.5 -18.5h2v35q0 36 -11.5 68t-37 57t-66.5 39.5
t-100 14.5q-69 0 -142 -16t-158 -48v185q72 32 157.5 49.5t169.5 17.5zM469 164q39 0 76 9.5t68.5 23.5t56.5 30.5t41 29.5q-26 72 -32 156q-34 8 -78.5 14.5t-86.5 6.5q-86 0 -137 -33.5t-51 -106.5q0 -33 11.5 -57.5t31 -40.5t45.5 -24t55 -8zM1123 808q-45 0 -80 -16.5
t-60.5 -45t-40.5 -66.5t-20 -81h381q0 43 -11.5 81t-34 66.5t-56 45t-78.5 16.5z" />
    <glyph glyph-name="aeacute" unicode="&#x1fd;" horiz-adv-x="1635" 
d="M493 993q65 0 116.5 -12t91 -33.5t68 -51t47.5 -65.5h4q57 78 138 120t180 42q86 0 160 -28t129 -88t86.5 -153.5t31.5 -224.5q0 -26 -1.5 -47t-1.5 -38h-635q5 -67 30 -114.5t65.5 -77t94.5 -43t117 -13.5q69 0 143.5 14t152.5 40v-189q-31 -12 -70 -22.5t-83 -18
t-91 -11.5t-94 -4q-111 0 -205 32.5t-160 101.5h-4q-34 -27 -76 -51t-90 -42.5t-100 -29.5t-106 -11q-78 0 -142 21.5t-109.5 62t-70 98t-24.5 128.5q0 78 28.5 140t79.5 105t122.5 65.5t156.5 22.5q66 0 117.5 -8.5t89.5 -18.5h2v35q0 36 -11.5 68t-37 57t-66.5 39.5
t-100 14.5q-69 0 -142 -16t-158 -48v185q72 32 157.5 49.5t169.5 17.5zM469 164q39 0 76 9.5t68.5 23.5t56.5 30.5t41 29.5q-26 72 -32 156q-34 8 -78.5 14.5t-86.5 6.5q-86 0 -137 -33.5t-51 -106.5q0 -33 11.5 -57.5t31 -40.5t45.5 -24t55 -8zM1123 808q-45 0 -80 -16.5
t-60.5 -45t-40.5 -66.5t-20 -81h381q0 43 -11.5 81t-34 66.5t-56 45t-78.5 16.5zM1109 1473l-165 -349h-184l119 349h230zM521 968z" />
    <glyph glyph-name="cacute" unicode="&#x107;" horiz-adv-x="903" 
d="M828 21q-45 -19 -110 -32.5t-137 -13.5q-105 0 -196 30t-159 91t-107 154.5t-39 218.5q0 140 45 240t116.5 162.5t161 92t176.5 29.5q65 0 125 -11.5t109 -31.5v-193q-44 19 -93.5 30.5t-106.5 11.5t-109 -17.5t-92 -55.5t-63.5 -100.5t-23.5 -150.5q0 -64 18 -120.5
t52.5 -96.5t88 -64.5t126.5 -24.5q65 0 118 13t100 32v-193zM791 1473l-165 -349h-184l119 349h230zM203 968z" />
    <glyph glyph-name="ccircumflex" unicode="&#x109;" horiz-adv-x="903" 
d="M828 21q-45 -19 -110 -32.5t-137 -13.5q-105 0 -196 30t-159 91t-107 154.5t-39 218.5q0 140 45 240t116.5 162.5t161 92t176.5 29.5q65 0 125 -11.5t109 -31.5v-193q-44 19 -93.5 30.5t-106.5 11.5t-109 -17.5t-92 -55.5t-63.5 -100.5t-23.5 -150.5q0 -64 18 -120.5
t52.5 -96.5t88 -64.5t126.5 -24.5q65 0 118 13t100 32v-193zM428 1473h206l210 -349h-185l-126 212h-4l-126 -212h-185zM131 969z" />
    <glyph glyph-name="ccaron" unicode="&#x10d;" horiz-adv-x="903" 
d="M828 21q-45 -19 -110 -32.5t-137 -13.5q-105 0 -196 30t-159 91t-107 154.5t-39 218.5q0 140 45 240t116.5 162.5t161 92t176.5 29.5q65 0 125 -11.5t109 -31.5v-193q-44 19 -93.5 30.5t-106.5 11.5t-109 -17.5t-92 -55.5t-63.5 -100.5t-23.5 -150.5q0 -64 18 -120.5
t52.5 -96.5t88 -64.5t126.5 -24.5q65 0 118 13t100 32v-193zM638 1124h-206l-210 349h185l126 -212h4l126 212h185zM135 969z" />
    <glyph glyph-name="cdotaccent" unicode="&#x10b;" horiz-adv-x="903" 
d="M828 21q-45 -19 -110 -32.5t-137 -13.5q-105 0 -196 30t-159 91t-107 154.5t-39 218.5q0 140 45 240t116.5 162.5t161 92t176.5 29.5q65 0 125 -11.5t109 -31.5v-193q-44 19 -93.5 30.5t-106.5 11.5t-109 -17.5t-92 -55.5t-63.5 -100.5t-23.5 -150.5q0 -64 18 -120.5
t52.5 -96.5t88 -64.5t126.5 -24.5q65 0 118 13t100 32v-193zM406 1448h249v-257h-249v257zM132 969z" />
    <glyph glyph-name="ccedilla" unicode="&#xe7;" horiz-adv-x="903" 
d="M419 -5q-74 20 -136.5 58.5t-107.5 97.5t-70 138.5t-25 179.5q0 142 45.5 241.5t117.5 162.5t160.5 91.5t175.5 28.5q65 0 125 -11.5t109 -31.5v-193q-44 19 -93.5 30.5t-106.5 11.5t-109 -17t-91.5 -55.5t-63.5 -100t-24 -151.5q0 -64 17.5 -120t53 -97t89 -65
t125.5 -24q64 0 119 13.5t99 31.5v-193q-43 -18 -107.5 -32t-139.5 -14h-19l-24 -93q40 -6 74 -19.5t59 -35t39 -50t14 -63.5q0 -42 -19.5 -78.5t-58.5 -65t-98.5 -44.5t-133.5 -16q-38 0 -78.5 5.5t-61.5 13.5v146q27 -8 62.5 -12.5t65.5 -4.5q37 0 64.5 6t42.5 15.5
t21 20.5t6 22q0 31 -43.5 46t-136.5 17z" />
    <glyph glyph-name="dcaron" unicode="&#x10f;" horiz-adv-x="1142" 
d="M547 164q35 0 66.5 9t59.5 24t49.5 33t36.5 35v460q-42 34 -94 56.5t-110 22.5q-37 0 -77.5 -15t-74 -51t-56 -100t-22.5 -163q0 -146 56.5 -228t165.5 -83zM80 465q0 127 35 226.5t95.5 167t138.5 101t162 33.5q39 0 74 -7t66 -19t58 -27t50 -31h2q-1 20 -1.5 56.5
t-0.5 79.5v403h237v-1160q0 -96 2 -165t4 -123h-214l-10 103h-4q-21 -25 -50.5 -49t-65 -41.5t-78 -27.5t-92.5 -10q-79 0 -151.5 28t-130 86.5t-92 153t-34.5 222.5zM1170 1217q0 32 -22 46.5t-57 14.5v169q18 1 34 1q106 0 167.5 -46.5t61.5 -133.5q0 -51 -20 -103
t-55 -99h-179q29 40 49.5 80t20.5 71z" />
    <glyph glyph-name="dcroat" unicode="&#x111;" horiz-adv-x="1142" 
d="M759 1291v157h237v-157h140v-185h-140v-818q0 -96 2 -165t4 -123h-214l-10 103h-4q-22 -26 -50.5 -49t-63.5 -40.5t-77.5 -28t-94.5 -10.5q-77 0 -150.5 27.5t-130.5 86.5t-92 153t-35 223q0 131 35.5 229.5t95.5 164.5t138 100t162 34q39 0 74 -7t66 -19t58 -27t50 -31
h2q-1 20 -1.5 56.5t-0.5 79.5v61h-253v185h253zM547 164q36 0 68 9.5t59 24t48 32t37 35.5v460q-42 34 -94 56.5t-108 22.5q-39 0 -79.5 -15.5t-74.5 -51.5t-56 -100.5t-22 -161.5q0 -146 56.5 -228.5t165.5 -82.5z" />
    <glyph glyph-name="egrave" unicode="&#xe8;" horiz-adv-x="1050" 
d="M526 1473l119 -349h-184l-165 349h230zM68 969zM629 166q69 0 144 14t152 40v-189q-46 -20 -141 -38t-197 -18q-103 0 -195.5 26.5t-161.5 85.5t-109.5 153t-40.5 228q0 132 38 231t102 164t146.5 97.5t170.5 32.5q92 0 169.5 -28t134 -88t88 -154.5t31.5 -223.5
q-1 -50 -3 -85h-635q5 -67 30 -114.5t65.5 -77t94.5 -43t117 -13.5zM534 808q-45 0 -80 -16.5t-60.5 -45t-40.5 -66.5t-20 -81h381q0 43 -11.5 81t-34 66.5t-56 45t-78.5 16.5z" />
    <glyph glyph-name="eacute" unicode="&#xe9;" horiz-adv-x="1050" 
d="M787 1473l-165 -349h-184l119 349h230zM199 968zM629 166q69 0 144 14t152 40v-189q-46 -20 -141 -38t-197 -18q-103 0 -195.5 26.5t-161.5 85.5t-109.5 153t-40.5 228q0 132 38 231t102 164t146.5 97.5t170.5 32.5q92 0 169.5 -28t134 -88t88 -154.5t31.5 -223.5
q-1 -50 -3 -85h-635q5 -67 30 -114.5t65.5 -77t94.5 -43t117 -13.5zM534 808q-45 0 -80 -16.5t-60.5 -45t-40.5 -66.5t-20 -81h381q0 43 -11.5 81t-34 66.5t-56 45t-78.5 16.5z" />
    <glyph glyph-name="ecircumflex" unicode="&#xea;" horiz-adv-x="1050" 
d="M428 1473h206l210 -349h-185l-126 212h-4l-126 -212h-185zM131 969zM629 166q69 0 144 14t152 40v-189q-46 -20 -141 -38t-197 -18q-103 0 -195.5 26.5t-161.5 85.5t-109.5 153t-40.5 228q0 132 38 231t102 164t146.5 97.5t170.5 32.5q92 0 169.5 -28t134 -88t88 -154.5
t31.5 -223.5q-1 -50 -3 -85h-635q5 -67 30 -114.5t65.5 -77t94.5 -43t117 -13.5zM534 808q-45 0 -80 -16.5t-60.5 -45t-40.5 -66.5t-20 -81h381q0 43 -11.5 81t-34 66.5t-56 45t-78.5 16.5z" />
    <glyph glyph-name="ecaron" unicode="&#x11b;" horiz-adv-x="1050" 
d="M644 1124h-206l-210 349h185l126 -212h4l126 212h185zM141 969zM629 166q69 0 144 14t152 40v-189q-46 -20 -141 -38t-197 -18q-103 0 -195.5 26.5t-161.5 85.5t-109.5 153t-40.5 228q0 132 38 231t102 164t146.5 97.5t170.5 32.5q92 0 169.5 -28t134 -88t88 -154.5
t31.5 -223.5q-1 -50 -3 -85h-635q5 -67 30 -114.5t65.5 -77t94.5 -43t117 -13.5zM534 808q-45 0 -80 -16.5t-60.5 -45t-40.5 -66.5t-20 -81h381q0 43 -11.5 81t-34 66.5t-56 45t-78.5 16.5z" />
    <glyph glyph-name="edieresis" unicode="&#xeb;" horiz-adv-x="1050" 
d="M221 1412h218v-221h-218v221zM631 1412h218v-221h-218v221zM135 969zM629 166q69 0 144 14t152 40v-189q-46 -20 -141 -38t-197 -18q-103 0 -195.5 26.5t-161.5 85.5t-109.5 153t-40.5 228q0 132 38 231t102 164t146.5 97.5t170.5 32.5q92 0 169.5 -28t134 -88t88 -154.5
t31.5 -223.5q-1 -50 -3 -85h-635q5 -67 30 -114.5t65.5 -77t94.5 -43t117 -13.5zM534 808q-45 0 -80 -16.5t-60.5 -45t-40.5 -66.5t-20 -81h381q0 43 -11.5 81t-34 66.5t-56 45t-78.5 16.5z" />
    <glyph glyph-name="emacron" unicode="&#x113;" horiz-adv-x="1050" 
d="M255 1338h560v-167h-560v167zM135 969zM629 166q69 0 144 14t152 40v-189q-46 -20 -141 -38t-197 -18q-103 0 -195.5 26.5t-161.5 85.5t-109.5 153t-40.5 228q0 132 38 231t102 164t146.5 97.5t170.5 32.5q92 0 169.5 -28t134 -88t88 -154.5t31.5 -223.5q-1 -50 -3 -85
h-635q5 -67 30 -114.5t65.5 -77t94.5 -43t117 -13.5zM534 808q-45 0 -80 -16.5t-60.5 -45t-40.5 -66.5t-20 -81h381q0 43 -11.5 81t-34 66.5t-56 45t-78.5 16.5z" />
    <glyph glyph-name="ebreve" unicode="&#x115;" horiz-adv-x="1050" 
d="M532 1256q59 0 94.5 41.5t43.5 129.5h203q-3 -73 -25.5 -135t-65 -107t-105 -70t-145.5 -25q-82 0 -145 25t-105.5 70t-65 107t-25.5 135h203q8 -88 43.5 -129.5t94.5 -41.5zM132 969zM629 166q69 0 144 14t152 40v-189q-46 -20 -141 -38t-197 -18q-103 0 -195.5 26.5
t-161.5 85.5t-109.5 153t-40.5 228q0 132 38 231t102 164t146.5 97.5t170.5 32.5q92 0 169.5 -28t134 -88t88 -154.5t31.5 -223.5q-1 -50 -3 -85h-635q5 -67 30 -114.5t65.5 -77t94.5 -43t117 -13.5zM534 808q-45 0 -80 -16.5t-60.5 -45t-40.5 -66.5t-20 -81h381
q0 43 -11.5 81t-34 66.5t-56 45t-78.5 16.5z" />
    <glyph glyph-name="edotaccent" unicode="&#x117;" horiz-adv-x="1050" 
d="M409 1448h249v-257h-249v257zM135 969zM629 166q69 0 144 14t152 40v-189q-46 -20 -141 -38t-197 -18q-103 0 -195.5 26.5t-161.5 85.5t-109.5 153t-40.5 228q0 132 38 231t102 164t146.5 97.5t170.5 32.5q92 0 169.5 -28t134 -88t88 -154.5t31.5 -223.5q-1 -50 -3 -85
h-635q5 -67 30 -114.5t65.5 -77t94.5 -43t117 -13.5zM534 808q-45 0 -80 -16.5t-60.5 -45t-40.5 -66.5t-20 -81h381q0 43 -11.5 81t-34 66.5t-56 45t-78.5 16.5z" />
    <glyph glyph-name="eogonek" unicode="&#x119;" horiz-adv-x="1050" 
d="M642 -20q-7 -2 -26 -3.5t-42 -1.5q-97 0 -186 26.5t-157.5 85.5t-109.5 153t-41 228q0 132 38 231t102 164t146.5 97.5t170.5 32.5q92 0 170 -28t134 -88t87.5 -153.5t31.5 -224.5q0 -35 -3 -85h-635q5 -67 30 -114.5t65.5 -77t94.5 -43t117 -13.5q69 0 144 14t152 40
v-180q-55 -36 -101.5 -75t-80.5 -77.5t-53 -75t-19 -67.5q0 -37 23 -53.5t62 -16.5q57 0 122 23v-162q-29 -10 -73.5 -18t-94.5 -8q-51 0 -94.5 11.5t-75.5 35t-50.5 59t-18.5 83.5q0 77 42.5 142.5t128.5 134.5v4zM534 808q-45 0 -80 -16.5t-60.5 -45t-40.5 -66.5t-20 -81
h381q0 43 -11.5 81t-34 66.5t-56 45t-78.5 16.5z" />
    <glyph glyph-name="gcircumflex" unicode="&#x11d;" horiz-adv-x="1126" 
d="M460 1473h206l210 -349h-185l-126 212h-4l-126 -212h-185zM163 969zM759 -25q0 20 0.5 49.5t2.5 49.5h-2q-22 -18 -50.5 -35.5t-62.5 -32t-75 -23t-84 -8.5q-77 0 -150.5 27.5t-130.5 87t-92 152.5t-35 224t35.5 229.5t94.5 164.5t135.5 99.5t157.5 33.5q89 0 158 -37.5
t113 -95.5h4l10 109h208v-987q0 -85 -14 -146t-41 -108q-32 -55 -81.5 -96t-113 -68t-139.5 -40.5t-161 -13.5q-48 0 -94 3.5t-86.5 10t-74 15t-56.5 17.5v193q66 -22 138.5 -33.5t152.5 -11.5q159 0 246 61.5t87 186.5v23zM547 164q36 0 68 9t59 23t48.5 31t36.5 34v433
q-38 45 -94 75t-119 31q-22 0 -46.5 -5.5t-49.5 -19.5t-47.5 -37.5t-39.5 -59.5t-27.5 -86t-10.5 -116q0 -73 14 -130.5t42 -98t69.5 -62t96.5 -21.5z" />
    <glyph glyph-name="gbreve" unicode="&#x11f;" horiz-adv-x="1126" 
d="M575 1256q59 0 94.5 41.5t43.5 129.5h203q-3 -73 -25.5 -135t-65 -107t-105 -70t-145.5 -25q-82 0 -145 25t-105.5 70t-65 107t-25.5 135h203q8 -88 43.5 -129.5t94.5 -41.5zM175 969zM759 -25q0 20 0.5 49.5t2.5 49.5h-2q-22 -18 -50.5 -35.5t-62.5 -32t-75 -23
t-84 -8.5q-77 0 -150.5 27.5t-130.5 87t-92 152.5t-35 224t35.5 229.5t94.5 164.5t135.5 99.5t157.5 33.5q89 0 158 -37.5t113 -95.5h4l10 109h208v-987q0 -85 -14 -146t-41 -108q-32 -55 -81.5 -96t-113 -68t-139.5 -40.5t-161 -13.5q-48 0 -94 3.5t-86.5 10t-74 15
t-56.5 17.5v193q66 -22 138.5 -33.5t152.5 -11.5q159 0 246 61.5t87 186.5v23zM547 164q36 0 68 9t59 23t48.5 31t36.5 34v433q-38 45 -94 75t-119 31q-22 0 -46.5 -5.5t-49.5 -19.5t-47.5 -37.5t-39.5 -59.5t-27.5 -86t-10.5 -116q0 -73 14 -130.5t42 -98t69.5 -62
t96.5 -21.5z" />
    <glyph glyph-name="gdotaccent" unicode="&#x121;" horiz-adv-x="1126" 
d="M441 1448h249v-257h-249v257zM167 969zM759 -25q0 20 0.5 49.5t2.5 49.5h-2q-22 -18 -50.5 -35.5t-62.5 -32t-75 -23t-84 -8.5q-77 0 -150.5 27.5t-130.5 87t-92 152.5t-35 224t35.5 229.5t94.5 164.5t135.5 99.5t157.5 33.5q89 0 158 -37.5t113 -95.5h4l10 109h208v-987
q0 -85 -14 -146t-41 -108q-32 -55 -81.5 -96t-113 -68t-139.5 -40.5t-161 -13.5q-48 0 -94 3.5t-86.5 10t-74 15t-56.5 17.5v193q66 -22 138.5 -33.5t152.5 -11.5q159 0 246 61.5t87 186.5v23zM547 164q36 0 68 9t59 23t48.5 31t36.5 34v433q-38 45 -94 75t-119 31
q-22 0 -46.5 -5.5t-49.5 -19.5t-47.5 -37.5t-39.5 -59.5t-27.5 -86t-10.5 -116q0 -73 14 -130.5t42 -98t69.5 -62t96.5 -21.5z" />
    <glyph glyph-name="gcommaaccent" unicode="&#x123;" horiz-adv-x="1126" 
d="M594 1322q0 -32 22 -46.5t57 -14.5v-169q-15 -1 -29 -1q-107 0 -170.5 45.5t-63.5 134.5q0 51 20 103t55 99h179q-29 -42 -49.5 -80.5t-20.5 -70.5zM1135 969zM759 -25q0 20 0.5 49.5t2.5 49.5h-2q-22 -18 -50.5 -35.5t-62.5 -32t-75 -23t-84 -8.5q-77 0 -150.5 27.5
t-130.5 87t-92 152.5t-35 224t35.5 229.5t94.5 164.5t135.5 99.5t157.5 33.5q89 0 158 -37.5t113 -95.5h4l10 109h208v-987q0 -85 -14 -146t-41 -108q-32 -55 -81.5 -96t-113 -68t-139.5 -40.5t-161 -13.5q-48 0 -94 3.5t-86.5 10t-74 15t-56.5 17.5v193q66 -22 138.5 -33.5
t152.5 -11.5q159 0 246 61.5t87 186.5v23zM547 164q36 0 68 9t59 23t48.5 31t36.5 34v433q-38 45 -94 75t-119 31q-22 0 -46.5 -5.5t-49.5 -19.5t-47.5 -37.5t-39.5 -59.5t-27.5 -86t-10.5 -116q0 -73 14 -130.5t42 -98t69.5 -62t96.5 -21.5z" />
    <glyph glyph-name="hcircumflex" unicode="&#x125;" horiz-adv-x="1146" 
d="M377 1053q0 -75 -2.5 -123.5t-8.5 -87.5h4q21 28 51.5 56t67 48.5t83 33.5t102.5 13q48 0 93.5 -9.5t85 -29.5t72 -52t54.5 -76q19 -38 28 -86t9 -117v-623h-237v591q0 45 -4 73.5t-14 49.5q-21 44 -60 62t-89 18q-69 -1 -127.5 -33t-107.5 -94v-667h-237v1448h237v-395z
M163 1767h206l216 -247h-207l-110 126h-4l-111 -126h-206z" />
    <glyph glyph-name="hbar" unicode="&#x127;" horiz-adv-x="1146" 
d="M377 1291h299v-185h-299v-53q0 -75 -2.5 -123.5t-8.5 -87.5h4q21 28 50.5 55t67 48.5t84 34.5t102.5 13q48 0 93.5 -10t85 -29.5t72 -51.5t54.5 -76q19 -38 28 -87t9 -116v-623h-237v591q0 45 -4 73.5t-14 49.5q-22 44 -60.5 62t-88.5 18q-69 0 -127.5 -32.5
t-107.5 -94.5v-667h-237v1106h-140v185h140v157h237v-157z" />
    <glyph glyph-name="igrave" unicode="&#xec;" horiz-adv-x="509" 
d="M136 969h237v-969h-237v969zM262 1473l119 -349h-184l-165 349h230zM-196 969z" />
    <glyph glyph-name="iacute" unicode="&#xed;" horiz-adv-x="509" 
d="M136 969h237v-969h-237v969zM504 1473l-165 -349h-184l119 349h230zM-84 968z" />
    <glyph glyph-name="icircumflex" unicode="&#xee;" horiz-adv-x="509" 
d="M136 969h237v-969h-237v969zM154 1473h206l210 -349h-185l-126 212h-4l-126 -212h-185zM-143 969z" />
    <glyph glyph-name="itilde" unicode="&#x129;" horiz-adv-x="509" 
d="M136 969h237v-969h-237v969zM118 1406q41 0 78 -13.5t70 -30.5l65 -33t53 -15q28 0 39.5 19t11.5 65h157q1 -13 1 -37q0 -29 -8 -69.5t-30 -71.5t-57.5 -49t-83.5 -18q-39 0 -76.5 13.5t-72.5 31.5q-37 19 -67 33t-50 14q-28 0 -39.5 -19t-11.5 -65h-157q-1 20 -1 26
q0 43 7.5 80.5t30 70t58 50.5t83.5 18zM-93 969z" />
    <glyph glyph-name="idieresis" unicode="&#xef;" horiz-adv-x="509" 
d="M136 969h237v-969h-237v969zM-50 1412h218v-221h-218v221zM360 1412h218v-221h-218v221zM-136 969z" />
    <glyph glyph-name="imacron" unicode="&#x12b;" horiz-adv-x="509" 
d="M136 969h237v-969h-237v969zM-17 1338h560v-167h-560v167zM-137 969z" />
    <glyph glyph-name="ibreve" unicode="&#x12d;" horiz-adv-x="509" 
d="M136 969h237v-969h-237v969zM262 1256q59 0 94.5 41.5t43.5 129.5h203q-3 -73 -25.5 -135t-65 -107t-105 -70t-145.5 -25q-82 0 -145 25t-105.5 70t-65 107t-25.5 135h203q8 -88 43.5 -129.5t94.5 -41.5zM-138 969z" />
    <glyph glyph-name="iogonek" unicode="&#x12f;" horiz-adv-x="509" 
d="M130 1448h249v-257h-249v257zM136 969h237v-969q-93 -59 -139.5 -125t-46.5 -121q0 -23 7.5 -38t20 -24t29 -13t34.5 -4q57 0 120 23v-162q-29 -10 -72 -18t-93 -8q-56 0 -101.5 13.5t-77.5 39.5t-49.5 64t-17.5 87q0 45 11 83.5t31 73t47 66.5t60 63v969z" />
    <glyph glyph-name="dotlessi" unicode="&#x131;" horiz-adv-x="509" 
d="M136 969h237v-969h-237v969z" />
    <glyph glyph-name="ij" unicode="&#x133;" horiz-adv-x="1022" 
d="M136 969h237v-969h-237v969zM130 1448h249v-257h-249v257zM886 -127q0 -136 -43 -210q-45 -78 -132 -115.5t-206 -37.5q-53 0 -95.5 6t-80.5 17v194q32 -9 71.5 -16t75.5 -7q48 0 84 11t58 38q17 20 24 55t7 84v1077h237v-1096zM643 1448h249v-257h-249v257z" />
    <glyph glyph-name="jcircumflex" unicode="&#x135;" horiz-adv-x="538" 
d="M402 -127q0 -136 -43 -210q-45 -78 -132 -115.5t-206 -37.5q-51 0 -94.5 6t-81.5 17v194q30 -8 69 -15.5t78 -7.5q48 0 84 11t58 38q17 20 24 55t7 84v1077h237v-1096zM181 1473h206l210 -349h-185l-126 212h-4l-126 -212h-185z" />
    <glyph glyph-name="kcommaaccent" unicode="&#x137;" horiz-adv-x="1067" 
d="M140 1448h237v-872h5l369 393h293l-425 -455l428 -514h-287l-379 451h-4v-451h-237v1448zM516 -339q0 32 -22 46.5t-57 14.5v169q18 1 35 1q104 0 166 -47t62 -139q0 -48 -20 -99.5t-55 -96.5h-179q30 42 50 80.5t20 70.5z" />
    <glyph glyph-name="kgreenlandic" unicode="&#x138;" horiz-adv-x="1057" 
d="M130 969h237v-399h5l369 399h293l-425 -461l428 -508h-287l-379 445h-4v-445h-237v969z" />
    <glyph glyph-name="lacute" unicode="&#x13a;" horiz-adv-x="517" 
d="M140 0v1448h237v-1448h-237zM532 1766l-190 -247h-188l138 247h240z" />
    <glyph glyph-name="lcaron" unicode="&#x13e;" horiz-adv-x="517" 
d="M140 0v1448h237v-1448h-237zM560 1217q0 32 -22 46.5t-57 14.5v169q18 1 34 1q106 0 167.5 -46.5t61.5 -133.5q0 -51 -20 -103t-55 -99h-179q29 40 49.5 80t20.5 71z" />
    <glyph glyph-name="lcommaaccent" unicode="&#x13c;" horiz-adv-x="517" 
d="M140 0v1448h237v-1448h-237zM228 -339q0 32 -22 46.5t-57 14.5v169q18 1 35 1q104 0 166 -47t62 -139q0 -48 -20 -99.5t-55 -96.5h-179q30 42 50 80.5t20 70.5z" />
    <glyph glyph-name="lslash" unicode="&#x142;" horiz-adv-x="517" 
d="M140 0v555l-138 -82v216l138 82v677h237v-540l158 94v-216l-158 -94v-692h-237z" />
    <glyph glyph-name="ldot" unicode="&#x140;" horiz-adv-x="766" 
d="M140 0v1448h237v-1448h-237zM533 823h249v-257h-249v257z" />
    <glyph glyph-name="nacute" unicode="&#x144;" horiz-adv-x="1136" 
d="M348 834h4q21 30 53 59t73 51t90.5 35.5t105.5 13.5q53 0 102.5 -12t90.5 -37.5t72.5 -66t49.5 -96.5q10 -31 13.5 -67.5t3.5 -84.5v-629h-237v592q0 39 -3 67t-11 49q-18 46 -54.5 66t-88.5 20q-69 0 -132.5 -32.5t-112.5 -94.5v-667h-237v969h196zM870 1473l-165 -349
h-184l119 349h230zM282 968z" />
    <glyph glyph-name="ncaron" unicode="&#x148;" horiz-adv-x="1136" 
d="M348 834h4q21 30 53 59t73 51t90.5 35.5t105.5 13.5q53 0 102.5 -12t90.5 -37.5t72.5 -66t49.5 -96.5q10 -31 13.5 -67.5t3.5 -84.5v-629h-237v592q0 39 -3 67t-11 49q-18 46 -54.5 66t-88.5 20q-69 0 -132.5 -32.5t-112.5 -94.5v-667h-237v969h196zM697 1124h-206
l-210 349h185l126 -212h4l126 212h185zM194 969z" />
    <glyph glyph-name="ntilde" unicode="&#xf1;" horiz-adv-x="1136" 
d="M348 834h4q21 30 53 59t73 51t90.5 35.5t105.5 13.5q53 0 102.5 -12t90.5 -37.5t72.5 -66t49.5 -96.5q10 -31 13.5 -67.5t3.5 -84.5v-629h-237v592q0 39 -3 67t-11 49q-18 46 -54.5 66t-88.5 20q-69 0 -132.5 -32.5t-112.5 -94.5v-667h-237v969h196zM423 1406
q41 0 78 -13.5t70 -30.5l65 -33t53 -15q28 0 39.5 19t11.5 65h157q1 -13 1 -37q0 -29 -8 -69.5t-30 -71.5t-57.5 -49t-83.5 -18q-39 0 -76.5 13.5t-72.5 31.5q-37 19 -67 33t-50 14q-28 0 -39.5 -19t-11.5 -65h-157q-1 20 -1 26q0 43 7.5 80.5t30 70t58 50.5t83.5 18z
M212 969z" />
    <glyph glyph-name="ncommaaccent" unicode="&#x146;" horiz-adv-x="1136" 
d="M348 834h4q21 30 53 59t73 51t90.5 35.5t105.5 13.5q53 0 102.5 -12t90.5 -37.5t72.5 -66t49.5 -96.5q10 -31 13.5 -67.5t3.5 -84.5v-629h-237v592q0 39 -3 67t-11 49q-18 46 -54.5 66t-88.5 20q-69 0 -132.5 -32.5t-112.5 -94.5v-667h-237v969h196zM537 -339
q0 32 -22 46.5t-57 14.5v169q18 1 35 1q104 0 166 -47t62 -139q0 -48 -20 -99.5t-55 -96.5h-179q30 42 50 80.5t20 70.5z" />
    <glyph glyph-name="napostrophe" unicode="&#x149;" horiz-adv-x="1136" 
d="M348 834h4q21 30 53 59t73 51t90.5 35.5t105.5 13.5q53 0 102.5 -12t90.5 -37.5t72.5 -66t49.5 -96.5q10 -31 13.5 -67.5t3.5 -84.5v-629h-237v592q0 39 -3 67t-11 49q-18 46 -54.5 66t-88.5 20q-69 0 -132.5 -32.5t-112.5 -94.5v-667h-237v969h196zM61 1217
q0 32 -22 46.5t-57 14.5v169q18 1 34 1q106 0 167.5 -46.5t61.5 -133.5q0 -51 -20 -103t-55 -99h-179q29 40 49.5 80t20.5 71zM25 969z" />
    <glyph glyph-name="ograve" unicode="&#xf2;" horiz-adv-x="1134" 
d="M809 484q0 77 -18 136t-50 99t-77 60t-98 20q-52 0 -96.5 -20t-76.5 -60t-50 -99t-18 -136t18 -136t50.5 -98.5t77 -60t97.5 -20.5t97 20.5t76 60t50 98.5t18 136zM1054 484q0 -114 -34 -208t-97.5 -161t-153.5 -103.5t-201 -36.5q-114 0 -204.5 36.5t-153.5 103.5
t-96.5 161t-33.5 208t34 208t97.5 161t153.5 103.5t201 36.5q114 0 204.5 -36.5t153.5 -103.5t96.5 -161t33.5 -208zM541 1473l119 -349h-184l-165 349h230zM83 969z" />
    <glyph glyph-name="oacute" unicode="&#xf3;" horiz-adv-x="1134" 
d="M809 484q0 77 -18 136t-50 99t-77 60t-98 20q-52 0 -96.5 -20t-76.5 -60t-50 -99t-18 -136t18 -136t50.5 -98.5t77 -60t97.5 -20.5t97 20.5t76 60t50 98.5t18 136zM1054 484q0 -114 -34 -208t-97.5 -161t-153.5 -103.5t-201 -36.5q-114 0 -204.5 36.5t-153.5 103.5
t-96.5 161t-33.5 208t34 208t97.5 161t153.5 103.5t201 36.5q114 0 204.5 -36.5t153.5 -103.5t96.5 -161t33.5 -208zM825 1473l-165 -349h-184l119 349h230zM237 968z" />
    <glyph glyph-name="ocircumflex" unicode="&#xf4;" horiz-adv-x="1134" 
d="M809 484q0 77 -18 136t-50 99t-77 60t-98 20q-52 0 -96.5 -20t-76.5 -60t-50 -99t-18 -136t18 -136t50.5 -98.5t77 -60t97.5 -20.5t97 20.5t76 60t50 98.5t18 136zM1054 484q0 -114 -34 -208t-97.5 -161t-153.5 -103.5t-201 -36.5q-114 0 -204.5 36.5t-153.5 103.5
t-96.5 161t-33.5 208t34 208t97.5 161t153.5 103.5t201 36.5q114 0 204.5 -36.5t153.5 -103.5t96.5 -161t33.5 -208zM455 1473h206l210 -349h-185l-126 212h-4l-126 -212h-185zM158 969z" />
    <glyph glyph-name="otilde" unicode="&#xf5;" horiz-adv-x="1134" 
d="M809 484q0 77 -18 136t-50 99t-77 60t-98 20q-52 0 -96.5 -20t-76.5 -60t-50 -99t-18 -136t18 -136t50.5 -98.5t77 -60t97.5 -20.5t97 20.5t76 60t50 98.5t18 136zM1054 484q0 -114 -34 -208t-97.5 -161t-153.5 -103.5t-201 -36.5q-114 0 -204.5 36.5t-153.5 103.5
t-96.5 161t-33.5 208t34 208t97.5 161t153.5 103.5t201 36.5q114 0 204.5 -36.5t153.5 -103.5t96.5 -161t33.5 -208zM414 1406q41 0 78 -13.5t70 -30.5l65 -33t53 -15q28 0 39.5 19t11.5 65h157q1 -13 1 -37q0 -29 -8 -69.5t-30 -71.5t-57.5 -49t-83.5 -18q-39 0 -76.5 13.5
t-72.5 31.5q-37 19 -67 33t-50 14q-28 0 -39.5 -19t-11.5 -65h-157q-1 20 -1 26q0 43 7.5 80.5t30 70t58 50.5t83.5 18zM203 969z" />
    <glyph glyph-name="odieresis" unicode="&#xf6;" horiz-adv-x="1134" 
d="M809 484q0 77 -18 136t-50 99t-77 60t-98 20q-52 0 -96.5 -20t-76.5 -60t-50 -99t-18 -136t18 -136t50.5 -98.5t77 -60t97.5 -20.5t97 20.5t76 60t50 98.5t18 136zM1054 484q0 -114 -34 -208t-97.5 -161t-153.5 -103.5t-201 -36.5q-114 0 -204.5 36.5t-153.5 103.5
t-96.5 161t-33.5 208t34 208t97.5 161t153.5 103.5t201 36.5q114 0 204.5 -36.5t153.5 -103.5t96.5 -161t33.5 -208zM250 1412h218v-221h-218v221zM660 1412h218v-221h-218v221zM164 969z" />
    <glyph glyph-name="omacron" unicode="&#x14d;" horiz-adv-x="1134" 
d="M809 484q0 77 -18 136t-50 99t-77 60t-98 20q-52 0 -96.5 -20t-76.5 -60t-50 -99t-18 -136t18 -136t50.5 -98.5t77 -60t97.5 -20.5t97 20.5t76 60t50 98.5t18 136zM1054 484q0 -114 -34 -208t-97.5 -161t-153.5 -103.5t-201 -36.5q-114 0 -204.5 36.5t-153.5 103.5
t-96.5 161t-33.5 208t34 208t97.5 161t153.5 103.5t201 36.5q114 0 204.5 -36.5t153.5 -103.5t96.5 -161t33.5 -208zM286 1338h560v-167h-560v167zM166 969z" />
    <glyph glyph-name="obreve" unicode="&#x14f;" horiz-adv-x="1134" 
d="M809 484q0 77 -18 136t-50 99t-77 60t-98 20q-52 0 -96.5 -20t-76.5 -60t-50 -99t-18 -136t18 -136t50.5 -98.5t77 -60t97.5 -20.5t97 20.5t76 60t50 98.5t18 136zM1054 484q0 -114 -34 -208t-97.5 -161t-153.5 -103.5t-201 -36.5q-114 0 -204.5 36.5t-153.5 103.5
t-96.5 161t-33.5 208t34 208t97.5 161t153.5 103.5t201 36.5q114 0 204.5 -36.5t153.5 -103.5t96.5 -161t33.5 -208zM566 1256q59 0 94.5 41.5t43.5 129.5h203q-3 -73 -25.5 -135t-65 -107t-105 -70t-145.5 -25q-82 0 -145 25t-105.5 70t-65 107t-25.5 135h203
q8 -88 43.5 -129.5t94.5 -41.5zM166 969z" />
    <glyph glyph-name="ohungarumlaut" unicode="&#x151;" horiz-adv-x="1134" 
d="M809 484q0 77 -18 136t-50 99t-77 60t-98 20q-52 0 -96.5 -20t-76.5 -60t-50 -99t-18 -136t18 -136t50.5 -98.5t77 -60t97.5 -20.5t97 20.5t76 60t50 98.5t18 136zM1054 484q0 -114 -34 -208t-97.5 -161t-153.5 -103.5t-201 -36.5q-114 0 -204.5 36.5t-153.5 103.5
t-96.5 161t-33.5 208t34 208t97.5 161t153.5 103.5t201 36.5q114 0 204.5 -36.5t153.5 -103.5t96.5 -161t33.5 -208zM660 1473l-165 -349h-184l119 349h230zM988 1473l-187 -349h-190l141 349h236zM244 969z" />
    <glyph glyph-name="oslash" unicode="&#xf8;" horiz-adv-x="1134" 
d="M971 793q41 -63 62 -140.5t21 -168.5q0 -114 -34 -208t-97.5 -161t-153.5 -103.5t-201 -36.5q-88 0 -160.5 21t-130.5 61l-78 -82l-119 111l83 88q-41 63 -62 140.5t-21 169.5q0 114 34 208t97.5 161t153.5 103.5t201 36.5q87 0 159.5 -21.5t131.5 -61.5l78 83l119 -111z
M809 484q0 67 -14 123l-369 -391q59 -47 142 -47q53 0 97 20.5t76 60t50 98.5t18 136zM325 484q0 -35 3 -65.5t11 -57.5l368 391q-59 47 -141 47q-52 0 -96.5 -20t-76.5 -60t-50 -99t-18 -136z" />
    <glyph glyph-name="oslashacute" unicode="&#x1ff;" horiz-adv-x="1134" 
d="M971 793q41 -63 62 -140.5t21 -168.5q0 -114 -34 -208t-97.5 -161t-153.5 -103.5t-201 -36.5q-88 0 -160.5 21t-130.5 61l-78 -82l-119 111l83 88q-41 63 -62 140.5t-21 169.5q0 114 34 208t97.5 161t153.5 103.5t201 36.5q87 0 159.5 -21.5t131.5 -61.5l78 83l119 -111z
M809 484q0 67 -14 123l-369 -391q59 -47 142 -47q53 0 97 20.5t76 60t50 98.5t18 136zM325 484q0 -35 3 -65.5t11 -57.5l368 391q-59 47 -141 47q-52 0 -96.5 -20t-76.5 -60t-50 -99t-18 -136zM819 1473l-165 -349h-184l119 349h230zM231 968z" />
    <glyph glyph-name="oe" unicode="&#x153;" horiz-adv-x="1779" 
d="M1358 166q69 0 144 14t152 40v-189q-31 -12 -70 -22.5t-82.5 -18t-89 -11.5t-90.5 -4q-63 0 -122 11.5t-110.5 34.5t-94 58t-72.5 82h-4q-29 -41 -67 -75t-85 -59t-103 -38.5t-120 -13.5q-104 0 -189.5 36.5t-146.5 103.5t-94.5 161t-33.5 208t34.5 208t97 161
t149.5 103.5t193 36.5q125 0 217.5 -52t152.5 -139h4q29 47 66.5 82.5t81.5 59.5t92.5 36.5t97.5 12.5q92 0 170 -28t134 -88t87.5 -153.5t31.5 -224.5q0 -36 -3 -85h-635q5 -67 30 -114.5t65.5 -77t94.5 -43t117 -13.5zM809 484q0 77 -18 136t-50 99t-77 60t-98 20
q-52 0 -96.5 -20t-76.5 -60t-50 -99t-18 -136t18 -136t50.5 -98.5t77 -60t97.5 -20.5t97 20.5t76 60t50 98.5t18 136zM1263 808q-45 0 -80 -16.5t-60.5 -45t-40.5 -66.5t-20 -81h381q0 43 -11.5 81t-34 66.5t-56 45t-78.5 16.5z" />
    <glyph glyph-name="racute" unicode="&#x155;" horiz-adv-x="716" 
d="M665 1473l-165 -349h-184l119 349h230zM77 968zM706 781h-20q-109 0 -191.5 -32.5t-127.5 -99.5v-649h-237v969h196l22 -135h4q42 74 115.5 116.5t176.5 42.5q36 0 62 -4v-208z" />
    <glyph glyph-name="rcaron" unicode="&#x159;" horiz-adv-x="716" 
d="M534 1124h-206l-210 349h185l126 -212h4l126 212h185zM31 969zM706 781h-20q-109 0 -191.5 -32.5t-127.5 -99.5v-649h-237v969h196l22 -135h4q42 74 115.5 116.5t176.5 42.5q36 0 62 -4v-208z" />
    <glyph glyph-name="rcommaaccent" unicode="&#x157;" horiz-adv-x="716" 
d="M218 -339q0 32 -22 46.5t-57 14.5v169q18 1 35 1q104 0 166 -47t62 -139q0 -48 -20 -99.5t-55 -96.5h-179q30 42 50 80.5t20 70.5zM706 781h-20q-109 0 -191.5 -32.5t-127.5 -99.5v-649h-237v969h196l22 -135h4q42 74 115.5 116.5t176.5 42.5q36 0 62 -4v-208z" />
    <glyph glyph-name="sacute" unicode="&#x15b;" horiz-adv-x="868" 
d="M700 1473l-165 -349h-184l119 349h230zM112 968zM559 281q0 31 -17.5 51t-46.5 33.5t-66.5 23.5l-78.5 20q-52 14 -100 32.5t-84.5 48.5t-58 75.5t-21.5 111.5q0 81 29 140.5t78.5 98.5t115 58t138.5 19q89 0 167 -14.5t141 -37.5v-193q-33 11 -69.5 20.5t-74 16.5
t-74.5 11.5t-70 4.5q-42 0 -71 -8t-47 -21.5t-26 -31t-8 -36.5q0 -33 17.5 -54t48.5 -34t65 -21.5l66 -16.5q50 -12 100 -29t90 -47.5t65.5 -79t25.5 -123.5q0 -82 -31 -143t-86.5 -101.5t-133 -60t-170.5 -19.5q-92 0 -165.5 14.5t-121.5 36.5v191q78 -29 144 -39.5
t123 -10.5q44 0 82 6.5t65.5 20.5t43.5 35.5t16 51.5z" />
    <glyph glyph-name="scircumflex" unicode="&#x15d;" horiz-adv-x="868" 
d="M346 1473h206l210 -349h-185l-126 212h-4l-126 -212h-185zM49 969zM559 281q0 31 -17.5 51t-46.5 33.5t-66.5 23.5l-78.5 20q-52 14 -100 32.5t-84.5 48.5t-58 75.5t-21.5 111.5q0 81 29 140.5t78.5 98.5t115 58t138.5 19q89 0 167 -14.5t141 -37.5v-193
q-33 11 -69.5 20.5t-74 16.5t-74.5 11.5t-70 4.5q-42 0 -71 -8t-47 -21.5t-26 -31t-8 -36.5q0 -33 17.5 -54t48.5 -34t65 -21.5l66 -16.5q50 -12 100 -29t90 -47.5t65.5 -79t25.5 -123.5q0 -82 -31 -143t-86.5 -101.5t-133 -60t-170.5 -19.5q-92 0 -165.5 14.5t-121.5 36.5
v191q78 -29 144 -39.5t123 -10.5q44 0 82 6.5t65.5 20.5t43.5 35.5t16 51.5z" />
    <glyph glyph-name="scaron" unicode="&#x161;" horiz-adv-x="868" 
d="M545 1124h-206l-210 349h185l126 -212h4l126 212h185zM42 969zM559 281q0 31 -17.5 51t-46.5 33.5t-66.5 23.5l-78.5 20q-52 14 -100 32.5t-84.5 48.5t-58 75.5t-21.5 111.5q0 81 29 140.5t78.5 98.5t115 58t138.5 19q89 0 167 -14.5t141 -37.5v-193q-33 11 -69.5 20.5
t-74 16.5t-74.5 11.5t-70 4.5q-42 0 -71 -8t-47 -21.5t-26 -31t-8 -36.5q0 -33 17.5 -54t48.5 -34t65 -21.5l66 -16.5q50 -12 100 -29t90 -47.5t65.5 -79t25.5 -123.5q0 -82 -31 -143t-86.5 -101.5t-133 -60t-170.5 -19.5q-92 0 -165.5 14.5t-121.5 36.5v191
q78 -29 144 -39.5t123 -10.5q44 0 82 6.5t65.5 20.5t43.5 35.5t16 51.5z" />
    <glyph glyph-name="scedilla" unicode="&#x15f;" horiz-adv-x="868" 
d="M314 -23q-72 4 -130.5 17t-98.5 32v191q80 -29 145 -39.5t122 -10.5q44 0 82 6.5t65.5 20.5t43.5 35.5t16 51.5t-17 50.5t-46.5 34t-67 23.5l-78.5 20q-54 14 -101 32.5t-83.5 48.5t-58 75.5t-21.5 111.5q0 81 29 140.5t78.5 98.5t115 58t138.5 19q89 0 167 -14.5
t141 -37.5v-193q-33 11 -69.5 20.5t-74 16.5t-74.5 11.5t-70 4.5q-42 0 -71 -8t-47 -21.5t-26 -31t-8 -36.5q0 -33 19 -54t48.5 -34.5t64 -21.5t65.5 -16q50 -12 99 -29t90.5 -47.5t66.5 -80t25 -122.5q0 -72 -23.5 -127t-66.5 -95t-103 -63.5t-134 -32.5l-27 -99
q40 -6 74 -19.5t59 -35t39 -50t14 -63.5q0 -42 -20 -79t-58.5 -65t-97 -44t-134.5 -16q-40 0 -79 5.5t-61 13.5v146q25 -8 63 -12.5t67 -4.5q36 0 63 6t41.5 15.5t21 20.5t6.5 22q0 31 -43.5 46t-136.5 17z" />
    <glyph glyph-name="scommaaccent" unicode="&#x219;" horiz-adv-x="868" 
d="M393 -339q0 32 -22 46.5t-57 14.5v169q18 1 35 1q104 0 166 -47t62 -139q0 -48 -20 -99.5t-55 -96.5h-179q30 42 50 80.5t20 70.5zM559 281q0 31 -17.5 51t-46.5 33.5t-66.5 23.5l-78.5 20q-52 14 -100 32.5t-84.5 48.5t-58 75.5t-21.5 111.5q0 81 29 140.5t78.5 98.5
t115 58t138.5 19q89 0 167 -14.5t141 -37.5v-193q-33 11 -69.5 20.5t-74 16.5t-74.5 11.5t-70 4.5q-42 0 -71 -8t-47 -21.5t-26 -31t-8 -36.5q0 -33 17.5 -54t48.5 -34t65 -21.5l66 -16.5q50 -12 100 -29t90 -47.5t65.5 -79t25.5 -123.5q0 -82 -31 -143t-86.5 -101.5
t-133 -60t-170.5 -19.5q-92 0 -165.5 14.5t-121.5 36.5v191q78 -29 144 -39.5t123 -10.5q44 0 82 6.5t65.5 20.5t43.5 35.5t16 51.5z" />
    <glyph glyph-name="germandbls" unicode="&#xdf;" horiz-adv-x="1273" 
d="M1032 1173q0 -54 -17 -97.5t-42.5 -75.5t-55 -59t-55 -53t-42.5 -54t-17 -63q0 -29 15.5 -51t41.5 -40t58 -34l70 -35q39 -20 76.5 -44.5t67 -58t48 -79.5t18.5 -109q0 -79 -29.5 -142.5t-83 -108.5t-128.5 -69.5t-167 -24.5q-81 0 -146.5 13.5t-102.5 32.5v191
q63 -24 117.5 -34.5t109.5 -10.5q89 0 142.5 37t53.5 109q0 34 -15 58.5t-40.5 43.5t-57.5 34l-67 31q-39 18 -77.5 39t-69 52t-49.5 74.5t-19 104.5q0 57 17 101t42.5 79t55 63.5t55 56t42.5 56.5t17 62q0 51 -41.5 81.5t-124.5 31.5q-65 0 -113 -22t-79.5 -62.5t-47 -97
t-15.5 -125.5v-974h-237v983q0 110 33 200t95.5 154.5t154 100t206.5 35.5q99 0 176 -25t127 -67t75 -96t25 -112z" />
    <glyph glyph-name="longs" unicode="&#x17f;" horiz-adv-x="608" 
d="M140 1094q0 98 27 169.5t75.5 118t115.5 69t148 22.5q49 0 92 -7t75 -18v-188q-34 8 -67 13.5t-68 5.5q-42 0 -72 -10t-50 -32t-29.5 -57t-9.5 -85v-1095h-237v1094z" />
    <glyph glyph-name="tcaron" unicode="&#x165;" horiz-adv-x="777" 
d="M722 1q-40 -12 -95.5 -19t-103.5 -7q-122 0 -199.5 39.5t-109.5 113.5q-23 53 -23 144v502h-181v195h181v271h237v-271h280v-195h-280v-471q0 -56 17 -83q30 -46 119 -46q41 0 81.5 6.5t76.5 16.5v-196zM641 1217q0 32 -22 46.5t-57 14.5v169q18 1 34 1
q106 0 167.5 -46.5t61.5 -133.5q0 -51 -20 -103t-55 -99h-179q29 40 49.5 80t20.5 71zM605 969z" />
    <glyph glyph-name="tcommaaccent" unicode="&#x163;" horiz-adv-x="777" 
d="M722 1q-40 -12 -95.5 -19t-103.5 -7q-122 0 -199.5 39.5t-109.5 113.5q-23 53 -23 144v502h-181v195h181v271h237v-271h280v-195h-280v-471q0 -56 17 -83q30 -46 119 -46q41 0 81.5 6.5t76.5 16.5v-196zM410 -339q0 32 -22 46.5t-57 14.5v169q18 1 35 1q104 0 166 -47
t62 -139q0 -48 -20 -99.5t-55 -96.5h-179q30 42 50 80.5t20 70.5z" />
    <glyph glyph-name="tcommaaccent" unicode="&#x21b;" horiz-adv-x="777" 
d="M722 1q-40 -12 -95.5 -19t-103.5 -7q-122 0 -199.5 39.5t-109.5 113.5q-23 53 -23 144v502h-181v195h181v271h237v-271h280v-195h-280v-471q0 -56 17 -83q30 -46 119 -46q41 0 81.5 6.5t76.5 16.5v-196zM410 -339q0 32 -22 46.5t-57 14.5v169q18 1 35 1q104 0 166 -47
t62 -139q0 -48 -20 -99.5t-55 -96.5h-179q30 42 50 80.5t20 70.5z" />
    <glyph glyph-name="tbar" unicode="&#x167;" horiz-adv-x="777" 
d="M428 303q0 -56 17 -83q30 -46 119 -46q43 0 82.5 6.5t75.5 16.5v-196q-41 -12 -95 -19t-104 -7q-122 0 -199.5 39.5t-109.5 113.5q-23 53 -23 144v126h-181v187h181v189h-181v195h181v271h237v-271h280v-195h-280v-189h228v-187h-228v-95z" />
    <glyph glyph-name="ugrave" unicode="&#xf9;" horiz-adv-x="1116" 
d="M558 -25q-146 0 -242 49.5t-145 133.5q-26 45 -38.5 99t-12.5 120v592h237v-567q0 -49 7 -84.5t21 -61.5q24 -44 68 -65.5t105 -21.5q64 0 109.5 24t68.5 73q23 47 23 131v572h237v-592q0 -118 -41 -199q-23 -46 -59.5 -83.5t-86 -64t-112 -41t-139.5 -14.5zM535 1473
l119 -349h-184l-165 349h230zM77 969z" />
    <glyph glyph-name="uacute" unicode="&#xfa;" horiz-adv-x="1116" 
d="M558 -25q-146 0 -242 49.5t-145 133.5q-26 45 -38.5 99t-12.5 120v592h237v-567q0 -49 7 -84.5t21 -61.5q24 -44 68 -65.5t105 -21.5q64 0 109.5 24t68.5 73q23 47 23 131v572h237v-592q0 -118 -41 -199q-23 -46 -59.5 -83.5t-86 -64t-112 -41t-139.5 -14.5zM814 1473
l-165 -349h-184l119 349h230zM226 968z" />
    <glyph glyph-name="ucircumflex" unicode="&#xfb;" horiz-adv-x="1116" 
d="M558 -25q-146 0 -242 49.5t-145 133.5q-26 45 -38.5 99t-12.5 120v592h237v-567q0 -49 7 -84.5t21 -61.5q24 -44 68 -65.5t105 -21.5q64 0 109.5 24t68.5 73q23 47 23 131v572h237v-592q0 -118 -41 -199q-23 -46 -59.5 -83.5t-86 -64t-112 -41t-139.5 -14.5zM458 1473
h206l210 -349h-185l-126 212h-4l-126 -212h-185zM161 969z" />
    <glyph glyph-name="utilde" unicode="&#x169;" horiz-adv-x="1116" 
d="M558 -25q-146 0 -242 49.5t-145 133.5q-26 45 -38.5 99t-12.5 120v592h237v-567q0 -49 7 -84.5t21 -61.5q24 -44 68 -65.5t105 -21.5q64 0 109.5 24t68.5 73q23 47 23 131v572h237v-592q0 -118 -41 -199q-23 -46 -59.5 -83.5t-86 -64t-112 -41t-139.5 -14.5zM414 1406
q41 0 78 -13.5t70 -30.5l65 -33t53 -15q28 0 39.5 19t11.5 65h157q1 -13 1 -37q0 -29 -8 -69.5t-30 -71.5t-57.5 -49t-83.5 -18q-39 0 -76.5 13.5t-72.5 31.5q-37 19 -67 33t-50 14q-28 0 -39.5 -19t-11.5 -65h-157q-1 20 -1 26q0 43 7.5 80.5t30 70t58 50.5t83.5 18z
M203 969z" />
    <glyph glyph-name="udieresis" unicode="&#xfc;" horiz-adv-x="1116" 
d="M558 -25q-146 0 -242 49.5t-145 133.5q-26 45 -38.5 99t-12.5 120v592h237v-567q0 -49 7 -84.5t21 -61.5q24 -44 68 -65.5t105 -21.5q64 0 109.5 24t68.5 73q23 47 23 131v572h237v-592q0 -118 -41 -199q-23 -46 -59.5 -83.5t-86 -64t-112 -41t-139.5 -14.5zM242 1412
h218v-221h-218v221zM652 1412h218v-221h-218v221zM156 969z" />
    <glyph glyph-name="umacron" unicode="&#x16b;" horiz-adv-x="1116" 
d="M558 -25q-146 0 -242 49.5t-145 133.5q-26 45 -38.5 99t-12.5 120v592h237v-567q0 -49 7 -84.5t21 -61.5q24 -44 68 -65.5t105 -21.5q64 0 109.5 24t68.5 73q23 47 23 131v572h237v-592q0 -118 -41 -199q-23 -46 -59.5 -83.5t-86 -64t-112 -41t-139.5 -14.5zM280 1338
h560v-167h-560v167zM160 969z" />
    <glyph glyph-name="ubreve" unicode="&#x16d;" horiz-adv-x="1116" 
d="M558 -25q-146 0 -242 49.5t-145 133.5q-26 45 -38.5 99t-12.5 120v592h237v-567q0 -49 7 -84.5t21 -61.5q24 -44 68 -65.5t105 -21.5q64 0 109.5 24t68.5 73q23 47 23 131v572h237v-592q0 -118 -41 -199q-23 -46 -59.5 -83.5t-86 -64t-112 -41t-139.5 -14.5zM561 1256
q59 0 94.5 41.5t43.5 129.5h203q-3 -73 -25.5 -135t-65 -107t-105 -70t-145.5 -25q-82 0 -145 25t-105.5 70t-65 107t-25.5 135h203q8 -88 43.5 -129.5t94.5 -41.5zM161 969z" />
    <glyph glyph-name="uring" unicode="&#x16f;" horiz-adv-x="1116" 
d="M558 -25q-146 0 -242 49.5t-145 133.5q-26 45 -38.5 99t-12.5 120v592h237v-567q0 -49 7 -84.5t21 -61.5q24 -44 68 -65.5t105 -21.5q64 0 109.5 24t68.5 73q23 47 23 131v572h237v-592q0 -118 -41 -199q-23 -46 -59.5 -83.5t-86 -64t-112 -41t-139.5 -14.5zM560 1090
q-54 0 -100 14t-79 40.5t-52 64.5t-19 86t19 86t52 64.5t79 40.5t100 14t100 -14t79 -40.5t52 -64.5t19 -86t-19 -86t-52 -64.5t-79 -40.5t-100 -14zM560 1387q-43 0 -72 -23.5t-29 -68.5t29 -68.5t72 -23.5t72 23.5t29 68.5t-29 68.5t-72 23.5zM160 969z" />
    <glyph glyph-name="uhungarumlaut" unicode="&#x171;" horiz-adv-x="1116" 
d="M558 -25q-146 0 -242 49.5t-145 133.5q-26 45 -38.5 99t-12.5 120v592h237v-567q0 -49 7 -84.5t21 -61.5q24 -44 68 -65.5t105 -21.5q64 0 109.5 24t68.5 73q23 47 23 131v572h237v-592q0 -118 -41 -199q-23 -46 -59.5 -83.5t-86 -64t-112 -41t-139.5 -14.5zM652 1473
l-165 -349h-184l119 349h230zM980 1473l-187 -349h-190l141 349h236zM236 969z" />
    <glyph glyph-name="uogonek" unicode="&#x173;" horiz-adv-x="1116" 
d="M645 -9q-20 -6 -49 -10t-70 -4q-118 0 -212 48.5t-143 132.5q-26 45 -38.5 99t-12.5 120v592h237v-567q0 -49 7 -84.5t21 -61.5q24 -44 68 -65.5t105 -21.5q64 0 109.5 24t68.5 73q23 47 23 131v572h237v-592q0 -58 -10 -105.5t-28 -88.5t-43 -77t-54 -69l-70.5 -77.5
t-62 -72t-44.5 -72t-17 -73.5q0 -35 23.5 -51t63.5 -16q57 0 120 23v-162q-29 -10 -73.5 -18t-94.5 -8q-51 0 -94.5 11.5t-75.5 35t-50.5 59t-18.5 83.5q0 78 45.5 148t133.5 139z" />
    <glyph glyph-name="wgrave" unicode="&#x1e81;" horiz-adv-x="1534" 
d="M765 706q-28 -145 -66 -281l-117 -425h-233l-339 969h250l125 -406q43 -141 76 -273h4q28 128 67 273l111 406h250l109 -406q35 -129 67 -273h4q34 135 76 273l125 406h250l-339 -969h-233l-117 425q-40 143 -66 281h-4zM752 1473l119 -349h-184l-165 349h230zM294 969z
" />
    <glyph glyph-name="wacute" unicode="&#x1e83;" horiz-adv-x="1534" 
d="M765 706q-28 -145 -66 -281l-117 -425h-233l-339 969h250l125 -406q43 -141 76 -273h4q28 128 67 273l111 406h250l109 -406q35 -129 67 -273h4q34 135 76 273l125 406h250l-339 -969h-233l-117 425q-40 143 -66 281h-4zM1014 1473l-165 -349h-184l119 349h230zM426 968z
" />
    <glyph glyph-name="wcircumflex" unicode="&#x175;" horiz-adv-x="1534" 
d="M765 706q-28 -145 -66 -281l-117 -425h-233l-339 969h250l125 -406q43 -141 76 -273h4q28 128 67 273l111 406h250l109 -406q35 -129 67 -273h4q34 135 76 273l125 406h250l-339 -969h-233l-117 425q-40 143 -66 281h-4zM664 1473h206l210 -349h-185l-126 212h-4
l-126 -212h-185zM367 969z" />
    <glyph glyph-name="wdieresis" unicode="&#x1e85;" horiz-adv-x="1534" 
d="M765 706q-28 -145 -66 -281l-117 -425h-233l-339 969h250l125 -406q43 -141 76 -273h4q28 128 67 273l111 406h250l109 -406q35 -129 67 -273h4q34 135 76 273l125 406h250l-339 -969h-233l-117 425q-40 143 -66 281h-4zM453 1412h218v-221h-218v221zM863 1412h218v-221
h-218v221zM367 969z" />
    <glyph glyph-name="ygrave" unicode="&#x1ef3;" horiz-adv-x="1052" 
d="M10 969h254l145 -351q82 -200 116 -296h4q25 75 106 278l150 369h257l-624 -1434h-234l222 519zM522 1473l119 -349h-184l-165 349h230zM64 969z" />
    <glyph glyph-name="yacute" unicode="&#xfd;" horiz-adv-x="1052" 
d="M10 969h254l145 -351q82 -200 116 -296h4q25 75 106 278l150 369h257l-624 -1434h-234l222 519zM785 1473l-165 -349h-184l119 349h230zM197 968z" />
    <glyph glyph-name="ycircumflex" unicode="&#x177;" horiz-adv-x="1052" 
d="M10 969h254l145 -351q82 -200 116 -296h4q25 75 106 278l150 369h257l-624 -1434h-234l222 519zM420 1473h206l210 -349h-185l-126 212h-4l-126 -212h-185zM123 969z" />
    <glyph glyph-name="ydieresis" unicode="&#xff;" horiz-adv-x="1052" 
d="M10 969h254l145 -351q82 -200 116 -296h4q25 75 106 278l150 369h257l-624 -1434h-234l222 519zM213 1412h218v-221h-218v221zM623 1412h218v-221h-218v221zM127 969z" />
    <glyph glyph-name="zacute" unicode="&#x17a;" horiz-adv-x="958" 
d="M554 774h-473v195h777v-147l-480 -627h515v-195h-828v134zM721 1473l-165 -349h-184l119 349h230zM133 968z" />
    <glyph glyph-name="zcaron" unicode="&#x17e;" horiz-adv-x="958" 
d="M554 774h-473v195h777v-147l-480 -627h515v-195h-828v134zM582 1124h-206l-210 349h185l126 -212h4l126 212h185zM79 969z" />
    <glyph glyph-name="zdotaccent" unicode="&#x17c;" horiz-adv-x="958" 
d="M554 774h-473v195h777v-147l-480 -627h515v-195h-828v134zM356 1448h249v-257h-249v257zM82 969z" />
    <glyph glyph-name="eng" unicode="&#x14b;" horiz-adv-x="1136" 
d="M637 -413q-19 0 -41.5 1.5t-39.5 4.5v193q25 -5 52 -5q48 0 79 11.5t49 33.5t25.5 55t7.5 75v636q0 41 -3 68.5t-11 47.5q-18 47 -55 66.5t-88 19.5q-69 0 -132.5 -32.5t-112.5 -94.5v-667h-237v969h196l22 -135h4q21 30 53 59t73 51t90.5 35.5t105.5 13.5
q53 0 102.5 -12t90.5 -37.5t72.5 -66t49.5 -96.5q10 -31 13.5 -67.5t3.5 -84.5v-692q0 -168 -89 -259t-280 -91z" />
    <glyph glyph-name="eth" unicode="&#xf0;" horiz-adv-x="1116" 
d="M939 1225l-162 -44q53 -69 99 -147t80.5 -162t54.5 -174t20 -183q0 -130 -34 -231t-96.5 -169.5t-150.5 -104t-196 -35.5q-109 0 -197 34t-149.5 96.5t-94.5 151.5t-33 200q0 98 30 185.5t84 152.5t128.5 103t160.5 38q78 0 135.5 -26.5t97.5 -66.5l4 2q-35 73 -81 141
t-97 131l-275 -74l-51 162l202 55q-50 52 -101.5 99t-103.5 89h311q32 -27 65 -58t66 -66l233 64zM789 457q0 65 -19 118.5t-51 90.5t-75.5 56.5t-93.5 19.5q-48 0 -89 -18.5t-71 -54.5t-47.5 -90t-17.5 -122t17 -122.5t48 -91t74 -55.5t94 -19t93 19t73 55.5t48 90.5
t17 123z" />
    <glyph glyph-name="thorn" unicode="&#xfe;" horiz-adv-x="1126" 
d="M801 484q0 73 -15 132t-43.5 101t-71 64.5t-98.5 22.5q-34 0 -65.5 -9t-57.5 -23t-47 -31t-36 -34v-446q15 -17 36 -34t47 -31t57.5 -23t65.5 -9q55 0 98 22.5t71.5 64.5t43.5 101t15 132zM1046 492q0 -133 -38.5 -232t-99.5 -162t-137 -93t-151 -30q-83 0 -146.5 28.5
t-105.5 70.5h-4q1 -20 2 -56.5t1 -79.5v-403h-237v1913h237v-418q0 -43 -1 -79.5t-2 -56.5h4q42 42 105 70.5t147 28.5q75 0 151 -29.5t137 -91t99.5 -157t38.5 -223.5z" />
    <glyph glyph-name="A.c2sc" horiz-adv-x="1136" 
d="M780 246h-423l-94 -246h-243l423 1066h250l423 -1066h-241zM567 810q-42 -127 -100 -278l-34 -89h271l-34 87q-38 98 -99 280h-4z" />
    <glyph glyph-name="B.c2sc" horiz-adv-x="1097" 
d="M976 783q0 -70 -34 -129.5t-109 -94.5v-4q86 -24 137.5 -81t51.5 -147q0 -107 -58 -184.5t-181 -114.5q-46 -14 -104 -21t-140 -7h-389v1066h400q81 0 137 -9t99 -26q51 -19 87 -46.5t59 -60t33.5 -69t10.5 -72.5zM387 445v-248h174q47 0 86.5 5t68.5 19t45 39t16 66
q0 34 -13 56.5t-35.5 36.5t-53.5 20t-68 6h-220zM570 642q78 0 119.5 25.5t42.5 89.5q0 65 -59 91q-24 11 -59 16t-83 5h-144v-227h183z" />
    <glyph glyph-name="C.c2sc" horiz-adv-x="1022" 
d="M696 887q-77 0 -143 -25t-114.5 -72.5t-76 -115.5t-27.5 -155q0 -82 24.5 -145.5t70 -106.5t110.5 -65.5t146 -22.5q60 0 129 10t122 27v-205q-57 -16 -126 -26t-152 -10q-133 0 -239.5 39t-179.5 109.5t-111.5 169.5t-38.5 219q0 123 40.5 229t116 184t183.5 122t242 44
q33 0 67.5 -2.5t67.5 -7.5t63 -12t55 -15v-203q-64 20 -122.5 28t-106.5 8z" />
    <glyph glyph-name="D.c2sc" horiz-adv-x="1197" 
d="M150 0v1066h340q68 0 127.5 -7t113.5 -22q92 -26 162 -72.5t117.5 -110.5t72 -144t24.5 -173q0 -110 -30 -196t-85.5 -150t-134 -106t-175.5 -63q-98 -22 -249 -22h-283zM465 201q103 0 178 18.5t123.5 59t72 105t23.5 155.5q0 236 -192 303q-37 13 -85 18t-99 5h-99
v-664h78z" />
    <glyph glyph-name="E.c2sc" horiz-adv-x="1029" 
d="M387 197h547v-197h-784v1066h755v-197h-518v-227h438v-197h-438v-248z" />
    <glyph glyph-name="F.c2sc" horiz-adv-x="970" 
d="M150 0v1066h745v-199h-508v-235h428v-199h-428v-433h-237z" />
    <glyph glyph-name="G.c2sc" horiz-adv-x="1172" 
d="M686 179q62 0 119 9v199h-231v201h468v-555q-88 -31 -187 -44.5t-183 -13.5q-141 0 -250 39t-182.5 109.5t-111.5 169.5t-38 219q0 128 46 235.5t128.5 183.5t199.5 118t252 42q69 0 141 -8.5t137 -28.5v-203q-127 36 -263 36q-79 0 -151 -22.5t-126.5 -68t-86.5 -115.5
t-32 -162q0 -164 90 -252t261 -88z" />
    <glyph glyph-name="H.c2sc" horiz-adv-x="1246" 
d="M387 642h472v424h237v-1066h-237v441h-472v-441h-237v1066h237v-424z" />
    <glyph glyph-name="I.c2sc" horiz-adv-x="537" 
d="M150 0v1066h237v-1066h-237z" />
    <glyph glyph-name="J.c2sc" horiz-adv-x="730" 
d="M353 1066h237v-786q0 -75 -25 -132t-71 -95.5t-111 -58t-144 -19.5q-56 0 -104 8t-80 21v205q34 -14 72.5 -22t75.5 -8q78 0 114 37t36 115v735z" />
    <glyph glyph-name="K.c2sc" horiz-adv-x="1152" 
d="M150 0v1066h237v-483h4l411 483h285l-456 -533l491 -533h-291l-440 479h-4v-479h-237z" />
    <glyph glyph-name="L.c2sc" horiz-adv-x="952" 
d="M387 201h525v-201h-762v1066h237v-865z" />
    <glyph glyph-name="M.c2sc" horiz-adv-x="1469" 
d="M738 315q50 199 100 349l135 402h346v-1066h-237v538q0 130 9 264h-8q-34 -123 -71 -233l-193 -569h-169l-193 569q-48 147 -71 233h-8q9 -120 9 -264v-538h-237v1066h346l133 -401q50 -153 102 -350h7z" />
    <glyph glyph-name="N.c2sc" horiz-adv-x="1304" 
d="M560 473q-92 131 -178 281h-5q10 -158 10 -322v-432h-237v1066h266l328 -473q90 -128 178 -281h5q-10 159 -10 309v445h237v-1066h-260z" />
    <glyph glyph-name="O.c2sc" horiz-adv-x="1250" 
d="M625 179q63 0 116.5 22t92 66.5t60 111t21.5 155.5t-21.5 155t-60 110t-92 66t-116.5 22t-116.5 -22t-92 -66t-60 -110t-21.5 -155t21.5 -155.5t60 -111t92 -66.5t116.5 -22zM625 -25q-123 0 -222 41t-168.5 115t-107 177t-37.5 226t37.5 225.5t107 176t168.5 114.5
t222 41t222 -41t168.5 -114.5t107 -176t37.5 -225.5t-37.5 -226t-107 -177t-168.5 -115t-222 -41z" />
    <glyph glyph-name="P.c2sc" horiz-adv-x="1047" 
d="M483 379q-15 0 -42.5 1t-53.5 4v-384h-237v1066h373q60 0 106 -4.5t85 -14.5q133 -34 203 -117.5t70 -195.5q0 -79 -34 -144.5t-99 -112.5t-160 -72.5t-211 -25.5zM387 585q15 -2 42 -3.5t55 -1.5q126 0 192 37.5t66 113.5q0 38 -23 69.5t-68 48.5q-23 8 -53 12t-72 4
h-139v-280z" />
    <glyph glyph-name="Q.c2sc" horiz-adv-x="1320" 
d="M625 179q63 0 116.5 22t92 66.5t60 111t21.5 155.5t-21.5 155t-60 110t-92 66t-116.5 22t-116.5 -22t-92 -66t-60 -110t-21.5 -155t21.5 -155.5t60 -111t92 -66.5t116.5 -22zM1001 169q42 12 100 21.5t106 9.5h13v-213q-42 5 -107 9t-123 4q-46 0 -93.5 -3t-93 -6.5
t-90 -6.5t-82.5 -3q-131 0 -232 39.5t-169.5 111t-104 171.5t-35.5 222q0 126 37.5 230.5t107 179t168.5 115.5t222 41t222 -40.5t168.5 -112.5t107 -170t37.5 -214q0 -128 -43.5 -223.5t-116.5 -157.5z" />
    <glyph glyph-name="R.c2sc" horiz-adv-x="1126" 
d="M998 724q0 -61 -18 -110t-49.5 -86.5t-75 -63t-94.5 -40.5v-4l315 -420h-280l-273 381h-136v-381h-237v1066h356q77 0 131 -6t98 -17q72 -18 122 -49.5t81.5 -73t45.5 -91t14 -105.5zM507 582q129 0 187.5 37.5t58.5 110.5q0 49 -30.5 81.5t-93.5 45.5q-20 4 -45 6t-61 2
h-136v-283h120z" />
    <glyph glyph-name="S.c2sc" horiz-adv-x="1026" 
d="M661 312q0 38 -22.5 62t-62.5 39t-87.5 25t-98.5 23q-49 13 -96.5 32.5t-84 52.5t-59 84t-22.5 127q0 85 31 147.5t84.5 104t125 62t153.5 20.5q38 0 81.5 -4t87 -11.5t85.5 -19t77 -26.5v-205q-84 33 -164.5 47.5t-148.5 14.5q-90 0 -128.5 -32t-38.5 -83
q0 -37 19.5 -60.5t51 -38.5t76 -26l88.5 -21q57 -13 108.5 -32t94.5 -52t69 -88.5t26 -135.5q0 -90 -33.5 -154.5t-95 -106.5t-147 -62t-190.5 -20q-36 0 -79 4t-86 12.5t-81 20.5t-69 29v203q80 -34 153.5 -49.5t154.5 -15.5q47 0 88.5 6.5t72.5 22t49 41t18 63.5z" />
    <glyph glyph-name="T.c2sc" horiz-adv-x="959" 
d="M949 1066v-201h-351v-865h-237v865h-351v201h939z" />
    <glyph glyph-name="U.c2sc" horiz-adv-x="1234" 
d="M617 179q60 0 105 17t75 48.5t45 76.5t15 100v645h237v-650q0 -95 -28.5 -176t-87 -140t-148.5 -92t-213 -33t-213 33t-148.5 92t-87 140t-28.5 176v650h237v-645q0 -55 15 -100t45 -76.5t75 -48.5t105 -17z" />
    <glyph glyph-name="V.c2sc" horiz-adv-x="1120" 
d="M561 260q48 142 98 276l198 530h243l-415 -1066h-250l-415 1066h241l198 -530q50 -133 98 -276h4z" />
    <glyph glyph-name="W.c2sc" horiz-adv-x="1556" 
d="M480 316q44 215 83 360l100 390h229l101 -390q45 -173 82 -360h6q44 196 94 366l116 384h245l-339 -1066h-243l-104 438q-37 158 -69 313h-6q-32 -160 -69 -313l-105 -438h-242l-339 1066h245l116 -384q50 -166 94 -366h5z" />
    <glyph glyph-name="X.c2sc" horiz-adv-x="1086" 
d="M791 1066h259l-372 -524l388 -542h-256l-152 218l-113 166h-4l-113 -166l-152 -218h-256l387 542l-371 524h259l138 -199l108 -161h4q45 71 108 160z" />
    <glyph glyph-name="Y.c2sc" horiz-adv-x="1073" 
d="M1053 1066l-398 -648v-418h-237v418l-398 648h251l263 -449h4l264 449h251z" />
    <glyph glyph-name="Z.c2sc" horiz-adv-x="1085" 
d="M977 1066v-128l-554 -737h562v-201h-885v128l555 737h-541v201h863z" />
    <glyph glyph-name="Agrave.c2sc" horiz-adv-x="1136" 
d="M780 246h-423l-94 -246h-243l423 1066h250l423 -1066h-241zM567 810q-42 -127 -100 -278l-34 -89h271l-34 87q-38 98 -99 280h-4zM562 1518l119 -349h-184l-165 349h230zM104 1014z" />
    <glyph glyph-name="Aacute.c2sc" horiz-adv-x="1136" 
d="M780 246h-423l-94 -246h-243l423 1066h250l423 -1066h-241zM567 810q-42 -127 -100 -278l-34 -89h271l-34 87q-38 98 -99 280h-4zM811 1518l-165 -349h-184l119 349h230zM223 1013z" />
    <glyph glyph-name="Acircumflex.c2sc" horiz-adv-x="1136" 
d="M780 246h-423l-94 -246h-243l423 1066h250l423 -1066h-241zM567 810q-42 -127 -100 -278l-34 -89h271l-34 87q-38 98 -99 280h-4zM467 1518h206l210 -349h-185l-126 212h-4l-126 -212h-185zM170 1014z" />
    <glyph glyph-name="Atilde.c2sc" horiz-adv-x="1136" 
d="M780 246h-423l-94 -246h-243l423 1066h250l423 -1066h-241zM567 810q-42 -127 -100 -278l-34 -89h271l-34 87q-38 98 -99 280h-4zM422 1451q41 0 78 -13.5t70 -30.5l65 -33t53 -15q28 0 39.5 19t11.5 65h157q1 -13 1 -37q0 -29 -8 -69.5t-30 -71.5t-57.5 -49t-83.5 -18
q-39 0 -76.5 13.5t-72.5 31.5q-37 19 -67 33t-50 14q-28 0 -39.5 -19t-11.5 -65h-157q-1 20 -1 26q0 43 7.5 80.5t30 70t58 50.5t83.5 18zM211 1014z" />
    <glyph glyph-name="Adieresis.c2sc" horiz-adv-x="1136" 
d="M780 246h-423l-94 -246h-243l423 1066h250l423 -1066h-241zM567 810q-42 -127 -100 -278l-34 -89h271l-34 87q-38 98 -99 280h-4zM256 1457h218v-221h-218v221zM666 1457h218v-221h-218v221zM170 1014z" />
    <glyph glyph-name="Amacron.c2sc" horiz-adv-x="1136" 
d="M780 246h-423l-94 -246h-243l423 1066h250l423 -1066h-241zM567 810q-42 -127 -100 -278l-34 -89h271l-34 87q-38 98 -99 280h-4zM290 1383h560v-167h-560v167zM170 1014z" />
    <glyph glyph-name="Abreve.c2sc" horiz-adv-x="1136" 
d="M780 246h-423l-94 -246h-243l423 1066h250l423 -1066h-241zM567 810q-42 -127 -100 -278l-34 -89h271l-34 87q-38 98 -99 280h-4zM570 1301q59 0 94.5 41.5t43.5 129.5h203q-3 -73 -25.5 -135t-65 -107t-105 -70t-145.5 -25q-82 0 -145 25t-105.5 70t-65 107t-25.5 135
h203q8 -88 43.5 -129.5t94.5 -41.5zM170 1014z" />
    <glyph glyph-name="Aring.c2sc" horiz-adv-x="1136" 
d="M780 246h-423l-94 -246h-243l423 1066h250l423 -1066h-241zM567 810q-42 -127 -100 -278l-34 -89h271l-34 87q-38 98 -99 280h-4zM570 1135q-54 0 -100 14t-79 40.5t-52 64.5t-19 86t19 86t52 64.5t79 40.5t100 14t100 -14t79 -40.5t52 -64.5t19 -86t-19 -86t-52 -64.5
t-79 -40.5t-100 -14zM570 1432q-43 0 -72 -23.5t-29 -68.5t29 -68.5t72 -23.5t72 23.5t29 68.5t-29 68.5t-72 23.5zM170 1014z" />
    <glyph glyph-name="Aringacute.c2sc" horiz-adv-x="1136" 
d="M856 1833l-201 -256h-168l148 256h221zM564 1130q-54 0 -100 13t-79 38.5t-52 62t-19 82.5q0 47 19 83t52 61.5t79 38.5t100 13t100 -13t79 -38.5t52 -61.5t19 -83q0 -46 -19 -82.5t-52 -62t-79 -38.5t-100 -13zM564 1411q-43 0 -72 -21.5t-29 -63.5t29 -63.5t72 -21.5
t72 21.5t29 63.5t-29 63.5t-72 21.5zM780 246h-423l-94 -246h-243l423 1066h250l423 -1066h-241zM567 810q-42 -127 -100 -278l-34 -89h271l-34 87q-38 98 -99 280h-4z" />
    <glyph glyph-name="Aogonek.c2sc" horiz-adv-x="1136" 
d="M780 246h-423l-94 -246h-243l423 1066h250l423 -1066q-58 -24 -105.5 -55.5t-81 -65.5t-51.5 -68.5t-18 -67.5q1 -36 23.5 -52t61.5 -16q56 0 122 23v-162q-29 -10 -73 -18t-95 -8t-94.5 11.5t-75.5 35t-50.5 59t-18.5 83.5q0 85 52.5 161t158.5 151zM567 810
q-42 -127 -100 -278l-34 -89h271l-34 87q-38 98 -99 280h-4z" />
    <glyph glyph-name="AE.c2sc" horiz-adv-x="1653" 
d="M1057 197h511v-197h-714l-36 246h-422l-127 -246h-254l548 1066h939v-197h-544l34 -227h425v-197h-396zM498 443h291l-63 426h-8z" />
    <glyph glyph-name="AEacute.c2sc" horiz-adv-x="1653" 
d="M1057 197h511v-197h-714l-36 246h-422l-127 -246h-254l548 1066h939v-197h-544l34 -227h425v-197h-396zM498 443h291l-63 426h-8zM1233 1518l-165 -349h-184l119 349h230zM645 1013z" />
    <glyph glyph-name="Cacute.c2sc" horiz-adv-x="1022" 
d="M696 887q-77 0 -143 -25t-114.5 -72.5t-76 -115.5t-27.5 -155q0 -82 24.5 -145.5t70 -106.5t110.5 -65.5t146 -22.5q60 0 129 10t122 27v-205q-57 -16 -126 -26t-152 -10q-133 0 -239.5 39t-179.5 109.5t-111.5 169.5t-38.5 219q0 123 40.5 229t116 184t183.5 122t242 44
q33 0 67.5 -2.5t67.5 -7.5t63 -12t55 -15v-203q-64 20 -122.5 28t-106.5 8zM867 1518l-165 -349h-184l119 349h230zM279 1013z" />
    <glyph glyph-name="Ccircumflex.c2sc" horiz-adv-x="1022" 
d="M696 887q-77 0 -143 -25t-114.5 -72.5t-76 -115.5t-27.5 -155q0 -82 24.5 -145.5t70 -106.5t110.5 -65.5t146 -22.5q60 0 129 10t122 27v-205q-57 -16 -126 -26t-152 -10q-133 0 -239.5 39t-179.5 109.5t-111.5 169.5t-38.5 219q0 123 40.5 229t116 184t183.5 122t242 44
q33 0 67.5 -2.5t67.5 -7.5t63 -12t55 -15v-203q-64 20 -122.5 28t-106.5 8zM519 1518h206l210 -349h-185l-126 212h-4l-126 -212h-185zM222 1014z" />
    <glyph glyph-name="Ccaron.c2sc" horiz-adv-x="1022" 
d="M696 887q-77 0 -143 -25t-114.5 -72.5t-76 -115.5t-27.5 -155q0 -82 24.5 -145.5t70 -106.5t110.5 -65.5t146 -22.5q60 0 129 10t122 27v-205q-57 -16 -126 -26t-152 -10q-133 0 -239.5 39t-179.5 109.5t-111.5 169.5t-38.5 219q0 123 40.5 229t116 184t183.5 122t242 44
q33 0 67.5 -2.5t67.5 -7.5t63 -12t55 -15v-203q-64 20 -122.5 28t-106.5 8zM726 1169h-206l-210 349h185l126 -212h4l126 212h185zM223 1014z" />
    <glyph glyph-name="Cdotaccent.c2sc" horiz-adv-x="1022" 
d="M696 887q-77 0 -143 -25t-114.5 -72.5t-76 -115.5t-27.5 -155q0 -82 24.5 -145.5t70 -106.5t110.5 -65.5t146 -22.5q60 0 129 10t122 27v-205q-57 -16 -126 -26t-152 -10q-133 0 -239.5 39t-179.5 109.5t-111.5 169.5t-38.5 219q0 123 40.5 229t116 184t183.5 122t242 44
q33 0 67.5 -2.5t67.5 -7.5t63 -12t55 -15v-203q-64 20 -122.5 28t-106.5 8zM472 1493h249v-257h-249v257zM198 1014z" />
    <glyph glyph-name="Ccedilla.c2sc" horiz-adv-x="1022" 
d="M696 887q-77 0 -143 -25t-114.5 -72.5t-76 -115.5t-27.5 -155q0 -82 24.5 -145.5t70 -106.5t110.5 -65.5t146 -22.5q54 0 121.5 9t129.5 28v-205q-57 -15 -123 -25.5t-155 -10.5q-13 0 -27 1l-26 -94q40 -6 74 -19.5t59 -35t39 -50t14 -63.5q0 -42 -19.5 -79t-58.5 -65
t-97 -44t-135 -16q-42 0 -80.5 5.5t-59.5 13.5v146q26 -8 62.5 -12.5t67.5 -4.5q36 0 62 5.5t41.5 15.5t22 21t6.5 22q0 31 -43.5 46t-136.5 17l62 209q-95 22 -168.5 68.5t-124 113.5t-77 152t-26.5 184q0 123 40.5 229t116 184t183.5 122t242 44q33 0 67 -2.5t67.5 -7.5
t63.5 -12t55 -15v-203q-64 20 -122.5 28t-106.5 8z" />
    <glyph glyph-name="Dcaron.c2sc" horiz-adv-x="1197" 
d="M150 0v1066h340q68 0 127.5 -7t113.5 -22q92 -26 162 -72.5t117.5 -110.5t72 -144t24.5 -173q0 -110 -30 -196t-85.5 -150t-134 -106t-175.5 -63q-98 -22 -249 -22h-283zM465 201q103 0 178 18.5t123.5 59t72 105t23.5 155.5q0 236 -192 303q-37 13 -85 18t-99 5h-99
v-664h78zM678 1169h-206l-210 349h185l126 -212h4l126 212h185zM175 1014z" />
    <glyph glyph-name="Dcroat.c2sc" horiz-adv-x="1232" 
d="M55 642h130v424h340q150 0 265 -38t193.5 -107.5t118.5 -167t40 -216.5q0 -139 -47.5 -240t-133 -167t-204 -98t-260.5 -32h-312v445h-130v197zM500 201q103 0 178 18.5t123.5 59t72 105t23.5 155.5q0 326 -366 326h-109v-223h237v-197h-237v-244h78z" />
    <glyph glyph-name="Egrave.c2sc" horiz-adv-x="1029" 
d="M387 197h547v-197h-784v1066h755v-197h-518v-227h438v-197h-438v-248zM520 1518l119 -349h-184l-165 349h230zM62 1014z" />
    <glyph glyph-name="Eacute.c2sc" horiz-adv-x="1029" 
d="M387 197h547v-197h-784v1066h755v-197h-518v-227h438v-197h-438v-248zM782 1518l-165 -349h-184l119 349h230zM194 1013z" />
    <glyph glyph-name="Ecircumflex.c2sc" horiz-adv-x="1029" 
d="M387 197h547v-197h-784v1066h755v-197h-518v-227h438v-197h-438v-248zM431 1518h206l210 -349h-185l-126 212h-4l-126 -212h-185zM134 1014z" />
    <glyph glyph-name="Ecaron.c2sc" horiz-adv-x="1029" 
d="M387 197h547v-197h-784v1066h755v-197h-518v-227h438v-197h-438v-248zM635 1169h-206l-210 349h185l126 -212h4l126 212h185zM132 1014z" />
    <glyph glyph-name="Edieresis.c2sc" horiz-adv-x="1029" 
d="M387 197h547v-197h-784v1066h755v-197h-518v-227h438v-197h-438v-248zM218 1457h218v-221h-218v221zM628 1457h218v-221h-218v221zM132 1014z" />
    <glyph glyph-name="Emacron.c2sc" horiz-adv-x="1029" 
d="M387 197h547v-197h-784v1066h755v-197h-518v-227h438v-197h-438v-248zM245 1383h560v-167h-560v167zM125 1014z" />
    <glyph glyph-name="Ebreve.c2sc" horiz-adv-x="1029" 
d="M387 197h547v-197h-784v1066h755v-197h-518v-227h438v-197h-438v-248zM537 1301q59 0 94.5 41.5t43.5 129.5h203q-3 -73 -25.5 -135t-65 -107t-105 -70t-145.5 -25q-82 0 -145 25t-105.5 70t-65 107t-25.5 135h203q8 -88 43.5 -129.5t94.5 -41.5zM137 1014z" />
    <glyph glyph-name="Edotaccent.c2sc" horiz-adv-x="1029" 
d="M387 197h547v-197h-784v1066h755v-197h-518v-227h438v-197h-438v-248zM407 1493h249v-257h-249v257zM133 1014z" />
    <glyph glyph-name="Eogonek.c2sc" horiz-adv-x="1029" 
d="M934 0q-41 -30 -78.5 -62.5t-66 -65t-45.5 -65t-17 -62.5q1 -38 24 -54t58 -16q62 0 125 23v-162q-29 -10 -72 -18t-96 -8q-51 0 -94.5 11.5t-75.5 35t-50.5 59t-18.5 83.5q0 84 49 153.5t148 143.5v4h-574v1066h755v-197h-518v-227h438v-197h-438v-248h547v-197z" />
    <glyph glyph-name="Gcircumflex.c2sc" horiz-adv-x="1172" 
d="M686 179q62 0 119 9v199h-231v201h468v-555q-88 -31 -187 -44.5t-183 -13.5q-141 0 -250 39t-182.5 109.5t-111.5 169.5t-38 219q0 128 46 235.5t128.5 183.5t199.5 118t252 42q69 0 141 -8.5t137 -28.5v-203q-127 36 -263 36q-79 0 -151 -22.5t-126.5 -68t-86.5 -115.5
t-32 -162q0 -164 90 -252t261 -88zM524 1518h206l210 -349h-185l-126 212h-4l-126 -212h-185zM227 1014z" />
    <glyph glyph-name="Gbreve.c2sc" horiz-adv-x="1172" 
d="M686 179q62 0 119 9v199h-231v201h468v-555q-88 -31 -187 -44.5t-183 -13.5q-141 0 -250 39t-182.5 109.5t-111.5 169.5t-38 219q0 128 46 235.5t128.5 183.5t199.5 118t252 42q69 0 141 -8.5t137 -28.5v-203q-127 36 -263 36q-79 0 -151 -22.5t-126.5 -68t-86.5 -115.5
t-32 -162q0 -164 90 -252t261 -88zM610 1301q59 0 94.5 41.5t43.5 129.5h203q-3 -73 -25.5 -135t-65 -107t-105 -70t-145.5 -25q-82 0 -145 25t-105.5 70t-65 107t-25.5 135h203q8 -88 43.5 -129.5t94.5 -41.5zM210 1014z" />
    <glyph glyph-name="Gdotaccent.c2sc" horiz-adv-x="1172" 
d="M686 179q62 0 119 9v199h-231v201h468v-555q-88 -31 -187 -44.5t-183 -13.5q-141 0 -250 39t-182.5 109.5t-111.5 169.5t-38 219q0 128 46 235.5t128.5 183.5t199.5 118t252 42q69 0 141 -8.5t137 -28.5v-203q-127 36 -263 36q-79 0 -151 -22.5t-126.5 -68t-86.5 -115.5
t-32 -162q0 -164 90 -252t261 -88zM515 1493h249v-257h-249v257zM241 1014z" />
    <glyph glyph-name="Gcommaaccent.c2sc" horiz-adv-x="1172" 
d="M686 179q62 0 119 9v199h-231v201h468v-555q-88 -31 -187 -44.5t-183 -13.5q-141 0 -250 39t-182.5 109.5t-111.5 169.5t-38 219q0 128 46 235.5t128.5 183.5t199.5 118t252 42q69 0 141 -8.5t137 -28.5v-203q-127 36 -263 36q-79 0 -151 -22.5t-126.5 -68t-86.5 -115.5
t-32 -162q0 -164 90 -252t261 -88zM626 -339q0 32 -22 46.5t-57 14.5v169q18 1 35 1q104 0 166 -47t62 -139q0 -48 -20 -99.5t-55 -96.5h-179q30 42 50 80.5t20 70.5z" />
    <glyph glyph-name="Hcircumflex.c2sc" horiz-adv-x="1246" 
d="M387 642h472v424h237v-1066h-237v441h-472v-441h-237v1066h237v-424zM512 1518h206l210 -349h-185l-126 212h-4l-126 -212h-185zM215 1014z" />
    <glyph glyph-name="Hbar.c2sc" horiz-adv-x="1246" 
d="M20 959h130v107h237v-107h472v107h237v-107h130v-181h-130v-778h-237v441h-472v-441h-237v778h-130v181zM859 642v136h-472v-136h472z" />
    <glyph glyph-name="Igrave.c2sc" horiz-adv-x="537" 
d="M150 0v1066h237v-1066h-237zM273 1518l119 -349h-184l-165 349h230zM-185 1014z" />
    <glyph glyph-name="Iacute.c2sc" horiz-adv-x="537" 
d="M150 0v1066h237v-1066h-237zM517 1518l-165 -349h-184l119 349h230zM-71 1013z" />
    <glyph glyph-name="Icircumflex.c2sc" horiz-adv-x="537" 
d="M150 0v1066h237v-1066h-237zM174 1518h206l210 -349h-185l-126 212h-4l-126 -212h-185zM-123 1014z" />
    <glyph glyph-name="Itilde.c2sc" horiz-adv-x="537" 
d="M150 0v1066h237v-1066h-237zM135 1451q41 0 78 -13.5t70 -30.5l65 -33t53 -15q28 0 39.5 19t11.5 65h157q1 -13 1 -37q0 -29 -8 -69.5t-30 -71.5t-57.5 -49t-83.5 -18q-39 0 -76.5 13.5t-72.5 31.5q-37 19 -67 33t-50 14q-28 0 -39.5 -19t-11.5 -65h-157q-1 20 -1 26
q0 43 7.5 80.5t30 70t58 50.5t83.5 18zM-76 1014z" />
    <glyph glyph-name="Idieresis.c2sc" horiz-adv-x="537" 
d="M150 0v1066h237v-1066h-237zM-40 1457h218v-221h-218v221zM370 1457h218v-221h-218v221zM-126 1014z" />
    <glyph glyph-name="Imacron.c2sc" horiz-adv-x="537" 
d="M150 0v1066h237v-1066h-237zM-5 1383h560v-167h-560v167zM-125 1014z" />
    <glyph glyph-name="Ibreve.c2sc" horiz-adv-x="537" 
d="M150 0v1066h237v-1066h-237zM278 1301q59 0 94.5 41.5t43.5 129.5h203q-3 -73 -25.5 -135t-65 -107t-105 -70t-145.5 -25q-82 0 -145 25t-105.5 70t-65 107t-25.5 135h203q8 -88 43.5 -129.5t94.5 -41.5zM-122 1014z" />
    <glyph glyph-name="Idotaccent.c2sc" horiz-adv-x="537" 
d="M150 0v1066h237v-1066h-237zM153 1493h249v-257h-249v257zM-121 1014z" />
    <glyph glyph-name="Iogonek.c2sc" horiz-adv-x="537" 
d="M150 1066h237v-1066q-47 -29 -82 -60.5t-58 -63.5t-34.5 -63.5t-11.5 -58.5q0 -22 7.5 -37.5t20 -24.5t29 -13t34.5 -4q57 0 120 23v-162q-29 -10 -71.5 -18t-93.5 -8q-56 0 -101.5 13.5t-77.5 39.5t-49.5 64t-17.5 87q0 45 11 83.5t31 73t47 66.5t60 63v1066z" />
    <glyph glyph-name="IJ.c2sc" horiz-adv-x="1197" 
d="M150 0v1066h237v-1066h-237zM820 1066h237v-786q0 -75 -25 -132t-71 -95.5t-111 -58t-144 -19.5q-56 0 -104 8t-80 21v205q34 -14 72.5 -22t75.5 -8q78 0 114 37t36 115v735z" />
    <glyph glyph-name="Jcircumflex.c2sc" horiz-adv-x="730" 
d="M353 1066h237v-786q0 -75 -25 -132t-71 -95.5t-111 -58t-144 -19.5q-56 0 -104 8t-80 21v205q34 -14 72.5 -22t75.5 -8q78 0 114 37t36 115v735zM368 1518h206l210 -349h-185l-126 212h-4l-126 -212h-185zM71 1014z" />
    <glyph glyph-name="Kcommaaccent.c2sc" horiz-adv-x="1152" 
d="M150 0v1066h237v-483h4l411 483h285l-456 -533l491 -533h-291l-440 479h-4v-479h-237zM550 -339q0 32 -22 46.5t-57 14.5v169q18 1 35 1q104 0 166 -47t62 -139q0 -48 -20 -99.5t-55 -96.5h-179q30 42 50 80.5t20 70.5z" />
    <glyph glyph-name="Lacute.c2sc" horiz-adv-x="952" 
d="M387 201h525v-201h-762v1066h237v-865zM519 1518l-165 -349h-184l119 349h230zM-69 1013z" />
    <glyph glyph-name="Lcaron.c2sc" horiz-adv-x="952" 
d="M387 201h525v-201h-762v1066h237v-865zM613 844q0 32 -22 46.5t-57 14.5v169q18 1 34 1q106 0 167.5 -46.5t61.5 -133.5q0 -51 -20 -103t-55 -99h-179q29 40 49.5 80t20.5 71z" />
    <glyph glyph-name="Lcommaaccent.c2sc" horiz-adv-x="952" 
d="M387 201h525v-201h-762v1066h237v-865zM486 -339q0 32 -22 46.5t-57 14.5v169q18 1 35 1q104 0 166 -47t62 -139q0 -48 -20 -99.5t-55 -96.5h-179q30 42 50 80.5t20 70.5z" />
    <glyph glyph-name="Lslash.c2sc" horiz-adv-x="952" 
d="M662 603l-275 -107v-295h525v-201h-762v409l-134 -52v204l134 52v453h237v-366l275 107v-204z" />
    <glyph glyph-name="Ldot.c2sc" horiz-adv-x="952" 
d="M387 201h525v-201h-762v1066h237v-865zM582 773h249v-257h-249v257z" />
    <glyph glyph-name="Nacute.c2sc" horiz-adv-x="1304" 
d="M560 473q-92 131 -178 281h-5q10 -158 10 -322v-432h-237v1066h266l328 -473q90 -128 178 -281h5q-10 159 -10 309v445h237v-1066h-260zM906 1518l-165 -349h-184l119 349h230zM318 1013z" />
    <glyph glyph-name="Ncaron.c2sc" horiz-adv-x="1304" 
d="M560 473q-92 131 -178 281h-5q10 -158 10 -322v-432h-237v1066h266l328 -473q90 -128 178 -281h5q-10 159 -10 309v445h237v-1066h-260zM757 1169h-206l-210 349h185l126 -212h4l126 212h185zM254 1014z" />
    <glyph glyph-name="Ntilde.c2sc" horiz-adv-x="1304" 
d="M560 473q-92 131 -178 281h-5q10 -158 10 -322v-432h-237v1066h266l328 -473q90 -128 178 -281h5q-10 159 -10 309v445h237v-1066h-260zM506 1451q41 0 78 -13.5t70 -30.5l65 -33t53 -15q28 0 39.5 19t11.5 65h157q1 -13 1 -37q0 -29 -8 -69.5t-30 -71.5t-57.5 -49
t-83.5 -18q-39 0 -76.5 13.5t-72.5 31.5q-37 19 -67 33t-50 14q-28 0 -39.5 -19t-11.5 -65h-157q-1 20 -1 26q0 43 7.5 80.5t30 70t58 50.5t83.5 18zM295 1014z" />
    <glyph glyph-name="Ncommaaccent.c2sc" horiz-adv-x="1304" 
d="M560 473q-92 131 -178 281h-5q10 -158 10 -322v-432h-237v1066h266l328 -473q90 -128 178 -281h5q-10 159 -10 309v445h237v-1066h-260zM611 -339q0 32 -22 46.5t-57 14.5v169q18 1 35 1q104 0 166 -47t62 -139q0 -48 -20 -99.5t-55 -96.5h-179q30 42 50 80.5t20 70.5z
" />
    <glyph glyph-name="Ograve.c2sc" horiz-adv-x="1250" 
d="M625 179q63 0 116.5 22t92 66.5t60 111t21.5 155.5t-21.5 155t-60 110t-92 66t-116.5 22t-116.5 -22t-92 -66t-60 -110t-21.5 -155t21.5 -155.5t60 -111t92 -66.5t116.5 -22zM625 -25q-123 0 -222 41t-168.5 115t-107 177t-37.5 226t37.5 225.5t107 176t168.5 114.5
t222 41t222 -41t168.5 -114.5t107 -176t37.5 -225.5t-37.5 -226t-107 -177t-168.5 -115t-222 -41zM609 1518l119 -349h-184l-165 349h230zM151 1014z" />
    <glyph glyph-name="Oacute.c2sc" horiz-adv-x="1250" 
d="M625 179q63 0 116.5 22t92 66.5t60 111t21.5 155.5t-21.5 155t-60 110t-92 66t-116.5 22t-116.5 -22t-92 -66t-60 -110t-21.5 -155t21.5 -155.5t60 -111t92 -66.5t116.5 -22zM625 -25q-123 0 -222 41t-168.5 115t-107 177t-37.5 226t37.5 225.5t107 176t168.5 114.5
t222 41t222 -41t168.5 -114.5t107 -176t37.5 -225.5t-37.5 -226t-107 -177t-168.5 -115t-222 -41zM877 1518l-165 -349h-184l119 349h230zM289 1013z" />
    <glyph glyph-name="Ocircumflex.c2sc" horiz-adv-x="1250" 
d="M625 179q63 0 116.5 22t92 66.5t60 111t21.5 155.5t-21.5 155t-60 110t-92 66t-116.5 22t-116.5 -22t-92 -66t-60 -110t-21.5 -155t21.5 -155.5t60 -111t92 -66.5t116.5 -22zM625 -25q-123 0 -222 41t-168.5 115t-107 177t-37.5 226t37.5 225.5t107 176t168.5 114.5
t222 41t222 -41t168.5 -114.5t107 -176t37.5 -225.5t-37.5 -226t-107 -177t-168.5 -115t-222 -41zM529 1518h206l210 -349h-185l-126 212h-4l-126 -212h-185zM232 1014z" />
    <glyph glyph-name="Otilde.c2sc" horiz-adv-x="1250" 
d="M625 179q63 0 116.5 22t92 66.5t60 111t21.5 155.5t-21.5 155t-60 110t-92 66t-116.5 22t-116.5 -22t-92 -66t-60 -110t-21.5 -155t21.5 -155.5t60 -111t92 -66.5t116.5 -22zM625 -25q-123 0 -222 41t-168.5 115t-107 177t-37.5 226t37.5 225.5t107 176t168.5 114.5
t222 41t222 -41t168.5 -114.5t107 -176t37.5 -225.5t-37.5 -226t-107 -177t-168.5 -115t-222 -41zM480 1451q41 0 78 -13.5t70 -30.5l65 -33t53 -15q28 0 39.5 19t11.5 65h157q1 -13 1 -37q0 -29 -8 -69.5t-30 -71.5t-57.5 -49t-83.5 -18q-39 0 -76.5 13.5t-72.5 31.5
q-37 19 -67 33t-50 14q-28 0 -39.5 -19t-11.5 -65h-157q-1 20 -1 26q0 43 7.5 80.5t30 70t58 50.5t83.5 18zM269 1014z" />
    <glyph glyph-name="Odieresis.c2sc" horiz-adv-x="1250" 
d="M625 179q63 0 116.5 22t92 66.5t60 111t21.5 155.5t-21.5 155t-60 110t-92 66t-116.5 22t-116.5 -22t-92 -66t-60 -110t-21.5 -155t21.5 -155.5t60 -111t92 -66.5t116.5 -22zM625 -25q-123 0 -222 41t-168.5 115t-107 177t-37.5 226t37.5 225.5t107 176t168.5 114.5
t222 41t222 -41t168.5 -114.5t107 -176t37.5 -225.5t-37.5 -226t-107 -177t-168.5 -115t-222 -41zM312 1457h218v-221h-218v221zM722 1457h218v-221h-218v221zM226 1014z" />
    <glyph glyph-name="Omacron.c2sc" horiz-adv-x="1250" 
d="M625 179q63 0 116.5 22t92 66.5t60 111t21.5 155.5t-21.5 155t-60 110t-92 66t-116.5 22t-116.5 -22t-92 -66t-60 -110t-21.5 -155t21.5 -155.5t60 -111t92 -66.5t116.5 -22zM625 -25q-123 0 -222 41t-168.5 115t-107 177t-37.5 226t37.5 225.5t107 176t168.5 114.5
t222 41t222 -41t168.5 -114.5t107 -176t37.5 -225.5t-37.5 -226t-107 -177t-168.5 -115t-222 -41zM347 1383h560v-167h-560v167zM227 1014z" />
    <glyph glyph-name="Obreve.c2sc" horiz-adv-x="1250" 
d="M625 179q63 0 116.5 22t92 66.5t60 111t21.5 155.5t-21.5 155t-60 110t-92 66t-116.5 22t-116.5 -22t-92 -66t-60 -110t-21.5 -155t21.5 -155.5t60 -111t92 -66.5t116.5 -22zM625 -25q-123 0 -222 41t-168.5 115t-107 177t-37.5 226t37.5 225.5t107 176t168.5 114.5
t222 41t222 -41t168.5 -114.5t107 -176t37.5 -225.5t-37.5 -226t-107 -177t-168.5 -115t-222 -41zM625 1301q59 0 94.5 41.5t43.5 129.5h203q-3 -73 -25.5 -135t-65 -107t-105 -70t-145.5 -25q-82 0 -145 25t-105.5 70t-65 107t-25.5 135h203q8 -88 43.5 -129.5t94.5 -41.5z
M225 1014z" />
    <glyph glyph-name="Ohungarumlaut.c2sc" horiz-adv-x="1250" 
d="M625 179q63 0 116.5 22t92 66.5t60 111t21.5 155.5t-21.5 155t-60 110t-92 66t-116.5 22t-116.5 -22t-92 -66t-60 -110t-21.5 -155t21.5 -155.5t60 -111t92 -66.5t116.5 -22zM625 -25q-123 0 -222 41t-168.5 115t-107 177t-37.5 226t37.5 225.5t107 176t168.5 114.5
t222 41t222 -41t168.5 -114.5t107 -176t37.5 -225.5t-37.5 -226t-107 -177t-168.5 -115t-222 -41zM710 1518l-165 -349h-184l119 349h230zM1038 1518l-187 -349h-190l141 349h236zM294 1014z" />
    <glyph glyph-name="Oslash.c2sc" horiz-adv-x="1250" 
d="M1067 871q45 -69 69 -153.5t24 -183.5q0 -123 -37.5 -226t-107 -177t-168.5 -115t-222 -41q-95 0 -174.5 24t-143.5 69l-88 -93l-129 121l93 99q-45 69 -69 154t-24 185q0 123 37.5 225.5t107 176t168.5 114.5t222 41q94 0 174 -24t144 -69l88 93l129 -121zM625 179
q63 0 116.5 22t92 66.5t60 111t21.5 155.5q0 45 -5.5 83t-16.5 71l-434 -459q70 -50 166 -50zM335 534q0 -90 21 -156l435 459q-70 50 -166 50q-63 0 -116.5 -22t-92 -66t-60 -110t-21.5 -155z" />
    <glyph glyph-name="Oslashacute.c2sc" horiz-adv-x="1250" 
d="M1067 871q45 -69 69 -153.5t24 -183.5q0 -123 -37.5 -226t-107 -177t-168.5 -115t-222 -41q-95 0 -174.5 24t-143.5 69l-88 -93l-129 121l93 99q-45 69 -69 154t-24 185q0 123 37.5 225.5t107 176t168.5 114.5t222 41q94 0 174 -24t144 -69l88 93l129 -121zM625 179
q63 0 116.5 22t92 66.5t60 111t21.5 155.5q0 45 -5.5 83t-16.5 71l-434 -459q70 -50 166 -50zM335 534q0 -90 21 -156l435 459q-70 50 -166 50q-63 0 -116.5 -22t-92 -66t-60 -110t-21.5 -155zM876 1518l-165 -349h-184l119 349h230zM288 1013z" />
    <glyph glyph-name="OE.c2sc" horiz-adv-x="1784" 
d="M1142 197h547v-197h-774v92h-4q-57 -55 -139 -86t-182 -31q-106 0 -197.5 41t-158.5 114.5t-105.5 176.5t-38.5 227q0 123 38 225.5t105.5 176t160.5 114.5t202 41q94 0 174.5 -30t140.5 -87h4v92h745v-197h-518v-227h438v-197h-438v-248zM621 179q63 0 117 22t93.5 66.5
t61.5 111t22 155.5t-22 155t-61.5 110t-93.5 66t-117 22q-62 0 -114.5 -22t-90.5 -66t-59.5 -110t-21.5 -155t21.5 -155.5t59.5 -111t90.5 -66.5t114.5 -22z" />
    <glyph glyph-name="Racute.c2sc" horiz-adv-x="1126" 
d="M998 724q0 -61 -18 -110t-49.5 -86.5t-75 -63t-94.5 -40.5v-4l315 -420h-280l-273 381h-136v-381h-237v1066h356q77 0 131 -6t98 -17q72 -18 122 -49.5t81.5 -73t45.5 -91t14 -105.5zM507 582q129 0 187.5 37.5t58.5 110.5q0 49 -30.5 81.5t-93.5 45.5q-20 4 -45 6t-61 2
h-136v-283h120zM793 1518l-165 -349h-184l119 349h230zM205 1013z" />
    <glyph glyph-name="Rcaron.c2sc" horiz-adv-x="1126" 
d="M998 724q0 -61 -18 -110t-49.5 -86.5t-75 -63t-94.5 -40.5v-4l315 -420h-280l-273 381h-136v-381h-237v1066h356q77 0 131 -6t98 -17q72 -18 122 -49.5t81.5 -73t45.5 -91t14 -105.5zM507 582q129 0 187.5 37.5t58.5 110.5q0 49 -30.5 81.5t-93.5 45.5q-20 4 -45 6t-61 2
h-136v-283h120zM662 1169h-206l-210 349h185l126 -212h4l126 212h185zM159 1014z" />
    <glyph glyph-name="Rcommaaccent.c2sc" horiz-adv-x="1126" 
d="M998 724q0 -61 -18 -110t-49.5 -86.5t-75 -63t-94.5 -40.5v-4l315 -420h-280l-273 381h-136v-381h-237v1066h356q77 0 131 -6t98 -17q72 -18 122 -49.5t81.5 -73t45.5 -91t14 -105.5zM507 582q129 0 187.5 37.5t58.5 110.5q0 49 -30.5 81.5t-93.5 45.5q-20 4 -45 6t-61 2
h-136v-283h120zM531 -339q0 32 -22 46.5t-57 14.5v169q18 1 35 1q104 0 166 -47t62 -139q0 -48 -20 -99.5t-55 -96.5h-179q30 42 50 80.5t20 70.5z" />
    <glyph glyph-name="Sacute.c2sc" horiz-adv-x="1026" 
d="M661 312q0 38 -22.5 62t-62.5 39t-87.5 25t-98.5 23q-49 13 -96.5 32.5t-84 52.5t-59 84t-22.5 127q0 85 31 147.5t84.5 104t125 62t153.5 20.5q38 0 81.5 -4t87 -11.5t85.5 -19t77 -26.5v-205q-84 33 -164.5 47.5t-148.5 14.5q-90 0 -128.5 -32t-38.5 -83
q0 -37 19.5 -60.5t51 -38.5t76 -26l88.5 -21q57 -13 108.5 -32t94.5 -52t69 -88.5t26 -135.5q0 -90 -33.5 -154.5t-95 -106.5t-147 -62t-190.5 -20q-36 0 -79 4t-86 12.5t-81 20.5t-69 29v203q80 -34 153.5 -49.5t154.5 -15.5q47 0 88.5 6.5t72.5 22t49 41t18 63.5z
M780 1518l-165 -349h-184l119 349h230zM192 1013z" />
    <glyph glyph-name="Scircumflex.c2sc" horiz-adv-x="1026" 
d="M661 312q0 38 -22.5 62t-62.5 39t-87.5 25t-98.5 23q-49 13 -96.5 32.5t-84 52.5t-59 84t-22.5 127q0 85 31 147.5t84.5 104t125 62t153.5 20.5q38 0 81.5 -4t87 -11.5t85.5 -19t77 -26.5v-205q-84 33 -164.5 47.5t-148.5 14.5q-90 0 -128.5 -32t-38.5 -83
q0 -37 19.5 -60.5t51 -38.5t76 -26l88.5 -21q57 -13 108.5 -32t94.5 -52t69 -88.5t26 -135.5q0 -90 -33.5 -154.5t-95 -106.5t-147 -62t-190.5 -20q-36 0 -79 4t-86 12.5t-81 20.5t-69 29v203q80 -34 153.5 -49.5t154.5 -15.5q47 0 88.5 6.5t72.5 22t49 41t18 63.5z
M422 1518h206l210 -349h-185l-126 212h-4l-126 -212h-185zM125 1014z" />
    <glyph glyph-name="Scaron.c2sc" horiz-adv-x="1026" 
d="M661 312q0 38 -22.5 62t-62.5 39t-87.5 25t-98.5 23q-49 13 -96.5 32.5t-84 52.5t-59 84t-22.5 127q0 85 31 147.5t84.5 104t125 62t153.5 20.5q38 0 81.5 -4t87 -11.5t85.5 -19t77 -26.5v-205q-84 33 -164.5 47.5t-148.5 14.5q-90 0 -128.5 -32t-38.5 -83
q0 -37 19.5 -60.5t51 -38.5t76 -26l88.5 -21q57 -13 108.5 -32t94.5 -52t69 -88.5t26 -135.5q0 -90 -33.5 -154.5t-95 -106.5t-147 -62t-190.5 -20q-36 0 -79 4t-86 12.5t-81 20.5t-69 29v203q80 -34 153.5 -49.5t154.5 -15.5q47 0 88.5 6.5t72.5 22t49 41t18 63.5z
M632 1169h-206l-210 349h185l126 -212h4l126 212h185zM129 1014z" />
    <glyph glyph-name="Scedilla.c2sc" horiz-adv-x="1026" 
d="M906 318q0 -78 -25.5 -137t-72.5 -100.5t-113.5 -66t-148.5 -33.5l-27 -99q40 -6 74 -19.5t59 -35t39 -50t14 -63.5q0 -42 -19.5 -79t-58.5 -65t-98.5 -44t-133.5 -16q-41 0 -80 5.5t-60 13.5v146q25 -8 62 -12.5t68 -4.5q38 0 64 6t41 15.5t21 20.5t6 22q0 31 -43.5 46
t-136.5 17l57 192q-34 2 -71 7t-72.5 13t-68 19t-57.5 25v203q80 -34 153.5 -49.5t154.5 -15.5q47 0 88.5 6.5t72.5 22t49 41t18 63.5q0 39 -23 62.5t-62 38.5t-87 25t-99 23q-49 13 -96.5 32.5t-84 52.5t-59 84t-22.5 127q0 85 31 147.5t84.5 104t125 62t153.5 20.5
q38 0 81.5 -4t87 -11.5t85.5 -19t77 -26.5v-205q-84 33 -164.5 47.5t-148.5 14.5q-90 0 -128.5 -32t-38.5 -83q0 -37 19.5 -60.5t51 -38.5t76 -26l88.5 -21q57 -13 108.5 -32t94.5 -52t69 -88.5t26 -135.5z" />
    <glyph glyph-name="Scommaaccent.c2sc" horiz-adv-x="1026" 
d="M661 312q0 38 -22.5 62t-62.5 39t-87.5 25t-98.5 23q-49 13 -96.5 32.5t-84 52.5t-59 84t-22.5 127q0 85 31 147.5t84.5 104t125 62t153.5 20.5q38 0 81.5 -4t87 -11.5t85.5 -19t77 -26.5v-205q-84 33 -164.5 47.5t-148.5 14.5q-90 0 -128.5 -32t-38.5 -83
q0 -37 19.5 -60.5t51 -38.5t76 -26l88.5 -21q57 -13 108.5 -32t94.5 -52t69 -88.5t26 -135.5q0 -90 -33.5 -154.5t-95 -106.5t-147 -62t-190.5 -20q-36 0 -79 4t-86 12.5t-81 20.5t-69 29v203q80 -34 153.5 -49.5t154.5 -15.5q47 0 88.5 6.5t72.5 22t49 41t18 63.5z
M469 -339q0 32 -22 46.5t-57 14.5v169q18 1 35 1q104 0 166 -47t62 -139q0 -48 -20 -99.5t-55 -96.5h-179q30 42 50 80.5t20 70.5z" />
    <glyph glyph-name="Tcaron.c2sc" horiz-adv-x="959" 
d="M949 1066v-201h-351v-865h-237v865h-351v201h939zM579 1169h-206l-210 349h185l126 -212h4l126 212h185zM76 1014z" />
    <glyph glyph-name="Tcommaaccent.c2sc" horiz-adv-x="959" 
d="M949 1066v-201h-351v-865h-237v865h-351v201h939zM440 -339q0 32 -22 46.5t-57 14.5v169q18 1 35 1q104 0 166 -47t62 -139q0 -48 -20 -99.5t-55 -96.5h-179q30 42 50 80.5t20 70.5z" />
    <glyph glyph-name="Tbar.c2sc" horiz-adv-x="959" 
d="M167 642h194v223h-351v201h939v-201h-351v-223h199v-197h-199v-445h-237v445h-194v197z" />
    <glyph glyph-name="Ugrave.c2sc" horiz-adv-x="1234" 
d="M617 179q60 0 105 17t75 48.5t45 76.5t15 100v645h237v-650q0 -95 -28.5 -176t-87 -140t-148.5 -92t-213 -33t-213 33t-148.5 92t-87 140t-28.5 176v650h237v-645q0 -55 15 -100t45 -76.5t75 -48.5t105 -17zM616 1518l119 -349h-184l-165 349h230zM158 1014z" />
    <glyph glyph-name="Uacute.c2sc" horiz-adv-x="1234" 
d="M617 179q60 0 105 17t75 48.5t45 76.5t15 100v645h237v-650q0 -95 -28.5 -176t-87 -140t-148.5 -92t-213 -33t-213 33t-148.5 92t-87 140t-28.5 176v650h237v-645q0 -55 15 -100t45 -76.5t75 -48.5t105 -17zM878 1518l-165 -349h-184l119 349h230zM290 1013z" />
    <glyph glyph-name="Ucircumflex.c2sc" horiz-adv-x="1234" 
d="M617 179q60 0 105 17t75 48.5t45 76.5t15 100v645h237v-650q0 -95 -28.5 -176t-87 -140t-148.5 -92t-213 -33t-213 33t-148.5 92t-87 140t-28.5 176v650h237v-645q0 -55 15 -100t45 -76.5t75 -48.5t105 -17zM515 1518h206l210 -349h-185l-126 212h-4l-126 -212h-185z
M218 1014z" />
    <glyph glyph-name="Utilde.c2sc" horiz-adv-x="1234" 
d="M617 179q60 0 105 17t75 48.5t45 76.5t15 100v645h237v-650q0 -95 -28.5 -176t-87 -140t-148.5 -92t-213 -33t-213 33t-148.5 92t-87 140t-28.5 176v650h237v-645q0 -55 15 -100t45 -76.5t75 -48.5t105 -17zM471 1451q41 0 78 -13.5t70 -30.5l65 -33t53 -15q28 0 39.5 19
t11.5 65h157q1 -13 1 -37q0 -29 -8 -69.5t-30 -71.5t-57.5 -49t-83.5 -18q-39 0 -76.5 13.5t-72.5 31.5q-37 19 -67 33t-50 14q-28 0 -39.5 -19t-11.5 -65h-157q-1 20 -1 26q0 43 7.5 80.5t30 70t58 50.5t83.5 18zM260 1014z" />
    <glyph glyph-name="Udieresis.c2sc" horiz-adv-x="1234" 
d="M617 179q60 0 105 17t75 48.5t45 76.5t15 100v645h237v-650q0 -95 -28.5 -176t-87 -140t-148.5 -92t-213 -33t-213 33t-148.5 92t-87 140t-28.5 176v650h237v-645q0 -55 15 -100t45 -76.5t75 -48.5t105 -17zM305 1457h218v-221h-218v221zM715 1457h218v-221h-218v221z
M219 1014z" />
    <glyph glyph-name="Umacron.c2sc" horiz-adv-x="1234" 
d="M617 179q60 0 105 17t75 48.5t45 76.5t15 100v645h237v-650q0 -95 -28.5 -176t-87 -140t-148.5 -92t-213 -33t-213 33t-148.5 92t-87 140t-28.5 176v650h237v-645q0 -55 15 -100t45 -76.5t75 -48.5t105 -17zM333 1383h560v-167h-560v167zM213 1014z" />
    <glyph glyph-name="Ubreve.c2sc" horiz-adv-x="1234" 
d="M617 179q60 0 105 17t75 48.5t45 76.5t15 100v645h237v-650q0 -95 -28.5 -176t-87 -140t-148.5 -92t-213 -33t-213 33t-148.5 92t-87 140t-28.5 176v650h237v-645q0 -55 15 -100t45 -76.5t75 -48.5t105 -17zM620 1301q59 0 94.5 41.5t43.5 129.5h203q-3 -73 -25.5 -135
t-65 -107t-105 -70t-145.5 -25q-82 0 -145 25t-105.5 70t-65 107t-25.5 135h203q8 -88 43.5 -129.5t94.5 -41.5zM220 1014z" />
    <glyph glyph-name="Uring.c2sc" horiz-adv-x="1234" 
d="M617 179q60 0 105 17t75 48.5t45 76.5t15 100v645h237v-650q0 -95 -28.5 -176t-87 -140t-148.5 -92t-213 -33t-213 33t-148.5 92t-87 140t-28.5 176v650h237v-645q0 -55 15 -100t45 -76.5t75 -48.5t105 -17zM621 1135q-54 0 -100 14t-79 40.5t-52 64.5t-19 86t19 86
t52 64.5t79 40.5t100 14t100 -14t79 -40.5t52 -64.5t19 -86t-19 -86t-52 -64.5t-79 -40.5t-100 -14zM621 1432q-43 0 -72 -23.5t-29 -68.5t29 -68.5t72 -23.5t72 23.5t29 68.5t-29 68.5t-72 23.5zM221 1014z" />
    <glyph glyph-name="Uhungarumlaut.c2sc" horiz-adv-x="1234" 
d="M617 179q60 0 105 17t75 48.5t45 76.5t15 100v645h237v-650q0 -95 -28.5 -176t-87 -140t-148.5 -92t-213 -33t-213 33t-148.5 92t-87 140t-28.5 176v650h237v-645q0 -55 15 -100t45 -76.5t75 -48.5t105 -17zM722 1518l-165 -349h-184l119 349h230zM1050 1518l-187 -349
h-190l141 349h236zM306 1014z" />
    <glyph glyph-name="Uogonek.c2sc" horiz-adv-x="1234" 
d="M1094 390q0 -63 -12.5 -116t-33.5 -98t-48 -82.5t-55 -70.5q-33 -39 -65 -72.5t-58 -66.5t-41.5 -67.5t-15.5 -70.5q1 -39 24.5 -55t60.5 -16q59 0 122 23v-162q-29 -10 -73.5 -18t-94.5 -8q-51 0 -94.5 11.5t-75.5 35t-50.5 59t-18.5 83.5q0 78 46.5 150.5t134.5 145.5
l-2 4q-27 -8 -66.5 -14t-84.5 -6q-112 0 -197 32.5t-142 90.5t-85.5 138.5t-28.5 175.5v650h237v-645q0 -55 15 -100t45 -76.5t75 -48.5t105 -17t105 17t75 48.5t45 76.5t15 100v645h237v-676z" />
    <glyph glyph-name="Wgrave.c2sc" horiz-adv-x="1556" 
d="M480 316q44 215 83 360l100 390h229l101 -390q45 -173 82 -360h6q44 196 94 366l116 384h245l-339 -1066h-243l-104 438q-37 158 -69 313h-6q-32 -160 -69 -313l-105 -438h-242l-339 1066h245l116 -384q50 -166 94 -366h5zM761 1518l119 -349h-184l-165 349h230z
M303 1014z" />
    <glyph glyph-name="Wacute.c2sc" horiz-adv-x="1556" 
d="M480 316q44 215 83 360l100 390h229l101 -390q45 -173 82 -360h6q44 196 94 366l116 384h245l-339 -1066h-243l-104 438q-37 158 -69 313h-6q-32 -160 -69 -313l-105 -438h-242l-339 1066h245l116 -384q50 -166 94 -366h5zM1034 1518l-165 -349h-184l119 349h230z
M446 1013z" />
    <glyph glyph-name="Wcircumflex.c2sc" horiz-adv-x="1556" 
d="M480 316q44 215 83 360l100 390h229l101 -390q45 -173 82 -360h6q44 196 94 366l116 384h245l-339 -1066h-243l-104 438q-37 158 -69 313h-6q-32 -160 -69 -313l-105 -438h-242l-339 1066h245l116 -384q50 -166 94 -366h5zM676 1518h206l210 -349h-185l-126 212h-4
l-126 -212h-185zM379 1014z" />
    <glyph glyph-name="Wdieresis.c2sc" horiz-adv-x="1556" 
d="M480 316q44 215 83 360l100 390h229l101 -390q45 -173 82 -360h6q44 196 94 366l116 384h245l-339 -1066h-243l-104 438q-37 158 -69 313h-6q-32 -160 -69 -313l-105 -438h-242l-339 1066h245l116 -384q50 -166 94 -366h5zM464 1457h218v-221h-218v221zM874 1457h218
v-221h-218v221zM378 1014z" />
    <glyph glyph-name="Ygrave.c2sc" horiz-adv-x="1073" 
d="M1053 1066l-398 -648v-418h-237v418l-398 648h251l263 -449h4l264 449h251zM518 1518l119 -349h-184l-165 349h230zM60 1014z" />
    <glyph glyph-name="Yacute.c2sc" horiz-adv-x="1073" 
d="M1053 1066l-398 -648v-418h-237v418l-398 648h251l263 -449h4l264 449h251zM797 1518l-165 -349h-184l119 349h230zM209 1013z" />
    <glyph glyph-name="Ycircumflex.c2sc" horiz-adv-x="1073" 
d="M1053 1066l-398 -648v-418h-237v418l-398 648h251l263 -449h4l264 449h251zM435 1518h206l210 -349h-185l-126 212h-4l-126 -212h-185zM138 1014z" />
    <glyph glyph-name="Ydieresis.c2sc" horiz-adv-x="1073" 
d="M1053 1066l-398 -648v-418h-237v418l-398 648h251l263 -449h4l264 449h251zM223 1457h218v-221h-218v221zM633 1457h218v-221h-218v221zM137 1014z" />
    <glyph glyph-name="Zacute.c2sc" horiz-adv-x="1050" 
d="M977 1066v-128l-554 -737h562v-201h-885v128l555 737h-541v201h863zM789 1518l-165 -349h-184l119 349h230zM201 1013z" />
    <glyph glyph-name="Zcaron.c2sc" horiz-adv-x="1050" 
d="M977 1066v-128l-554 -737h562v-201h-885v128l555 737h-541v201h863zM646 1169h-206l-210 349h185l126 -212h4l126 212h185zM143 1014z" />
    <glyph glyph-name="Zdotaccent.c2sc" horiz-adv-x="1050" 
d="M977 1066v-128l-554 -737h562v-201h-885v128l555 737h-541v201h863zM422 1493h249v-257h-249v257zM148 1014z" />
    <glyph glyph-name="Eng.c2sc" horiz-adv-x="1304" 
d="M1154 1066v-1129q0 -168 -89.5 -259t-279.5 -91q-19 0 -41.5 1.5t-39.5 4.5v197q25 -5 52 -5q48 0 79 11t49 32.5t25.5 53.5t7.5 74v16l-357 501q-92 131 -178 281h-5q10 -158 10 -322v-432h-237v1066h266l328 -473q90 -128 178 -281h5q-10 159 -10 309v445h237z" />
    <glyph glyph-name="Eth.c2sc" horiz-adv-x="1232" 
d="M55 642h130v424h340q150 0 265 -38t193.5 -107.5t118.5 -167t40 -216.5q0 -139 -47.5 -240t-133 -167t-204 -98t-260.5 -32h-312v445h-130v197zM500 201q103 0 178 18.5t123.5 59t72 105t23.5 155.5q0 326 -366 326h-109v-223h237v-197h-237v-244h78z" />
    <glyph glyph-name="Thorn.c2sc" horiz-adv-x="1047" 
d="M387 1066v-184h138q121 0 204.5 -24t140.5 -69t87 -107.5t30 -137.5q0 -77 -34 -141.5t-99 -110.5t-159 -71.5t-212 -25.5q-20 0 -44.5 1t-51.5 4v-200h-237v1066h237zM387 401q16 -2 42.5 -3.5t54.5 -1.5q126 0 192 37t66 112q0 63 -50 100.5t-166 35.5h-139v-280z" />
    <glyph glyph-name="a.superior" horiz-adv-x="815" 
d="M505 590h-4q-14 -16 -32.5 -32.5t-42 -30.5t-53.5 -23t-66 -9q-57 0 -102 18t-76 49.5t-47.5 76t-16.5 96.5q0 60 23.5 104.5t62.5 73.5t88.5 43t101.5 14q37 0 76.5 -6.5t73.5 -17.5v27q-1 123 -148 124q-50 0 -103.5 -11t-116.5 -35v169q77 22 143.5 30t103.5 8
q93 0 158.5 -20t105.5 -58.5t57.5 -94.5t17.5 -127v-229q0 -72 2 -123.5t4 -92.5h-199zM491 809q-21 6 -48.5 11t-49.5 5q-29 0 -50.5 -7.5t-35.5 -20.5t-20.5 -29t-6.5 -33q0 -34 21 -57.5t65 -23.5q39 0 73 19.5t52 43.5v92z" />
    <glyph glyph-name="b.superior" horiz-adv-x="905" 
d="M840 882q0 -80 -24 -150.5t-67.5 -123t-104 -83t-131.5 -30.5q-67 0 -115.5 28.5t-85.5 72.5h-4l-14 -83h-189q2 30 3 78.5t1 91.5v856h218v-247q0 -32 -0.5 -58.5t-2.5 -43.5h3q37 28 84 48t107 20q71 0 131 -29t102.5 -80t65.5 -119.5t23 -147.5zM622 880q0 54 -13 92
t-34.5 63t-49 36.5t-56.5 11.5q-35 0 -74 -14.5t-68 -38.5v-291q10 -12 25 -24.5t33.5 -22t39.5 -16t44 -6.5q37 0 65.5 16t48 44t29.5 66.5t10 83.5z" />
    <glyph glyph-name="c.superior" horiz-adv-x="685" 
d="M635 529q-30 -14 -78.5 -24t-107.5 -10q-82 0 -152 23t-121.5 68.5t-81 115.5t-29.5 160q0 102 36 178t92.5 124t123.5 71t130 23q55 0 97.5 -8.5t79.5 -23.5v-176q-33 14 -66 22.5t-70 8.5q-41 0 -79 -12.5t-66 -38.5t-44 -66t-16 -95q0 -53 14.5 -90.5t40 -61
t59.5 -34.5t74 -11q43 0 82.5 8.5t81.5 25.5v-177z" />
    <glyph glyph-name="d.superior" horiz-adv-x="905" 
d="M65 869q0 84 23.5 155.5t65.5 123t99.5 81t126.5 29.5q64 -1 112.5 -20t85.5 -48h3q-2 17 -2.5 43.5t-0.5 58.5v247h218v-856q0 -43 1 -84t3 -86h-193l-10 83h-4q-18 -21 -40 -39.5t-48.5 -32t-59 -21.5t-72.5 -8q-62 0 -118 25t-98 72.5t-67 117t-25 159.5zM283 868
q0 -91 39.5 -144.5t113.5 -53.5q36 0 74.5 18t67.5 51v291q-27 23 -62 38t-74 15q-31 0 -60 -13.5t-51 -40.5t-35 -67t-13 -94z" />
    <glyph glyph-name="e.superior" horiz-adv-x="810" 
d="M488 658q51 0 111 10.5t118 32.5v-170q-66 -20 -133 -28t-114 -8q-90 0 -165 21.5t-128 66.5t-82.5 114.5t-29.5 166.5q0 96 28.5 169.5t76.5 123.5t112 75.5t136 25.5t132.5 -21.5t104 -67t68 -117.5t24.5 -171q0 -30 -3 -71h-462q9 -82 61.5 -117.5t144.5 -34.5z
M414 1097q-108 -1 -124 -131h233q-2 131 -109 131z" />
    <glyph glyph-name="f.superior" horiz-adv-x="554" 
d="M574 1363q-28 7 -59.5 12t-62.5 5q-55 0 -79.5 -23.5t-24.5 -70.5v-46h187v-174h-187v-553h-218v553h-115v174h115v50q0 67 24.5 117t65.5 83.5t93.5 50t107.5 16.5q48 0 87.5 -6.5t65.5 -15.5v-172z" />
    <glyph glyph-name="g.superior" horiz-adv-x="897" 
d="M797 520q0 -73 -18.5 -127t-51 -93t-75.5 -64t-93 -39t-105 -20t-101 -6q-63 0 -131 11t-114 29v176q50 -16 107 -27.5t123 -11.5q120 0 180 40.5t60 113.5v9q0 8 0.5 28.5t2.5 36.5h-3q-14 -13 -35.5 -26.5t-47 -24t-55 -17t-59.5 -6.5q-67 0 -125 24.5t-100.5 71
t-66.5 113t-24 150.5q0 88 24 161t66 125.5t100 81.5t127 29q67 -1 122 -28.5t89 -72.5h4l10 83h190v-720zM283 870q0 -91 39.5 -142t115.5 -51q35 0 76 14.5t64 38.5v283q-21 26 -56 47.5t-80 22.5q-31 0 -60 -13t-51 -39.5t-35 -66.5t-13 -94z" />
    <glyph glyph-name="h.superior" horiz-adv-x="916" 
d="M323 1287q0 -47 -2 -86t-6 -62h4q16 23 38 44.5t51 38t66 26.5t82 10q57 0 105 -16.5t82.5 -48.5t53.5 -80t19 -111v-489h-218v446q0 35 -8.5 58t-22.5 37t-33.5 19.5t-41.5 5.5q-48 0 -93.5 -28t-75.5 -68v-470h-218v1026h218v-252z" />
    <glyph glyph-name="i.superior" horiz-adv-x="418" 
d="M100 1240h218v-727h-218v727zM100 1557h218v-194h-218v194z" />
    <glyph glyph-name="j.superior" horiz-adv-x="433" 
d="M115 1557h218v-194h-218v194zM333 454q0 -144 -83 -213.5t-231 -69.5q-30 0 -65 4.5t-64 13.5v178q22 -7 49 -12t61 -5q116 -1 115 134v756h218v-786z" />
    <glyph glyph-name="k.superior" horiz-adv-x="829" 
d="M105 1539h218v-594h4l238 295h252l-278 -343l280 -384h-247l-245 338h-4v-338h-218v1026z" />
    <glyph glyph-name="l.superior" horiz-adv-x="428" 
d="M105 513v1026h218v-1026h-218z" />
    <glyph glyph-name="m.superior" horiz-adv-x="1352" 
d="M540 1258q78 0 134.5 -32.5t85.5 -95.5h4q46 58 105.5 93t137.5 35q55 0 100 -16.5t77.5 -48.5t50 -80t17.5 -111v-489h-218v456q0 59 -24 84.5t-63 25.5q-46 0 -89 -28t-73 -68v-470h-218v456q-1 61 -24.5 85.5t-62.5 24.5q-46 0 -89 -28t-73 -68v-470h-218v727h188
l16 -101h4q39 50 96.5 84.5t135.5 34.5z" />
    <glyph glyph-name="uni207F" unicode="&#x207f;" horiz-adv-x="910" 
d="M304 1139h4q17 23 40 44.5t53 38t67 26.5t82 10q57 0 105 -16.5t82.5 -48.5t53.5 -80t19 -111v-489h-218v446q0 59 -26 89.5t-80 30.5q-47 0 -92.5 -28t-75.5 -68v-470h-218v727h188z" />
    <glyph glyph-name="o.superior" horiz-adv-x="876" 
d="M439 495q-84 0 -153 26.5t-118 76t-76 120t-27 158.5t27.5 158.5t77 120t118 76.5t150.5 27t150.5 -27t118 -76.5t77 -120t27.5 -158.5t-26.5 -158.5t-75.5 -120t-117.5 -76t-152.5 -26.5zM439 672q72 0 113 49.5t41 154.5t-42 155t-113 50t-113 -50t-42 -155t42 -154.5
t114 -49.5z" />
    <glyph glyph-name="p.superior" horiz-adv-x="896" 
d="M315 571q2 -17 2.5 -43.5t0.5 -58.5v-280h-218v1051h189l10 -83h4q35 47 89.5 74t116.5 27q72 0 131.5 -29t102 -80t65.5 -119.5t23 -147.5q0 -80 -24 -150.5t-67.5 -123t-103.5 -83t-132 -30.5q-53 0 -100.5 20.5t-85.5 55.5h-3zM613 880q0 54 -12.5 92t-33.5 63
t-48 36.5t-55 11.5q-45 0 -82 -19.5t-64 -45.5v-290q18 -20 54 -39t80 -19q40 0 70 16t50.5 44t30.5 66.5t10 83.5z" />
    <glyph glyph-name="q.superior" horiz-adv-x="896" 
d="M796 1240v-1051h-218v278q0 32 0.5 58.5t2.5 43.5h-3q-14 -13 -35 -26.5t-47 -24t-56 -17t-63 -6.5q-62 0 -118.5 25t-99.5 72.5t-68.5 117t-25.5 159.5q0 84 24 155.5t66 123t100 81t127 29.5q67 0 122.5 -28t88.5 -73h4l10 83h189zM283 868q0 -91 39.5 -144.5
t115.5 -53.5q22 0 43 5t40 12.5t33.5 17t23.5 18.5v290q-23 28 -58.5 49t-77.5 21q-31 0 -60 -13.5t-51 -40.5t-35 -67t-13 -94z" />
    <glyph glyph-name="r.superior" horiz-adv-x="575" 
d="M565 1057q-22 2 -40 2q-70 0 -122.5 -19.5t-84.5 -65.5v-461h-218v727h188l16 -101h5q32 55 82.5 87t126.5 32q22 0 47 -3v-198z" />
    <glyph glyph-name="s.superior" horiz-adv-x="691" 
d="M412 729q0 24 -17 38.5t-44.5 24t-61.5 17.5t-69 20q-29 10 -56 24.5t-47.5 37t-33 55t-12.5 77.5q0 59 22 103t60 73.5t90.5 44t112.5 14.5q65 0 129.5 -11t111.5 -28v-176q-57 19 -117.5 31.5t-110.5 12.5q-39 0 -61.5 -12t-22.5 -38q0 -21 13.5 -34t36 -22.5t51 -17
t59.5 -16.5q33 -10 65.5 -24.5t58 -38.5t41.5 -59.5t16 -87.5q0 -62 -25 -107.5t-68.5 -75.5t-103 -44.5t-129.5 -14.5q-34 0 -67.5 3t-64 8.5t-55.5 12.5t-43 15v174q59 -22 112.5 -32t106.5 -10q26 0 48.5 2.5t39 9.5t26 19.5t9.5 31.5z" />
    <glyph glyph-name="t.superior" horiz-adv-x="599" 
d="M559 515q-22 -7 -66.5 -13.5t-92.5 -6.5q-125 0 -196 59.5t-71 186.5v325h-123v174h123v203h218v-203h197v-174h-197v-292q0 -24 4 -43.5t15 -32.5t30 -20t50 -7q28 0 55 4.5t54 12.5v-173z" />
    <glyph glyph-name="u.superior" horiz-adv-x="900" 
d="M450 672q70 0 103.5 41.5t33.5 121.5v405h218v-414q0 -89 -28 -152t-76.5 -102.5t-113 -58t-137.5 -18.5t-137.5 18.5t-113 58t-76.5 102.5t-28 152v414h218v-405q0 -80 33.5 -121.5t103.5 -41.5z" />
    <glyph glyph-name="v.superior" horiz-adv-x="799" 
d="M10 1240h220l89 -253q56 -160 77 -244h4q32 115 75 240l88 257h226l-281 -727h-216z" />
    <glyph glyph-name="w.superior" horiz-adv-x="1197" 
d="M471 513h-212l-249 727h218l82 -287q38 -132 56 -204h4q18 89 48 204l80 287h203l79 -287q27 -103 47 -204h4l56 204l82 287h218l-250 -727h-211l-76 289q-37 144 -49 211h-4q-7 -48 -49 -211z" />
    <glyph glyph-name="x.superior" horiz-adv-x="816" 
d="M10 513l284 377l-267 350h237l143 -210h4l145 210h242l-273 -349l281 -378h-236l-158 240h-4l-162 -240h-236z" />
    <glyph glyph-name="y.superior" horiz-adv-x="851" 
d="M427 791q28 79 79 208l97 241h238l-464 -1051h-227l159 361l-299 690h232l94 -227q52 -125 87 -222h4z" />
    <glyph glyph-name="z.superior" horiz-adv-x="711" 
d="M383 1066h-331v174h593v-138l-336 -415h362v-174h-631v129z" />
    <glyph glyph-name="ampersand" unicode="&#x26;" horiz-adv-x="1417" 
d="M1268 714q-14 -137 -56.5 -247t-106.5 -196l96 -99l80.5 -83.5l58 -60l27.5 -28.5h-338q-17 22 -38 45.5l-56 61.5q-97 -67 -208 -99.5t-225 -32.5q-92 0 -168 25.5t-130 72t-84 113t-30 147.5q0 69 21.5 124.5t57.5 100.5t83 81.5t98 67.5q-38 37 -70.5 74t-56.5 77
t-37.5 84.5t-13.5 96.5q0 76 27 136t78 102t124.5 64t166.5 22t167 -20t125.5 -59.5t79.5 -98t28 -135.5q0 -68 -21 -122.5t-57 -98.5t-83 -80t-98 -68l112 -115l133 -137q33 58 54.5 129t28.5 156h231zM524 169q69 0 138.5 21t132.5 65l-77 79l-77 79l-74.5 75.5
l-68.5 69.5q-35 -22 -65 -46t-51.5 -51t-34 -58t-12.5 -67q0 -42 15 -73t40.5 -52t60 -31.5t73.5 -10.5zM417 1044q0 -30 9.5 -56t28 -51.5t45 -51.5l59.5 -57q35 22 65 45t52 49t34.5 55.5t12.5 63.5q0 58 -40 93t-113 35q-37 0 -65.5 -10t-48 -27t-29.5 -39.5t-10 -48.5z
" />
    <glyph glyph-name="ampersand.c2sc" horiz-adv-x="1163" 
d="M796 839q0 -53 -16 -96t-43.5 -79t-63.5 -65t-76 -55l79.5 -81l92.5 -97q23 42 38 92.5t20 110.5h225q-11 -109 -47 -197t-90 -157l76 -79l64 -66l46 -47.5l22 -22.5h-302q-7 10 -23.5 29l-40.5 45q-80 -51 -168.5 -75t-176.5 -24q-74 0 -136.5 20.5t-108.5 58
t-71.5 90.5t-25.5 119q0 56 17 100.5t45.5 80.5t66.5 66t79 55q-31 29 -57 58.5t-45 62t-29.5 68t-10.5 76.5q0 62 23 110t66 82t104 51.5t136 17.5q74 0 135 -16t104.5 -48t67.5 -79t24 -109zM297 273q0 -57 38 -84.5t97 -27.5q48 0 97 13t95 40l-109.5 112.5l-103.5 104.5
q-50 -33 -82 -71.5t-32 -86.5zM363 823q0 -38 26.5 -72.5t72.5 -76.5q47 31 77 66.5t30 82.5q0 42 -28 62t-75 20q-45 0 -74 -20t-29 -62z" />
    <glyph glyph-name="grave" unicode="`" horiz-adv-x="800" 
d="M458 1473l119 -349h-184l-165 349h230zM0 969z" />
    <glyph glyph-name="glyph431" horiz-adv-x="800" 
d="M406 1656l138 -247h-188l-190 247h240zM0 1338z" />
    <glyph glyph-name="gravecomb" unicode="&#x300;" horiz-adv-x="0" 
d="M-468 1473l119 -349h-184l-165 349h230zM-926 969z" />
    <glyph glyph-name="glyph433" horiz-adv-x="0" 
d="M-523 1656l138 -247h-188l-190 247h240zM-929 1338z" />
    <glyph glyph-name="acute" unicode="&#xb4;" horiz-adv-x="800" 
d="M588 1473l-165 -349h-184l119 349h230zM0 968z" />
    <glyph glyph-name="glyph435" horiz-adv-x="800" 
d="M556 1656l-190 -247h-188l138 247h240zM0 1338z" />
    <glyph glyph-name="acutecomb" unicode="&#x301;" horiz-adv-x="800" 
d="M-211 1473l-165 -349h-184l119 349h230zM-799 968z" />
    <glyph glyph-name="glyph437" horiz-adv-x="0" 
d="M-209 1656l-190 -247h-188l138 247h240zM-765 1338z" />
    <glyph glyph-name="circumflex" unicode="&#x2c6;" horiz-adv-x="800" 
d="M297 1473h206l210 -349h-185l-126 212h-4l-126 -212h-185zM0 969z" />
    <glyph glyph-name="glyph439" horiz-adv-x="800" 
d="M297 1656h206l216 -247h-207l-110 126h-4l-111 -126h-206zM0 1338z" />
    <glyph glyph-name="uni0302" unicode="&#x302;" horiz-adv-x="0" 
d="M-561 1473h206l210 -349h-185l-126 212h-4l-126 -212h-185zM-858 969z" />
    <glyph glyph-name="glyph441" horiz-adv-x="0" 
d="M-596 1656h206l216 -247h-207l-110 126h-4l-111 -126h-206zM-893 1338z" />
    <glyph glyph-name="caron" unicode="&#x2c7;" horiz-adv-x="800" 
d="M503 1124h-206l-210 349h185l126 -212h4l126 212h185zM0 969z" />
    <glyph glyph-name="glyph443" horiz-adv-x="800" 
d="M503 1410h-206l-216 247h207l110 -126h4l111 126h206zM0 1338z" />
    <glyph glyph-name="uni030C" unicode="&#x30c;" horiz-adv-x="0" 
d="M-366 1124h-206l-210 349h185l126 -212h4l126 212h185zM-869 969z" />
    <glyph glyph-name="glyph445" horiz-adv-x="0" 
d="M-388 1410h-206l-216 247h207l110 -126h4l111 126h206zM-891 1338z" />
    <glyph glyph-name="uni0315" unicode="&#x315;" horiz-adv-x="190" 
d="M36 1217q0 32 -22 46.5t-57 14.5v169q18 1 34 1q106 0 167.5 -46.5t61.5 -133.5q0 -51 -20 -103t-55 -99h-179q29 40 49.5 80t20.5 71zM0 969z" />
    <glyph glyph-name="tilde" unicode="&#x2dc;" horiz-adv-x="800" 
d="M211 1406q41 0 78 -13.5t70 -30.5l65 -33t53 -15q28 0 39.5 19t11.5 65h157q1 -13 1 -37q0 -29 -8 -69.5t-30 -71.5t-57.5 -49t-83.5 -18q-39 0 -76.5 13.5t-72.5 31.5q-37 19 -67 33t-50 14q-28 0 -39.5 -19t-11.5 -65h-157q-1 20 -1 26q0 43 7.5 80.5t30 70t58 50.5
t83.5 18zM0 969z" />
    <glyph glyph-name="glyph448" horiz-adv-x="800" 
d="M252 1656q39 0 77 -13.5t71 -30.5q35 -19 65.5 -33.5t52.5 -14.5q28 0 39.5 19t11.5 65h157q1 -15 1 -33q0 -38 -8.5 -76t-30 -69t-57 -49t-83.5 -18q-40 0 -77 13.5t-70 30.5l-65.5 33t-53.5 15q-28 0 -39.5 -19t-11.5 -65h-157q-1 16 -1 33q0 39 8.5 77t30 68.5
t57 48.5t83.5 18zM0 1339z" />
    <glyph glyph-name="tildecomb" unicode="&#x303;" horiz-adv-x="0" 
d="M-604 1406q41 0 78 -13.5t70 -30.5l65 -33t53 -15q28 0 39.5 19t11.5 65h157q1 -13 1 -37q0 -29 -8 -69.5t-30 -71.5t-57.5 -49t-83.5 -18q-39 0 -76.5 13.5t-72.5 31.5q-37 19 -67 33t-50 14q-28 0 -39.5 -19t-11.5 -65h-157q-1 20 -1 26q0 43 7.5 80.5t30 70t58 50.5
t83.5 18zM-815 969z" />
    <glyph glyph-name="glyph450" horiz-adv-x="0" 
d="M-637 1656q39 0 77 -13.5t71 -30.5q35 -19 65.5 -33.5t52.5 -14.5q28 0 39.5 19t11.5 65h157q1 -15 1 -33q0 -38 -8.5 -76t-30 -69t-57 -49t-83.5 -18q-40 0 -77 13.5t-70 30.5l-65.5 33t-53.5 15q-28 0 -39.5 -19t-11.5 -65h-157q-1 16 -1 33q0 39 8.5 77t30 68.5
t57 48.5t83.5 18zM-889 1339z" />
    <glyph glyph-name="dieresis" unicode="&#xa8;" horiz-adv-x="800" 
d="M86 1412h218v-221h-218v221zM496 1412h218v-221h-218v221zM0 969z" />
    <glyph glyph-name="glyph452" horiz-adv-x="800" 
d="M82 1673h224v-225h-224v225zM494 1673h224v-225h-224v225zM0 1338z" />
    <glyph glyph-name="uni0308" unicode="&#x308;" horiz-adv-x="0" 
d="M-770 1412h218v-221h-218v221zM-360 1412h218v-221h-218v221zM-856 969z" />
    <glyph glyph-name="glyph454" horiz-adv-x="0" 
d="M-809 1673h224v-225h-224v225zM-397 1673h224v-225h-224v225zM-891 1338z" />
    <glyph glyph-name="macron" unicode="&#xaf;" horiz-adv-x="800" 
d="M120 1338h560v-167h-560v167zM0 969z" />
    <glyph glyph-name="macron" unicode="&#x2c9;" horiz-adv-x="800" 
d="M120 1338h560v-167h-560v167zM0 969z" />
    <glyph glyph-name="glyph456" horiz-adv-x="800" 
d="M120 1617h560v-169h-560v169zM0 1338z" />
    <glyph glyph-name="uni0304" unicode="&#x304;" horiz-adv-x="0" 
d="M-740 1338h560v-167h-560v167zM-860 969z" />
    <glyph glyph-name="glyph458" horiz-adv-x="0" 
d="M-781 1617h560v-169h-560v169zM-901 1338z" />
    <glyph glyph-name="breve" unicode="&#x2d8;" horiz-adv-x="800" 
d="M400 1256q59 0 94.5 41.5t43.5 129.5h203q-3 -73 -25.5 -135t-65 -107t-105 -70t-145.5 -25q-82 0 -145 25t-105.5 70t-65 107t-25.5 135h203q8 -88 43.5 -129.5t94.5 -41.5zM0 969z" />
    <glyph glyph-name="glyph460" horiz-adv-x="800" 
d="M400 1568q49 0 84 26t46 86h206q-7 -65 -32 -116.5t-68 -87.5t-102 -55t-134 -19t-134 19t-102 55t-68 87.5t-32 116.5h206q11 -60 46 -86t84 -26zM0 1338z" />
    <glyph glyph-name="uni0306" unicode="&#x306;" horiz-adv-x="0" 
d="M-443 1256q59 0 94.5 41.5t43.5 129.5h203q-3 -73 -25.5 -135t-65 -107t-105 -70t-145.5 -25q-82 0 -145 25t-105.5 70t-65 107t-25.5 135h203q8 -88 43.5 -129.5t94.5 -41.5zM-843 969z" />
    <glyph glyph-name="glyph462" horiz-adv-x="0" 
d="M-498 1568q49 0 84 26t46 86h206q-7 -65 -32 -116.5t-68 -87.5t-102 -55t-134 -19t-134 19t-102 55t-68 87.5t-32 116.5h206q11 -60 46 -86t84 -26zM-898 1338z" />
    <glyph glyph-name="ring" unicode="&#x2da;" horiz-adv-x="800" 
d="M400 1090q-54 0 -100 14t-79 40.5t-52 64.5t-19 86t19 86t52 64.5t79 40.5t100 14t100 -14t79 -40.5t52 -64.5t19 -86t-19 -86t-52 -64.5t-79 -40.5t-100 -14zM400 1387q-43 0 -72 -23.5t-29 -68.5t29 -68.5t72 -23.5t72 23.5t29 68.5t-29 68.5t-72 23.5zM0 969z" />
    <glyph glyph-name="glyph464" horiz-adv-x="800" 
d="M400 1367q-54 0 -100 13t-79 38.5t-52 62t-19 82.5q0 47 19 83t52 61.5t79 38.5t100 13t100 -13t79 -38.5t52 -61.5t19 -83q0 -46 -19 -82.5t-52 -62t-79 -38.5t-100 -13zM400 1648q-43 0 -72 -21.5t-29 -63.5t29 -63.5t72 -21.5t72 21.5t29 63.5t-29 63.5t-72 21.5z
M0 1338z" />
    <glyph glyph-name="uni030A" unicode="&#x30a;" horiz-adv-x="0" 
d="M-471 1090q-54 0 -100 14t-79 40.5t-52 64.5t-19 86t19 86t52 64.5t79 40.5t100 14t100 -14t79 -40.5t52 -64.5t19 -86t-19 -86t-52 -64.5t-79 -40.5t-100 -14zM-471 1387q-43 0 -72 -23.5t-29 -68.5t29 -68.5t72 -23.5t72 23.5t29 68.5t-29 68.5t-72 23.5zM-871 969z
" />
    <glyph glyph-name="glyph466" horiz-adv-x="0" 
d="M-489 1367q-54 0 -100 13t-79 38.5t-52 62t-19 82.5q0 47 19 83t52 61.5t79 38.5t100 13t100 -13t79 -38.5t52 -61.5t19 -83q0 -46 -19 -82.5t-52 -62t-79 -38.5t-100 -13zM-489 1648q-43 0 -72 -21.5t-29 -63.5t29 -63.5t72 -21.5t72 21.5t29 63.5t-29 63.5t-72 21.5z
M-889 1338z" />
    <glyph glyph-name="hungarumlaut" unicode="&#x2dd;" horiz-adv-x="800" 
d="M416 1473l-165 -349h-184l119 349h230zM744 1473l-187 -349h-190l141 349h236zM0 969z" />
    <glyph glyph-name="glyph468" horiz-adv-x="800" 
d="M432 1656l-190 -247h-188l138 247h240zM759 1656l-207 -247h-192l155 247h244zM0 1338z" />
    <glyph glyph-name="uni030B" unicode="&#x30b;" horiz-adv-x="0" 
d="M-408 1473l-165 -349h-184l119 349h230zM-80 1473l-187 -349h-190l141 349h236zM-824 969z" />
    <glyph glyph-name="glyph470" horiz-adv-x="0" 
d="M-421 1656l-190 -247h-188l138 247h240zM-94 1656l-207 -247h-192l155 247h244zM-853 1338z" />
    <glyph glyph-name="dotaccent" unicode="&#x2d9;" horiz-adv-x="800" 
d="M274 1448h249v-257h-249v257zM0 969z" />
    <glyph glyph-name="glyph472" horiz-adv-x="800" 
d="M274 1705h249v-257h-249v257zM0 1338z" />
    <glyph glyph-name="uni0307" unicode="&#x307;" horiz-adv-x="0" 
d="M-601 1448h249v-257h-249v257zM-875 969z" />
    <glyph glyph-name="glyph474" horiz-adv-x="0" 
d="M-618 1705h249v-257h-249v257zM-892 1338z" />
    <glyph glyph-name="cedilla" unicode="&#xb8;" horiz-adv-x="800" 
d="M333 9h150l-35 -127q40 -6 74 -19.5t59 -35t39 -50t14 -63.5q0 -42 -19.5 -79t-58.5 -65t-97 -44t-135 -16q-42 0 -80.5 5.5t-59.5 13.5v146q24 -8 61.5 -12.5t68.5 -4.5q39 0 64.5 6t40.5 15.5t21 20.5t6 22q0 31 -43.5 46t-136.5 17z" />
    <glyph glyph-name="uni0327" unicode="&#x327;" horiz-adv-x="0" 
d="M-445 9h150l-35 -127q40 -6 74 -19.5t59 -35t39 -50t14 -63.5q0 -42 -19.5 -79t-58.5 -65t-97 -44t-135 -16q-42 0 -80.5 5.5t-59.5 13.5v146q24 -8 61.5 -12.5t68.5 -4.5q39 0 64.5 6t40.5 15.5t21 20.5t6 22q0 31 -43.5 46t-136.5 17z" />
    <glyph glyph-name="ogonek" unicode="&#x2db;" horiz-adv-x="800" 
d="M639 29q-46 -33 -88.5 -69.5t-75.5 -74t-52.5 -73.5t-19.5 -67q0 -39 24.5 -54.5t57.5 -15.5q62 0 125 23v-162q-29 -10 -72 -18t-96 -8q-51 0 -94.5 11.5t-75.5 35t-50.5 59t-18.5 83.5q0 85 59.5 169.5t162.5 160.5h214z" />
    <glyph glyph-name="uni0328" unicode="&#x328;" horiz-adv-x="0" 
d="M-97 29q-46 -33 -88.5 -69.5t-75.5 -74t-52.5 -73.5t-19.5 -67q0 -39 24.5 -54.5t57.5 -15.5q62 0 125 23v-162q-29 -10 -72 -18t-96 -8q-51 0 -94.5 11.5t-75.5 35t-50.5 59t-18.5 83.5q0 85 59.5 169.5t162.5 160.5h214z" />
    <glyph glyph-name="uni0326" unicode="&#x326;" horiz-adv-x="800" 
d="M381 -339q0 32 -22 46.5t-57 14.5v169q18 1 35 1q104 0 166 -47t62 -139q0 -48 -20 -99.5t-55 -96.5h-179q30 42 50 80.5t20 70.5z" />
    <glyph glyph-name="uni0312" unicode="&#x312;" horiz-adv-x="0" 
d="M-541 1322q0 -32 22 -46.5t57 -14.5v-169q-15 -1 -29 -1q-107 0 -170.5 45.5t-63.5 134.5q0 51 20 103t55 99h179q-29 -42 -49.5 -80.5t-20.5 -70.5zM0 969z" />
    <glyph glyph-name="comma" unicode="," horiz-adv-x="649" 
d="M202 267h277l-216 -678h-253z" />
    <glyph glyph-name="semicolon" unicode=";" horiz-adv-x="649" 
d="M202 267h277l-216 -678h-253zM193 900h269v-267h-269v267z" />
    <glyph glyph-name="colon" unicode=":" horiz-adv-x="599" 
d="M165 267h269v-267h-269v267zM165 900h269v-267h-269v267z" />
    <glyph glyph-name="period" unicode="." horiz-adv-x="599" 
d="M165 267h269v-267h-269v267z" />
    <glyph glyph-name="ellipsis" unicode="&#x2026;" horiz-adv-x="1797" 
d="M165 267h269v-267h-269v267zM764 267h269v-267h-269v267zM1363 267h269v-267h-269v267z" />
    <glyph glyph-name="hyphen" unicode="-" horiz-adv-x="681" 
d="M120 608h441v-215h-441v215z" />
    <glyph glyph-name="hyphen" unicode="&#x2010;" horiz-adv-x="681" 
d="M120 608h441v-215h-441v215z" />
    <glyph glyph-name="hyphen" unicode="&#xad;" horiz-adv-x="681" 
d="M120 608h441v-215h-441v215z" />
    <glyph glyph-name="hyphen.case" horiz-adv-x="681" 
d="M120 789h441v-215h-441v215z" />
    <glyph glyph-name="exclam" unicode="!" horiz-adv-x="599" 
d="M432 1338l-24 -858h-217l-24 858h265zM165 267h269v-267h-269v267z" />
    <glyph glyph-name="exclamdown" unicode="&#xa1;" horiz-adv-x="599" 
d="M167 -387l24 876h217l24 -876h-265zM165 969h269v-267h-269v267z" />
    <glyph glyph-name="exclamdown.case" horiz-adv-x="599" 
d="M167 0l24 858h217l24 -858h-265zM165 1338h269v-267h-269v267z" />
    <glyph glyph-name="question" unicode="?" horiz-adv-x="920" 
d="M830 1026q0 -59 -13 -102.5t-35 -76t-50.5 -56.5t-59.5 -45l-70 -46t-63 -49.5t-45.5 -64.5t-17.5 -90v-16h-223q-1 9 -1.5 22.5t-0.5 21.5q0 75 19.5 126.5t50 88.5t67.5 63.5t73 49.5l47.5 33.5t39.5 36.5t27 44t10 55q0 67 -49 107.5t-153 40.5q-77 0 -151.5 -19
t-131.5 -45v193q30 14 67.5 26t78 20.5t83 13.5t82.5 5q99 0 177 -23.5t131.5 -67.5t82 -106.5t28.5 -139.5zM235 267h269v-267h-269v267z" />
    <glyph glyph-name="questiondown" unicode="&#xbf;" horiz-adv-x="920" 
d="M684 702h-269v267h269v-267zM89 -89q0 66 16.5 114t43 84t60.5 64t68 53l62 46.5t53 52t37 64.5t14 84v16h223q1 -9 1.5 -22.5t0.5 -21.5q0 -61 -13.5 -108t-36 -83t-51.5 -63t-59 -50l-63.5 -45.5t-56 -45.5t-39.5 -53t-15 -68q0 -67 49 -107.5t153 -40.5q77 0 151.5 19
t131.5 45v-193q-30 -14 -67.5 -26t-78 -20.5t-83 -13.5t-82.5 -5q-99 0 -177 22t-131.5 63.5t-82 101.5t-28.5 137z" />
    <glyph glyph-name="questiondown.case" horiz-adv-x="920" 
d="M90 312q0 59 13 102.5t35 76t50.5 56.5t59.5 45l70 46t63 49.5t45.5 64.5t17.5 90v16h223q1 -9 1.5 -22.5t0.5 -21.5q0 -75 -19.5 -126.5t-50 -88.5t-67.5 -63.5t-73 -49.5l-47.5 -33.5t-39.5 -36.5t-27 -44t-10 -55q0 -67 49 -107.5t153 -40.5q77 0 151.5 19t131.5 45
v-193q-30 -14 -67.5 -26t-78 -20.5t-83 -13.5t-82.5 -5q-99 0 -177 23.5t-131.5 67.5t-82 106.5t-28.5 139.5zM685 1071h-269v267h269v-267z" />
    <glyph glyph-name="quoteleft" unicode="&#x2018;" horiz-adv-x="497" 
d="M30 1338h213l194 -551h-254z" />
    <glyph glyph-name="quoteright" unicode="&#x2019;" horiz-adv-x="497" 
d="M213 1338h254l-194 -551h-213z" />
    <glyph glyph-name="quoteleft.c2sc" horiz-adv-x="497" 
d="M30 1075h213l194 -551h-254z" />
    <glyph glyph-name="quoteright.c2sc" horiz-adv-x="497" 
d="M213 1075h254l-194 -551h-213z" />
    <glyph glyph-name="quotedblleft" unicode="&#x201c;" horiz-adv-x="932" 
d="M30 1338h213l194 -551h-254zM434 1338h221l217 -551h-262z" />
    <glyph glyph-name="quotedblright" unicode="&#x201d;" horiz-adv-x="932" 
d="M213 1338h254l-194 -551h-213zM640 1338h262l-217 -551h-221z" />
    <glyph glyph-name="quotedblleft.c2sc" horiz-adv-x="932" 
d="M30 1075h213l194 -551h-254zM434 1075h221l217 -551h-262z" />
    <glyph glyph-name="quotedblright.c2sc" horiz-adv-x="932" 
d="M213 1075h254l-194 -551h-213zM640 1075h262l-217 -551h-221z" />
    <glyph glyph-name="quotesinglbase" unicode="&#x201a;" horiz-adv-x="497" 
d="M187 252h254l-194 -551h-213z" />
    <glyph glyph-name="quotedblbase" unicode="&#x201e;" horiz-adv-x="932" 
d="M187 252h254l-194 -551h-213zM614 252h262l-217 -551h-221z" />
    <glyph glyph-name="guilsinglleft" unicode="&#x2039;" horiz-adv-x="610" 
d="M75 474l247 386h203l-199 -386l199 -386h-203z" />
    <glyph glyph-name="guilsinglright" unicode="&#x203a;" horiz-adv-x="610" 
d="M288 88h-203l199 386l-199 386h203l247 -386z" />
    <glyph glyph-name="guilsinglleft.case" horiz-adv-x="610" 
d="M75 680l247 386h203l-199 -386l199 -386h-203z" />
    <glyph glyph-name="guilsinglright.case" horiz-adv-x="610" 
d="M288 294h-203l199 386l-199 386h203l247 -386z" />
    <glyph glyph-name="guillemotleft" unicode="&#xab;" horiz-adv-x="1052" 
d="M75 474l286 386h203l-238 -386l238 -386h-203zM517 474l247 386h203l-199 -386l199 -386h-203z" />
    <glyph glyph-name="guillemotright" unicode="&#xbb;" horiz-adv-x="1052" 
d="M691 88h-203l238 386l-238 386h203l286 -386zM288 88h-203l199 386l-199 386h203l247 -386z" />
    <glyph glyph-name="guillemotleft.case" horiz-adv-x="1052" 
d="M75 680l286 386h203l-238 -386l238 -386h-203zM517 680l247 386h203l-199 -386l199 -386h-203z" />
    <glyph glyph-name="guillemotright.case" horiz-adv-x="1052" 
d="M691 294h-203l238 386l-238 386h203l286 -386zM288 294h-203l199 386l-199 386h203l247 -386z" />
    <glyph glyph-name="slash" unicode="/" horiz-adv-x="603" 
d="M8 -249l380 1587h208l-380 -1587h-208z" />
    <glyph glyph-name="bar" unicode="|" horiz-adv-x="485" 
d="M345 -465h-205v1913h205v-1913z" />
    <glyph glyph-name="endash" unicode="&#x2013;" horiz-adv-x="1000" 
d="M0 588h1000v-185h-1000v185z" />
    <glyph glyph-name="endash.case" horiz-adv-x="1000" 
d="M0 777h1000v-185h-1000v185z" />
    <glyph glyph-name="emdash" unicode="&#x2014;" horiz-adv-x="1700" 
d="M0 588h1700v-185h-1700v185z" />
    <glyph glyph-name="emdash.case" horiz-adv-x="1700" 
d="M0 777h1700v-185h-1700v185z" />
    <glyph glyph-name="afii00208" unicode="&#x2015;" horiz-adv-x="1700" 
d="M0 588h1700v-185h-1700v185z" />
    <glyph glyph-name="afii00208.case" horiz-adv-x="1700" 
d="M0 777h1700v-185h-1700v185z" />
    <glyph glyph-name="bullet" unicode="&#x2022;" horiz-adv-x="908" 
d="M140 667q0 67 24 124.5t66 99.5t99.5 66t124.5 24t124.5 -24t99.5 -66t66 -99.5t24 -124.5t-24 -124.5t-66 -99.5t-99.5 -66t-124.5 -24t-124.5 24t-99.5 66t-66 99.5t-24 124.5z" />
    <glyph glyph-name="periodcentered" unicode="&#xb7;" horiz-adv-x="599" 
d="M165 625h269v-267h-269v267z" />
    <glyph glyph-name="periodcentered" unicode="&#x2219;" horiz-adv-x="599" 
d="M165 625h269v-267h-269v267z" />
    <glyph glyph-name="periodcentered.case" horiz-adv-x="599" 
d="M165 855h269v-267h-269v267z" />
    <glyph glyph-name="parenleft" unicode="(" horiz-adv-x="626" 
d="M100 519q0 113 18 212.5t47.5 186t67.5 159t78 130t78.5 99.5t68.5 68l128 -118q-54 -59 -103 -132t-86.5 -163.5t-59.5 -200t-22 -241.5t22 -241.5t59.5 -200t86.5 -163.5t103 -132l-128 -118q-30 26 -68.5 68t-78.5 99.5t-78 130t-67.5 159t-47.5 186.5t-18 212z" />
    <glyph glyph-name="parenright" unicode=")" horiz-adv-x="626" 
d="M526 519q0 -112 -18 -212t-47.5 -186.5t-67.5 -159t-78 -130t-78 -99.5t-69 -68l-128 118q54 59 103 132t86.5 163.5t59.5 200t22 241.5t-22 241.5t-59.5 200t-86.5 163.5t-103 132l128 118q30 -26 68.5 -68t78.5 -99.5t78 -130t67.5 -159t47.5 -186t18 -212.5z" />
    <glyph glyph-name="parenleft.case" horiz-adv-x="626" 
d="M100 670q0 113 18 212.5t47.5 186t67.5 159t78 130t78.5 99.5t68.5 68l128 -118q-54 -59 -103 -132t-86.5 -163.5t-59.5 -200t-22 -241.5t22 -241.5t59.5 -200t86.5 -163.5t103 -132l-128 -118q-30 26 -68.5 68t-78.5 99.5t-78 130t-67.5 159t-47.5 186.5t-18 212z" />
    <glyph glyph-name="parenright.case" horiz-adv-x="626" 
d="M526 670q0 -112 -18 -212t-47.5 -186.5t-67.5 -159t-78 -130t-78 -99.5t-69 -68l-128 118q54 59 103 132t86.5 163.5t59.5 200t22 241.5t-22 241.5t-59.5 200t-86.5 163.5t-103 132l128 118q30 -26 68.5 -68t78.5 -99.5t78 -130t67.5 -159t47.5 -186t18 -212.5z" />
    <glyph glyph-name="bracketleft" unicode="[" horiz-adv-x="646" 
d="M140 1338h446v-173h-241v-1291h241v-174h-446v1638z" />
    <glyph glyph-name="bracketright" unicode="]" horiz-adv-x="646" 
d="M506 -300h-446v174h241v1291h-241v173h446v-1638z" />
    <glyph glyph-name="bracketleft.case" horiz-adv-x="646" 
d="M140 1488h446v-173h-241v-1289h241v-174h-446v1636z" />
    <glyph glyph-name="bracketright.case" horiz-adv-x="646" 
d="M506 -148h-446v174h241v1289h-241v173h446v-1636z" />
    <glyph glyph-name="braceleft" unicode="{" horiz-adv-x="625" 
d="M303 517q14 -3 39 -17t49 -39.5t41.5 -63t17.5 -88.5t-12.5 -92.5t-29.5 -76.5l-40 -83t-19 -78q0 -70 51.5 -100.5t151.5 -30.5h28v-173h-58q-91 0 -163.5 19.5t-122 56t-76 89t-26.5 117.5q0 32 6.5 60t17 54t23.5 50l26 48q18 35 32 71.5t14 79.5q0 34 -9.5 57
t-30 36.5t-53.5 19t-80 5.5v162q47 0 80 5.5t53.5 19t30 36.5t9.5 57q0 47 -17.5 89t-39.5 83q-23 43 -42.5 89t-19.5 102q0 65 26.5 117.5t76 89t122 56t163.5 19.5h58v-173h-28q-103 0 -153 -31t-50 -100q0 -31 11.5 -60t27.5 -61l22 -44t20 -48.5t14.5 -54.5t5.5 -62
q0 -51 -17.5 -88.5t-41.5 -63t-49 -39.5t-39 -17v-4z" />
    <glyph glyph-name="braceright" unicode="}" horiz-adv-x="625" 
d="M322 521q-14 3 -39 17t-49 39.5t-41.5 63t-17.5 88.5q0 33 5.5 62t14.5 54.5t20 48.5l22 44q16 32 27.5 61t11.5 60q0 69 -50 100t-153 31h-28v173h58q91 0 163.5 -19.5t122 -56t76 -89t26.5 -117.5q0 -56 -19.5 -102t-42.5 -89q-22 -41 -39.5 -83t-17.5 -89
q0 -34 9.5 -57t30 -36.5t53.5 -19t80 -5.5v-162q-47 0 -80 -5.5t-53.5 -19t-30 -36.5t-9.5 -57q0 -43 14 -79.5t32 -71.5l26 -48t23.5 -50t17 -54t6.5 -60q0 -65 -26.5 -117.5t-76 -89t-122 -56t-163.5 -19.5h-58v173h28q100 0 151.5 30.5t51.5 100.5q0 39 -19 78l-40 83
q-17 35 -29.5 76.5t-12.5 92.5t17.5 88.5t41.5 63t49 39.5t39 17v4z" />
    <glyph glyph-name="braceleft.case" horiz-adv-x="625" 
d="M303 667q14 -3 39 -17t49 -39.5t41.5 -63t17.5 -88.5t-12.5 -92.5t-29.5 -76.5l-40 -83t-19 -78q0 -70 51.5 -100.5t151.5 -30.5h28v-173h-58q-91 0 -163.5 19.5t-122 56t-76 89t-26.5 117.5q0 32 6.5 60t17 54t23.5 50l26 48q18 35 32 71.5t14 79.5q0 34 -9.5 57
t-30 36.5t-53.5 19t-80 5.5v162q47 0 80 5.5t53.5 19t30 36.5t9.5 57q0 47 -17.5 89t-39.5 83q-23 43 -42.5 89t-19.5 102q0 65 26.5 117.5t76 89t122 56t163.5 19.5h58v-173h-28q-103 0 -153 -31t-50 -100q0 -31 11.5 -60t27.5 -61l22 -44t20 -48.5t14.5 -54.5t5.5 -62
q0 -51 -17.5 -88.5t-41.5 -63t-49 -39.5t-39 -17v-4z" />
    <glyph glyph-name="braceright.case" horiz-adv-x="625" 
d="M322 671q-14 3 -39 17t-49 39.5t-41.5 63t-17.5 88.5q0 33 5.5 62t14.5 54.5t20 48.5l22 44q16 32 27.5 61t11.5 60q0 69 -50 100t-153 31h-28v173h58q91 0 163.5 -19.5t122 -56t76 -89t26.5 -117.5q0 -56 -19.5 -102t-42.5 -89q-22 -41 -39.5 -83t-17.5 -89
q0 -34 9.5 -57t30 -36.5t53.5 -19t80 -5.5v-162q-47 0 -80 -5.5t-53.5 -19t-30 -36.5t-9.5 -57q0 -43 14 -79.5t32 -71.5l26 -48t23.5 -50t17 -54t6.5 -60q0 -65 -26.5 -117.5t-76 -89t-122 -56t-163.5 -19.5h-58v173h28q100 0 151.5 30.5t51.5 100.5q0 39 -19 78l-40 83
q-17 35 -29.5 76.5t-12.5 92.5t17.5 88.5t41.5 63t49 39.5t39 17v4z" />
    <glyph glyph-name="asterisk" unicode="*" horiz-adv-x="1081" 
d="M593 962l158 100l171 59l59 -180l-171 -58l-188 -13l-1 -5l144 -120l114 -157l-153 -112l-113 158l-69 175h-7l-69 -175l-113 -158l-153 112l114 157l144 120l-1 5l-188 13l-171 58l59 180l171 -59l158 -100l4 4l-46 182v190h189v-190l-46 -182z" />
    <glyph glyph-name="dagger" unicode="&#x2020;" horiz-adv-x="971" 
d="M580 1148l-46 -182l4 -4l166 45h167v-177h-167l-166 45l-4 -4l46 -182l-44 -560h-101l-44 560l46 182l-4 4l-166 -45h-167v177h167l166 -45l4 4l-46 182v190h189v-190z" />
    <glyph glyph-name="daggerdbl" unicode="&#x2021;" horiz-adv-x="971" 
d="M580 649l-46 -182l4 -4l166 45h167v-177h-167l-166 45l-4 -4l46 -182v-190h-189v190l46 182l-4 4l-166 -45h-167v177h167l166 -45l4 4l-46 182v40l46 182l-4 4l-166 -45h-167v177h167l166 -45l4 4l-46 182v190h189v-190l-46 -182l4 -4l166 45h167v-177h-167l-166 45
l-4 -4l46 -182v-40z" />
    <glyph glyph-name="section" unicode="&#xa7;" horiz-adv-x="920" 
d="M815 92q0 -113 -30 -206t-87 -159.5t-139 -103t-186 -36.5q-79 0 -153.5 15t-129.5 38v200q60 -23 126 -38t119 -15q73 0 110.5 35t37.5 97q0 45 -20.5 93t-52.5 101t-72.5 112t-79.5 125q-30 52 -58 109t-49 120t-33.5 132.5t-12.5 146.5q0 113 30.5 206t87.5 159.5
t139 103t185 36.5q79 0 153.5 -15t129.5 -38v-200q-60 23 -126 38t-119 15q-73 0 -110.5 -35t-37.5 -97q0 -42 18 -87t47.5 -94t66.5 -103t74 -115q33 -54 64 -114t55 -127t38.5 -141.5t14.5 -157.5zM255 884q0 -63 12 -121t32 -112.5t46 -106t55 -101.5l77.5 -129
t71.5 -125.5t52 -125.5t20 -128q0 -34 -6 -68h14q20 40 28 92.5t8 106.5q0 64 -12.5 123.5t-33 115.5t-47.5 108.5t-57 103.5l-76.5 126.5t-69.5 123t-50.5 123t-19.5 125.5q0 34 6 68h-14q-20 -40 -28 -92.5t-8 -106.5z" />
    <glyph glyph-name="paragraph" unicode="&#xb6;" horiz-adv-x="1224" 
d="M498 -387v708q-91 18 -165 62t-127 109t-82 149t-29 183q0 114 38.5 208.5t108 162.5t165.5 105.5t228 37.5h429v-1725h-195v1538h-176v-1538h-195z" />
    <glyph glyph-name="Alpha" unicode="&#x391;" horiz-adv-x="1346" 
d="M926 341h-504l-131 -341h-261l531 1338h224l531 -1338h-259zM672 1016q-70 -210 -125 -351l-46 -119h346l-46 119q-55 142 -125 351h-4z" />
    <glyph glyph-name="Beta" unicode="&#x392;" horiz-adv-x="1276" 
d="M1129 982q0 -87 -39 -159.5t-129 -120.5v-4q50 -17 91.5 -43.5t71 -63t46 -82.5t16.5 -103q0 -49 -15.5 -105t-54.5 -108.5t-104 -96.5t-164 -70q-25 -6 -54.5 -11t-65.5 -8.5t-80 -5t-99 -1.5h-389v1338h465q149 0 240 -30q68 -22 118 -57.5t82.5 -79t48 -92t15.5 -97.5
zM405 582v-377h160q64 0 110 3.5t79 11.5q51 11 85 29.5t55 42t30 52t9 60.5q0 56 -31 98t-97 63q-29 9 -68 13t-100 4h-232zM626 787q100 0 149 20q55 23 78.5 63.5t23.5 91.5q0 53 -27 94.5t-92 61.5q-27 8 -63 11.5t-89 3.5h-201v-346h221z" />
    <glyph glyph-name="Gamma" unicode="&#x393;" horiz-adv-x="1116" 
d="M160 0v1338h906v-205h-661v-1133h-245z" />
    <glyph glyph-name="Delta" unicode="&#x394;" horiz-adv-x="1318" 
d="M60 159l484 1179h230l484 -1179v-159h-1198v159zM658 1025q-59 -169 -131 -350l-188 -470h642l-188 470q-72 181 -131 350h-4z" />
    <glyph glyph-name="Epsilon" unicode="&#x395;" horiz-adv-x="1163" 
d="M405 205h658v-205h-903v1338h867v-205h-622v-346h534v-205h-534v-377z" />
    <glyph glyph-name="Zeta" unicode="&#x396;" horiz-adv-x="1231" 
d="M1132 1338v-133l-716 -1000h725v-205h-1051v132l717 1001h-699v205h1024z" />
    <glyph glyph-name="Eta" unicode="&#x397;" horiz-adv-x="1430" 
d="M405 787h620v551h245v-1338h-245v582h-620v-582h-245v1338h245v-551z" />
    <glyph glyph-name="Theta" unicode="&#x398;" horiz-adv-x="1504" 
d="M1151 669q0 122 -30 213.5t-83 152.5t-126 91t-160 30t-160 -30t-126 -91t-83 -152.5t-30 -213.5t30 -213.5t83 -152t126 -91t160 -30.5t160 30.5t126 91t83 152t30 213.5zM1404 669q0 -153 -43.5 -280.5t-127 -219.5t-205 -143t-276.5 -51t-276.5 51t-205 143
t-127 219.5t-43.5 280.5t43.5 280.5t127 219.5t205 143t276.5 51t276.5 -51t205 -143t127 -219.5t43.5 -280.5zM473 787h558v-205h-558v205z" />
    <glyph glyph-name="Iota" unicode="&#x399;" horiz-adv-x="565" 
d="M160 0v1338h245v-1338h-245z" />
    <glyph glyph-name="Kappa" unicode="&#x39a;" horiz-adv-x="1294" 
d="M160 0v1338h245v-609h4l505 609h304l-558 -663l604 -675h-314l-541 604h-4v-604h-245z" />
    <glyph glyph-name="Lambda" unicode="&#x39b;" horiz-adv-x="1326" 
d="M662 1011q-36 -111 -123 -346l-248 -665h-261l523 1338h220l523 -1338h-259l-248 665q-86 235 -123 346h-4z" />
    <glyph glyph-name="Mu" unicode="&#x39c;" horiz-adv-x="1692" 
d="M848 359q44 158 109 339l231 640h344v-1338h-245v678q0 149 12 346h-9l-40 -128t-48 -140l-277 -756h-158l-277 756q-25 69 -48 140l-40 128h-9q12 -185 12 -345v-679h-245v1338h342l231 -637q58 -159 109 -342h6z" />
    <glyph glyph-name="Nu" unicode="&#x39d;" horiz-adv-x="1490" 
d="M857 716q144 -205 234 -364h6q-12 261 -12 380v606h245v-1338h-257l-436 616q-115 160 -238 371h-6q12 -246 12 -381v-606h-245v1338h257z" />
    <glyph glyph-name="Xi" unicode="&#x39e;" horiz-adv-x="1221" 
d="M125 1338h971v-205h-971v205zM196 787h829v-205h-829v205zM90 205h1041v-205h-1041v205z" />
    <glyph glyph-name="Omicron" unicode="&#x39f;" horiz-adv-x="1504" 
d="M1151 669q0 122 -30 213.5t-83 152.5t-126 91t-160 30t-160 -30t-126 -91t-83 -152.5t-30 -213.5t30 -213.5t83 -152t126 -91t160 -30.5t160 30.5t126 91t83 152t30 213.5zM1404 669q0 -153 -43.5 -280.5t-127 -219.5t-205 -143t-276.5 -51t-276.5 51t-205 143
t-127 219.5t-43.5 280.5t43.5 280.5t127 219.5t205 143t276.5 51t276.5 -51t205 -143t127 -219.5t43.5 -280.5z" />
    <glyph glyph-name="Pi" unicode="&#x3a0;" horiz-adv-x="1391" 
d="M1231 1338v-1338h-245v1133h-581v-1133h-245v1338h1071z" />
    <glyph glyph-name="Rho" unicode="&#x3a1;" horiz-adv-x="1230" 
d="M530 518q-33 0 -65 1t-60 4v-523h-245v1338h386q97 0 169.5 -8.5t129.5 -25.5q137 -42 211 -134t74 -234q0 -97 -40 -174.5t-117 -131.5t-188 -83t-255 -29zM405 729q21 -3 53.5 -4.5t67.5 -1.5q99 0 166 16t108 44.5t59 69t18 88.5q0 59 -27 102t-94 67
q-35 12 -86.5 17.5t-126.5 5.5h-138v-404z" />
    <glyph glyph-name="Sigma" unicode="&#x3a3;" horiz-adv-x="1234" 
d="M899 713l-351 -372q-98 -104 -143 -139v-4q153 7 254 7h475v-205h-1044v159l524 550l-477 470v159h990v-205h-425q-121 0 -235 6v-4q60 -47 141 -130z" />
    <glyph glyph-name="Tau" unicode="&#x3a4;" horiz-adv-x="1168" 
d="M707 0h-245v1133h-432v205h1108v-205h-431v-1133z" />
    <glyph glyph-name="Upsilon" unicode="&#x3a5;" horiz-adv-x="1275" 
d="M639 702q41 136 118 292.5t201 343.5h287q-109 -140 -187.5 -258.5t-132.5 -220.5t-86.5 -189.5t-50 -165t-23 -146.5t-5.5 -135v-223h-245v223q0 66 -5.5 135t-23 146.5t-50 165t-86.5 189.5t-132.5 220.5t-187.5 258.5h287q124 -187 201 -343.5t117 -292.5h4z" />
    <glyph glyph-name="Phi" unicode="&#x3a6;" horiz-adv-x="1615" 
d="M930 -77h-245v148q-140 16 -249 68t-183.5 132t-113.5 184t-39 224t40 224.5t115 185t183.5 132.5t246.5 67v147h245v-147q138 -15 246.5 -67t183.5 -132.5t115 -185t40 -224.5t-39 -224t-113.5 -184t-183.5 -132t-249 -68v-148zM349 679q0 -92 25 -163t70 -121.5
t106.5 -81t134.5 -41.5v815q-73 -10 -134.5 -41t-106.5 -82t-70 -122t-25 -163zM1266 679q0 92 -25 163t-70 122t-106.5 82t-134.5 41v-815q73 11 134.5 41.5t106.5 81t70 121.5t25 163z" />
    <glyph glyph-name="Chi" unicode="&#x3a7;" horiz-adv-x="1302" 
d="M513 1063q97 -141 136 -202h5l135 201l191 276h282l-466 -658l486 -680h-278l-209 299l-142 208h-4l-142 -208l-209 -299h-278l486 680l-466 658h282z" />
    <glyph glyph-name="Psi" unicode="&#x3a8;" horiz-adv-x="1511" 
d="M878 600q79 6 133.5 37.5t89 101t50 184.5t15.5 289q0 30 -0.5 61t-1.5 65h243q2 -43 3 -83t1 -78q0 -202 -28 -347.5t-91.5 -241.5t-165 -145.5t-248.5 -59.5v-383h-245v383q-147 10 -248.5 59.5t-165 145.5t-91.5 241.5t-28 347.5q0 38 1 78t3 83h243q-1 -34 -1.5 -65
t-0.5 -61q0 -174 15.5 -289t50 -184.5t89 -101t133.5 -37.5v738h245v-738z" />
    <glyph glyph-name="Omega" unicode="&#x3a9;" horiz-adv-x="1554" 
d="M777 1156q-80 0 -152 -24.5t-127 -75.5t-87 -129.5t-32 -186.5q0 -99 26.5 -184.5t68.5 -158t93.5 -134t100.5 -113.5v-150h-548v205h82q71 0 119.5 -2t79.5 -4v4q-53 41 -102.5 97.5t-88 126.5t-61.5 151.5t-23 171.5q0 131 44.5 243t128 194.5t204.5 129t274 46.5
t274 -46.5t204.5 -127.5t128 -190t44.5 -235q0 -95 -22.5 -178t-60 -153.5t-87.5 -128t-105 -101.5v-4q31 2 79.5 4t119.5 2h82v-205h-548v150q50 52 101 113.5t93 134t68.5 158t26.5 184.5q0 108 -32 186.5t-87 129.5t-127 75.5t-152 24.5z" />
    <glyph glyph-name="Alphatonos" unicode="&#x386;" horiz-adv-x="1346" 
d="M361 1338l-106 -379h-202l87 379h221zM926 341h-504l-131 -341h-261l531 1338h224l531 -1338h-259zM672 1016q-70 -210 -125 -351l-46 -119h346l-46 119q-55 142 -125 351h-4z" />
    <glyph glyph-name="Epsilontonos" unicode="&#x388;" horiz-adv-x="1395" 
d="M308 1338l-106 -379h-202l87 379h221zM637 205h658v-205h-903v1338h867v-205h-622v-346h534v-205h-534v-377z" />
    <glyph glyph-name="Etatonos" unicode="&#x389;" horiz-adv-x="1662" 
d="M308 1338l-106 -379h-202l87 379h221zM637 787h620v551h245v-1338h-245v582h-620v-582h-245v1338h245v-551z" />
    <glyph glyph-name="Iotatonos" unicode="&#x38a;" horiz-adv-x="797" 
d="M308 1338l-106 -379h-202l87 379h221zM392 0v1338h245v-1338h-245z" />
    <glyph glyph-name="Iotadieresis" unicode="&#x3aa;" horiz-adv-x="565" 
d="M160 0v1338h245v-1338h-245zM-13 1673h224v-225h-224v225zM399 1673h224v-225h-224v225zM-95 1338z" />
    <glyph glyph-name="Omicrontonos" unicode="&#x38c;" horiz-adv-x="1701" 
d="M308 1338l-106 -379h-202l87 379h221zM1348 669q0 122 -30 213.5t-83 152.5t-126 91t-160 30t-160 -30t-126 -91t-83 -152.5t-30 -213.5t30 -213.5t83 -152t126 -91t160 -30.5t160 30.5t126 91t83 152t30 213.5zM1601 669q0 -153 -43.5 -280.5t-127 -219.5t-205 -143
t-276.5 -51t-276.5 51t-205 143t-127 219.5t-43.5 280.5t43.5 280.5t127 219.5t205 143t276.5 51t276.5 -51t205 -143t127 -219.5t43.5 -280.5z" />
    <glyph glyph-name="Upsilontonos" unicode="&#x38e;" horiz-adv-x="1596" 
d="M308 1338l-106 -379h-202l87 379h221zM960 702q41 136 118 292.5t201 343.5h287q-109 -140 -187.5 -258.5t-132.5 -220.5t-86.5 -189.5t-50 -165t-23 -146.5t-5.5 -135v-223h-245v223q0 66 -5.5 135t-23 146.5t-50 165t-86.5 189.5t-132.5 220.5t-187.5 258.5h287
q124 -187 201 -343.5t117 -292.5h4z" />
    <glyph glyph-name="Upsilondieresis" unicode="&#x3ab;" horiz-adv-x="1275" 
d="M639 702q41 136 118 292.5t201 343.5h287q-109 -140 -187.5 -258.5t-132.5 -220.5t-86.5 -189.5t-50 -165t-23 -146.5t-5.5 -135v-223h-245v223q0 66 -5.5 135t-23 146.5t-50 165t-86.5 189.5t-132.5 220.5t-187.5 258.5h287q124 -187 201 -343.5t117 -292.5h4zM335 1673
h224v-225h-224v225zM747 1673h224v-225h-224v225zM253 1338z" />
    <glyph glyph-name="Omegatonos" unicode="&#x38f;" horiz-adv-x="1741" 
d="M308 1338l-106 -379h-202l87 379h221zM964 1156q-80 0 -152 -24.5t-127 -75.5t-87 -129.5t-32 -186.5q0 -99 26.5 -184.5t68.5 -158t93.5 -134t100.5 -113.5v-150h-548v205h82q71 0 119.5 -2t79.5 -4v4q-53 41 -102.5 97.5t-88 126.5t-61.5 151.5t-23 171.5
q0 131 44.5 243t128 194.5t204.5 129t274 46.5t274 -46.5t204.5 -127.5t128 -190t44.5 -235q0 -95 -22.5 -178t-60 -153.5t-87.5 -128t-105 -101.5v-4q31 2 79.5 4t119.5 2h82v-205h-548v150q50 52 101 113.5t93 134t68.5 158t26.5 184.5q0 108 -32 186.5t-87 129.5
t-127 75.5t-152 24.5z" />
    <glyph glyph-name="alpha" unicode="&#x3b1;" horiz-adv-x="1195" 
d="M1106 969l-45 -100.5l-52.5 -124t-51 -132.5t-41.5 -127q9 -84 21 -141t31 -91.5t46 -49.5t64 -15q40 0 72 8v-197q-23 -6 -53.5 -9.5t-59.5 -3.5q-50 0 -91.5 17.5t-72.5 48t-51.5 72t-29.5 88.5h-4q-20 -48 -51 -91.5t-72.5 -75.5t-93.5 -51t-114 -19q-80 0 -149 32
t-119.5 94.5t-79.5 155t-29 212.5q0 130 32 228t86.5 164t127 99t154.5 33q122 0 204 -65t118 -184h4q20 81 39.5 142t27.5 83h233zM497 174q50 0 88.5 32t66.5 80.5t44.5 107t23.5 111.5q-12 52 -31 103.5t-45.5 93t-60.5 67t-76 25.5q-40 0 -73.5 -20.5t-57.5 -60
t-37.5 -98.5t-13.5 -137q0 -53 9 -107t29.5 -98t53.5 -71.5t80 -27.5z" />
    <glyph glyph-name="beta" unicode="&#x3b2;" horiz-adv-x="1177" 
d="M1007 1085q0 -48 -10.5 -94t-31.5 -86t-54 -72.5t-78 -53.5v-4q123 -37 186 -129.5t63 -224.5q0 -94 -30 -175.5t-86.5 -142t-137.5 -94.5t-179 -34q-73 0 -138 21t-125 74h-4q2 -67 2.5 -108.5t0.5 -101.5v-325h-235v1487q0 66 6 112.5t20 84.5q23 63 62.5 110.5
t91.5 79.5t114.5 48t132.5 16q90 0 168.5 -25.5t136.5 -75t91.5 -122t33.5 -165.5zM501 861q17 -3 35.5 -4t35.5 -1q55 0 91.5 19t58.5 51t31 73.5t9 85.5q0 43 -12.5 78.5t-36 61t-57.5 40t-78 14.5q-30 0 -58 -7.5t-52 -23.5t-42 -41.5t-29 -62.5q-6 -21 -9 -49t-3 -68
v-761q48 -46 102 -69.5t118 -23.5q61 0 105 18.5t72 51t41.5 77t13.5 95.5q0 66 -18.5 113.5t-52.5 77.5t-80.5 44t-103.5 14q-15 0 -36 -1t-45 -4v202z" />
    <glyph glyph-name="beta.salt" horiz-adv-x="1119" 
d="M632 1279q-54 0 -105 -44.5t-91.5 -123.5t-67.5 -186t-35 -233h4q182 104 283 222t101 254q0 22 -5 42t-15.5 35.5t-27.5 24.5t-41 9zM781 409q0 51 -11.5 90.5t-31 69.5t-45 51.5t-52.5 36.5q-70 -53 -141 -94.5l-155 -86.5q3 -63 16 -119t39.5 -98t68 -66.5t99.5 -24.5
q49 0 88.5 19t67 51.5t42.5 76.5t15 94zM960 1173q0 -50 -12 -99t-33.5 -95t-51 -88.5t-65.5 -79.5v-4q109 -51 170 -149t61 -238q0 -97 -32.5 -178.5t-93 -141t-146.5 -92.5t-192 -33q-125 0 -213.5 43t-144.5 123t-81.5 193t-25.5 253q0 109 15.5 217t46 206.5t77 183
t109 146.5t141 97.5t173.5 35.5q74 0 130 -22t93.5 -61.5t56 -94.5t18.5 -122z" />
    <glyph glyph-name="gamma" unicode="&#x3b3;" horiz-adv-x="1073" 
d="M341 -465q28 166 28 302q0 141 -28 290t-75 296t-108 286t-128 260h259q41 -68 82.5 -161.5t77 -195t61.5 -203.5t35 -188h4q36 71 71.5 157t66.5 182t56 199.5t40 209.5h250q-23 -150 -69 -297.5t-104.5 -284t-124 -258t-128.5 -218.5q10 -168 10 -295v-81h-276z" />
    <glyph glyph-name="delta" unicode="&#x3b4;" horiz-adv-x="1132" 
d="M807 443q0 56 -14 104.5t-38 91.5t-56.5 81.5t-70.5 72.5q-63 -22 -118.5 -52.5t-97 -74t-65 -101.5t-23.5 -134q0 -55 17.5 -103t48.5 -83.5t75 -55.5t96 -20q116 0 181 70t65 204zM509 1221q0 -28 26 -58.5t67.5 -65.5t94 -75.5t105.5 -89.5q48 -44 93 -95t80 -111.5
t56 -130.5t21 -152q0 -103 -36 -189.5t-101.5 -148t-157.5 -96t-205 -34.5q-106 0 -193 33.5t-149 93t-96 142.5t-34 182q0 95 30.5 173.5t83 141t121.5 109.5t147 79v4q-41 31 -76 65t-60.5 71.5t-40 78t-14.5 84.5q0 55 22.5 99.5t64 76t99.5 48.5t130 17q59 0 119 -7.5
t117 -19.5t110 -27t98 -31v-204q-115 42 -222 70.5t-198 28.5q-57 0 -79.5 -18.5t-22.5 -43.5z" />
    <glyph glyph-name="epsilon" unicode="&#x3b5;" horiz-adv-x="984" 
d="M757 399q-39 3 -97.5 6t-118.5 3q-200 0 -200 -115q0 -58 49 -92t149 -34q98 0 196 24.5t179 59.5v-194q-33 -16 -78.5 -31t-98 -26t-110 -18t-113.5 -7q-106 0 -185 22.5t-131 62.5t-77.5 94.5t-25.5 118.5q0 88 49 146t129 84v4q-65 23 -105.5 75.5t-40.5 128.5
q0 63 29.5 115t84 89t131.5 57.5t172 20.5q79 0 168 -11.5t167 -31.5v-190q-94 22 -171 31.5t-138 9.5q-95 0 -146 -29t-51 -82q0 -21 8 -39.5t28.5 -33t55 -23t89.5 -8.5q46 0 91 1.5t112 8.5v-197z" />
    <glyph glyph-name="zeta" unicode="&#x3b6;" horiz-adv-x="950" 
d="M930 1312q-119 -72 -228.5 -164t-193.5 -194.5t-134 -217t-50 -227.5q0 -74 25 -121.5t65.5 -77t95 -48t111.5 -33.5q60 -15 118 -32t104 -46.5t74 -77.5t28 -126q0 -70 -32.5 -163t-91.5 -185h-251q64 96 94.5 168.5t30.5 120.5q0 41 -26.5 67t-71 42.5t-99.5 29.5
t-115 32q-57 18 -111.5 47t-97 77t-68.5 119.5t-26 176.5q0 122 39.5 234t112.5 212.5t176.5 188.5t230.5 163v4q-210 -38 -451 -56v205q137 0 360 11t382 33v-162z" />
    <glyph glyph-name="eta" unicode="&#x3b7;" horiz-adv-x="1202" 
d="M167 984q92 0 143.5 -38.5t71.5 -118.5h4q25 32 57.5 62t73.5 53t92 37t112 14q38 0 81.5 -7.5t84.5 -27.5t76.5 -54.5t58.5 -88.5q15 -35 22.5 -84t7.5 -118v-1078h-237v1049q0 42 -3.5 72.5t-11.5 50.5q-19 47 -57.5 67t-89.5 20q-65 0 -128.5 -39.5t-115.5 -111.5
v-643h-237v712q0 36 -14.5 54.5t-50.5 18.5q-25 0 -67 -9v191q72 17 127 17z" />
    <glyph glyph-name="theta" unicode="&#x3b8;" horiz-adv-x="1170" 
d="M1070 733q0 -188 -32.5 -330t-94.5 -237t-152 -143t-205 -48q-118 0 -209 44.5t-152.5 136t-93 230.5t-31.5 328q0 188 32.5 330t94.5 237.5t152 143.5t205 48q118 0 209 -45t152.5 -136.5t93 -230.5t31.5 -328zM585 169q112 0 171 117t66 361h-475q5 -249 64 -363.5
t174 -114.5zM585 1279q-107 0 -166 -107t-70 -330h472q-4 114 -21 197t-46.5 136t-71.5 78.5t-97 25.5z" />
    <glyph glyph-name="theta.salt" horiz-adv-x="1126" 
d="M88 488q-19 0 -48 -9v199q71 17 127 17q93 0 145 -44.5t52 -136.5q0 -50 -1.5 -90.5t-1.5 -85.5q0 -82 41 -125.5t118 -43.5q70 0 118.5 33t79.5 97.5t45 161.5t15 224q-169 12 -290.5 44.5t-199.5 86.5t-115 128.5t-37 170.5q0 69 24 134t72.5 114.5t121 79.5t168.5 30
q110 0 202 -42t159.5 -133t105 -236.5t37.5 -339.5q0 -201 -33 -342.5t-98.5 -231.5t-162 -131.5t-224.5 -41.5q-100 0 -172.5 26t-118.5 71t-68 106t-22 131q0 18 1 37.5t1.5 37t1.5 32.5t1 24q0 24 -12 36t-32 12zM768 877q-7 105 -28 180.5t-52.5 125t-71.5 73t-87 23.5
q-37 0 -66.5 -12.5t-49 -34t-30 -51t-10.5 -62.5q0 -57 25.5 -99t74.5 -71t123.5 -47t171.5 -25z" />
    <glyph glyph-name="iota" unicode="&#x3b9;" horiz-adv-x="580" 
d="M535 -1q-35 -7 -75.5 -10.5t-65.5 -3.5q-71 0 -119.5 16.5t-78.5 48t-43 76.5t-13 103v740h237v-713q0 -38 18.5 -53t58.5 -15q29 0 81 7v-196z" />
    <glyph glyph-name="kappa" unicode="&#x3ba;" horiz-adv-x="1117" 
d="M367 320v-320h-237v969h237v-380h4l250 222q62 56 109 91t91.5 55.5t93.5 28t116 7.5v-203q-40 0 -72.5 -7t-64.5 -23.5t-67 -43t-81 -66.5l-108 -94l469 -556h-294l-341 411z" />
    <glyph glyph-name="lambda" unicode="&#x3bb;" horiz-adv-x="1070" 
d="M242 1473q81 0 140.5 -25t106.5 -79t86.5 -136t82.5 -198l382 -1035h-252l-134 391q-65 191 -91 284h-4q-33 -93 -110 -284l-160 -391h-259l412 943q-61 176 -98.5 233.5t-72.5 79t-84 21.5q-23 0 -48.5 -4t-47.5 -11v188q33 11 71 17t80 6z" />
    <glyph glyph-name="mu" unicode="&#x3bc;" horiz-adv-x="1235" 
d="M1190 -2q-24 -6 -55 -9t-52 -3q-88 0 -139 47t-65 129h-4q-25 -51 -57.5 -86.5t-70 -58t-78 -32.5t-82.5 -10q-30 0 -61.5 7t-60 20.5t-52.5 34.5t-39 49h-5q2 -20 5 -53.5t6 -76.5t5 -94t2 -105v-222h-237v1434h237v-523q0 -41 2.5 -72.5t9.5 -54.5q20 -69 65.5 -102.5
t114.5 -33.5q72 0 127 35t82 106q11 30 16.5 71.5t5.5 99.5v474h237v-619q0 -38 3.5 -68t14 -50.5t29 -31.5t48.5 -11q25 0 48 5v-196z" />
    <glyph glyph-name="nu" unicode="&#x3bd;" horiz-adv-x="1024" 
d="M958 969v-22q0 -158 -31 -289.5t-84.5 -245.5t-125 -214.5t-151.5 -197.5h-189l-347 969h250l145 -422l31.5 -92l23.5 -71.5l17.5 -56.5t13.5 -47h4q39 50 73.5 119.5t61 151.5t42 175t15.5 185q0 9 -0.5 25t-1.5 33h253z" />
    <glyph glyph-name="xi" unicode="&#x3be;" horiz-adv-x="953" 
d="M862 655h-37q-105 0 -193.5 -16.5t-152 -49.5t-99.5 -82t-36 -114q0 -49 25 -79t62 -47.5t93 -30t111 -23.5q58 -12 114 -28t100.5 -46t71.5 -78.5t27 -124.5q0 -40 -11 -87.5t-28.5 -91t-38.5 -84t-42 -74.5h-252q47 70 84.5 152.5t37.5 136.5q0 46 -24 70.5t-63 40
t-88 25.5l-106 22q-58 13 -115 32t-102 53t-72.5 88t-27.5 137q0 73 23 131t64.5 104t97.5 80.5t122 59.5v4q-109 24 -165 76.5t-56 138.5q0 114 91.5 199t277.5 154v4q-246 -39 -373 -48v192q112 0 315 4.5t427 17.5v-172q-112 -28 -203.5 -60.5t-155.5 -70.5t-99 -82
t-35 -96q0 -42 16 -70.5t52 -46.5t95 -25.5t145 -7.5q56 0 123 3v-190z" />
    <glyph glyph-name="omicron" unicode="&#x3bf;" horiz-adv-x="1134" 
d="M809 484q0 77 -18 136t-50 99t-77 60t-98 20q-52 0 -96.5 -20t-76.5 -60t-50 -99t-18 -136t18 -136t50.5 -98.5t77 -60t97.5 -20.5t97 20.5t76 60t50 98.5t18 136zM1054 484q0 -114 -34 -208t-97.5 -161t-153.5 -103.5t-201 -36.5q-114 0 -204.5 36.5t-153.5 103.5
t-96.5 161t-33.5 208t34 208t97.5 161t153.5 103.5t201 36.5q114 0 204.5 -36.5t153.5 -103.5t96.5 -161t33.5 -208z" />
    <glyph glyph-name="pi" unicode="&#x3c0;" horiz-adv-x="1246" 
d="M470 766v-766h-237v766h-188v203h1156v-203h-189v-510q0 -38 18.5 -53t58.5 -15q32 0 81 7v-196q-36 -7 -76 -10.5t-65 -3.5q-71 0 -119.5 16.5t-78.5 48t-43 76.5t-13 103v537h-305z" />
    <glyph glyph-name="rho" unicode="&#x3c1;" horiz-adv-x="1158" 
d="M150 450q0 75 5.5 132t18.5 102q28 96 77 156t109.5 94t126.5 46.5t126 12.5q111 0 198.5 -38t146.5 -105.5t89.5 -159t30.5 -199.5q0 -124 -35.5 -220.5t-96 -162t-141 -99.5t-170.5 -34q-89 0 -147.5 28.5t-99.5 70.5h-4q3 -93 3 -170v-369h-237v915zM833 493
q0 76 -17 134.5t-47 98.5t-70.5 60.5t-88.5 20.5q-34 0 -65 -9.5t-58 -30.5t-48 -54.5t-34 -80.5q-10 -35 -14 -82t-4 -107v-174q35 -43 90 -71.5t122 -28.5q47 0 89 16.5t74.5 54.5t51.5 100t19 153z" />
    <glyph glyph-name="sigma" unicode="&#x3c3;" horiz-adv-x="1183" 
d="M1020 774q-57 0 -120 3v-4q28 -25 53 -59t44 -75t30 -89t11 -102q0 -99 -31 -185t-92 -150t-151 -101t-209 -37q-111 0 -199 36.5t-149.5 102t-94 157t-32.5 201.5q0 155 67.5 270t195.5 174q28 13 59 23t68.5 16.5t83 10t101.5 3.5h488v-195h-123zM608 774
q-84 0 -137 -26t-85.5 -69t-46.5 -99t-14 -116q0 -71 18.5 -126t50 -92.5t75 -57t92.5 -19.5q108 0 170 76t62 215q0 56 -12.5 103t-33 86t-46.5 70t-52 55h-41z" />
    <glyph glyph-name="sigma1" unicode="&#x3c2;" horiz-adv-x="885" 
d="M585 -117q0 42 -21.5 69.5t-58 47t-81 35t-92 36t-93.5 51.5t-81 77t-56.5 115.5t-21.5 165.5q0 135 41 234t109.5 161t153.5 90t170 28q148 0 263 -49v-194q-58 23 -114 36t-116 13q-48 0 -95 -16t-84 -52t-60 -94t-23 -142q0 -70 22 -117.5t58 -79t81.5 -51.5t93.5 -38
t93.5 -37.5t81.5 -50t58 -78t22 -114.5q0 -80 -33.5 -166t-85.5 -164h-255q66 91 95 164t29 120z" />
    <glyph glyph-name="tau" unicode="&#x3c4;" horiz-adv-x="922" 
d="M45 969h832v-203h-341v-502q0 -49 27.5 -69.5t81.5 -20.5q32 0 71 5t62 10v-192q-43 -11 -96 -16.5t-92 -5.5q-151 0 -221 66t-70 206v519h-254v203z" />
    <glyph glyph-name="upsilon" unicode="&#x3c5;" horiz-adv-x="1125" 
d="M137 723q0 24 -12 36.5t-32 12.5q-18 0 -48 -9v204q30 7 64 12t63 5q46 0 83.5 -11.5t64.5 -37t41.5 -67.5t14.5 -103q0 -30 -2.5 -70.5t-5 -86l-5 -93t-2.5 -90.5q0 -121 50.5 -188.5t153.5 -67.5q51 0 92.5 19.5t71 60t45.5 103t16 148.5q0 48 -8 104t-22.5 116
t-34 123t-43.5 126h244q18 -43 37.5 -99t35.5 -118t26 -128t10 -129q0 -118 -29.5 -214t-88 -164t-147 -105t-207.5 -37q-105 0 -187.5 29t-140.5 84t-88.5 135.5t-30.5 183.5q0 45 3.5 90.5t7 86.5t7 77t3.5 62z" />
    <glyph glyph-name="phi" unicode="&#x3c6;" horiz-adv-x="1431" 
d="M325 485q0 -66 20 -121t56.5 -96t87 -68t110.5 -38v651q-60 -10 -110.5 -38t-87 -70.5t-56.5 -98t-20 -121.5zM832 1448v-440q119 -12 214.5 -57.5t163.5 -115.5t104.5 -159.5t36.5 -190.5t-37 -190.5t-105.5 -158.5t-164 -113t-212.5 -56v-432h-233v432
q-117 12 -212.5 56t-164 113t-105.5 158.5t-37 190.5t36.5 190.5t104.5 159.5t164 115.5t214 57.5v440h233zM1106 485q0 66 -20 121.5t-56.5 98t-87 70.5t-110.5 38v-651q60 11 110.5 38t87 68t56.5 96t20 121z" />
    <glyph glyph-name="phi.salt" horiz-adv-x="1412" 
d="M545 969q-108 -101 -164 -217.5t-56 -235.5q0 -67 17.5 -127.5t51 -108t82 -78.5t110.5 -40v466q0 183 88 274t245 91q91 0 167 -30.5t130.5 -89t85 -144.5t30.5 -197q0 -116 -35.5 -214t-102 -170.5t-160.5 -118.5t-211 -59v-435h-237v433q-126 12 -220.5 57t-158 114.5
t-95.5 161t-32 197.5q0 65 13 130t38 126t61.5 115.5t83.5 99.5h269zM823 162q62 8 110.5 37t83 77t52.5 114t18 147q0 55 -9.5 103t-28.5 83t-48 55.5t-66 20.5q-61 0 -86.5 -46t-25.5 -139v-452z" />
    <glyph glyph-name="chi" unicode="&#x3c7;" horiz-adv-x="1083" 
d="M55 976q51 17 113 17q75 0 135.5 -27.5t107 -87t80.5 -152t56 -223.5h4l66 131.5t63 113.5l128 221h255l-439 -734q32 -145 62 -245t63 -162t72 -89t89 -27q36 0 74 7v-186q-26 -9 -56 -13t-56 -4q-76 0 -139.5 22.5t-114 79t-89.5 152.5t-67 242h-4l-29.5 -60
l-35.5 -68.5l-38.5 -70.5l-37.5 -67l-122 -211h-255l443 741q-34 150 -60 250t-54 160t-64 85.5t-90 25.5q-27 0 -60 -7v186z" />
    <glyph glyph-name="psi" unicode="&#x3c8;" horiz-adv-x="1503" 
d="M870 167q80 9 136.5 47.5t92 118.5t52 209t16.5 319q0 53 -1 108h241q1 -59 1 -93q0 -162 -11.5 -289t-37 -224.5t-66.5 -167.5t-101 -116.5t-139.5 -72t-182.5 -34.5v-437h-237v437q-103 9 -182.5 34.5t-139.5 72t-101 116.5t-66.5 167.5t-37 224.5t-11.5 289q0 20 1 93
h241q-1 -92 -1 -108q0 -190 16.5 -319t52 -209t92 -118.5t136.5 -47.5v1113h237v-1113z" />
    </font>
</defs>
</svg>
